<?xml version="1.0" standalone="no"?>
<!DOCTYPE svg PUBLIC "-//W3C//DTD SVG 20010904//EN"
 "http://www.w3.org/TR/2001/REC-SVG-20010904/DTD/svg10.dtd">
<svg version="1.0" xmlns="http://www.w3.org/2000/svg"
 width="400.000000pt" height="400.000000pt" viewBox="0 0 400.000000 400.000000"
 preserveAspectRatio="xMidYMid meet">
<metadata>
Created by potrace 1.11, written by Peter Selinger 2001-2013
</metadata>
<g transform="translate(0.000000,400.000000) scale(0.100000,-0.100000)"
fill="#000000" stroke="none">
<path d="M0 3933 l0 -64 43 3 c34 2 42 7 40 21 -1 16 4 18 25 12 54 -13 135
-18 129 -8 -4 6 -19 9 -34 7 -24 -3 -25 -3 -5 4 37 11 21 27 -25 26 -24 -1
-43 2 -43 7 0 5 5 9 10 9 6 0 10 4 10 10 0 5 -8 7 -17 3 -13 -4 -15 -3 -8 5 6
6 33 11 60 12 71 2 75 2 69 -15 -9 -22 52 -46 83 -32 13 5 23 14 23 19 0 15
-32 22 -40 9 -5 -10 -9 -9 -13 3 -5 12 0 16 18 16 14 0 25 4 25 10 0 6 -66 9
-175 8 l-175 -1 0 -64z m207 -9 c-3 -3 -12 -4 -19 -1 -8 3 -5 6 6 6 11 1 17
-2 13 -5z m-130 -40 c-3 -3 -12 -4 -19 -1 -8 3 -5 6 6 6 11 1 17 -2 13 -5z"/>
<path d="M380 3983 c0 -8 5 -11 10 -8 6 3 10 2 10 -4 0 -5 -8 -12 -17 -14 -10
-3 -5 -5 12 -6 17 0 37 4 45 9 13 8 12 10 -3 10 -10 0 -16 4 -13 9 3 5 -5 11
-19 13 -17 4 -25 1 -25 -9z"/>
<path d="M778 3988 c-8 -5 1 -8 23 -8 19 0 41 -6 48 -12 11 -10 13 -10 7 0 -5
7 -1 12 9 12 9 0 14 4 11 9 -7 11 -81 10 -98 -1z"/>
<path d="M893 3993 c11 -11 69 -14 62 -3 -3 6 -20 10 -37 10 -17 0 -28 -3 -25
-7z"/>
<path d="M982 3980 c-13 -11 -32 -17 -47 -14 -16 3 -27 -2 -34 -13 -5 -10 -12
-17 -15 -15 -14 6 -26 1 -26 -11 0 -18 28 -18 34 -1 3 8 12 11 22 7 13 -5 15
-3 9 8 -6 11 -5 12 5 2 11 -10 17 -9 32 4 17 15 19 14 38 -10 14 -17 26 -23
41 -20 16 4 17 8 7 14 -9 6 -7 9 9 9 18 0 21 -5 17 -25 -4 -21 0 -25 18 -26
20 0 21 -1 5 -8 -16 -6 -17 -9 -5 -18 16 -14 80 -25 72 -12 -3 5 -15 10 -27
10 -17 1 -18 2 -4 6 20 5 20 8 7 33 -8 14 -6 18 6 16 9 -1 19 -8 24 -16 4 -7
17 -11 28 -8 15 4 19 2 15 -8 -3 -8 1 -14 10 -14 8 0 20 -6 26 -13 6 -8 23
-12 42 -9 22 3 30 1 25 -7 -4 -6 -12 -9 -17 -6 -5 4 -9 3 -9 -2 1 -11 30 -49
30 -38 0 4 9 -2 20 -15 15 -18 20 -19 20 -7 0 9 9 22 20 30 19 13 19 13 -1 28
-20 14 -20 14 3 21 21 6 21 6 -4 7 -21 1 -28 6 -28 21 0 18 7 20 85 20 56 0
85 -4 85 -11 0 -8 4 -9 13 0 8 6 18 7 22 3 5 -4 6 0 3 9 -4 9 -1 16 7 16 8 0
11 -7 7 -15 -4 -11 -1 -13 8 -7 8 5 11 4 7 -2 -4 -6 0 -14 9 -17 22 -8 82 -7
87 2 3 4 -15 5 -39 3 -30 -2 -44 1 -44 9 0 7 6 10 13 7 8 -3 20 -1 28 4 10 6
4 9 -21 10 -20 1 -27 3 -16 6 15 4 16 7 5 14 -10 6 -8 9 9 9 13 0 20 -4 17
-10 -4 -6 5 -10 20 -10 15 0 24 -4 20 -10 -3 -5 1 -10 10 -10 9 0 14 4 11 9
-4 5 0 12 6 14 7 3 -2 6 -19 6 -18 1 -33 6 -33 11 0 6 -16 10 -36 10 -21 0
-33 -4 -29 -10 4 -6 -5 -10 -19 -10 -14 0 -26 5 -26 10 0 6 -7 10 -16 10 -8 0
-12 -4 -9 -10 9 -14 -29 -12 -43 2 -10 10 -15 10 -22 -2 -9 -13 -11 -13 -20 0
-6 10 -10 11 -10 3 0 -7 -9 -13 -21 -13 -11 0 -17 5 -14 10 4 6 3 10 -2 9 -25
-4 -73 2 -69 9 3 5 -1 9 -9 9 -8 0 -12 -4 -9 -9 3 -4 -4 -8 -15 -8 -11 0 -23
5 -26 10 -3 6 -15 10 -25 10 -14 0 -18 5 -14 18 5 16 5 16 -6 0 -6 -10 -19
-18 -28 -19 -10 0 -12 -3 -4 -6 21 -8 13 -29 -12 -29 -24 0 -24 1 -10 28 8 16
19 26 24 23 5 -3 11 -2 14 3 2 4 -39 8 -92 9 -82 2 -101 -1 -120 -17z m173 1
c-9 -8 -36 -10 -30 -2 2 4 11 8 20 8 8 0 13 -3 10 -6z m-15 -25 c0 -9 -30 -14
-35 -6 -4 6 3 10 14 10 12 0 21 -2 21 -4z m108 -23 c-10 -2 -18 -8 -18 -12 0
-4 -9 -7 -19 -8 -14 -1 -18 3 -14 13 3 8 18 14 37 13 17 -1 23 -3 14 -6z m99
-19 c-3 -3 -12 -4 -19 -1 -8 3 -5 6 6 6 11 1 17 -2 13 -5z m136 -1 c-7 -2 -19
-2 -25 0 -7 3 -2 5 12 5 14 0 19 -2 13 -5z m54 1 c-3 -3 -12 -4 -19 -1 -8 3
-5 6 6 6 11 1 17 -2 13 -5z m-265 -38 c7 4 8 2 4 -5 -9 -13 -26 -5 -25 12 0 9
2 8 6 -1 2 -6 10 -9 15 -6z m58 4 c0 -5 -4 -10 -10 -10 -5 0 -10 5 -10 10 0 6
5 10 10 10 6 0 10 -4 10 -10z m14 -45 c-4 -8 -8 -15 -10 -15 -2 0 -4 7 -4 15
0 8 4 15 10 15 5 0 7 -7 4 -15z m36 -20 c0 -2 -7 -5 -15 -9 -9 -3 -15 0 -15 9
0 9 6 12 15 9 8 -4 15 -7 15 -9z"/>
<path d="M2150 3986 c0 -12 10 -16 43 -15 40 1 40 1 11 8 -17 4 -36 11 -42 15
-7 4 -12 1 -12 -8z"/>
<path d="M2348 3993 c7 -3 16 -2 19 1 4 3 -2 6 -13 5 -11 0 -14 -3 -6 -6z"/>
<path d="M2448 3993 c7 -3 16 -2 19 1 4 3 -2 6 -13 5 -11 0 -14 -3 -6 -6z"/>
<path d="M2588 3993 c6 -2 18 -2 25 0 6 3 1 5 -13 5 -14 0 -19 -2 -12 -5z"/>
<path d="M2786 3985 c-18 -14 -12 -15 60 -14 43 0 72 3 64 6 -8 3 -18 11 -22
17 -5 8 -8 7 -8 -1 0 -9 -15 -13 -42 -12 -40 1 -41 2 -13 9 28 7 28 8 5 8 -14
1 -34 -5 -44 -13z"/>
<path d="M2926 3987 c3 -10 9 -15 12 -12 3 3 0 11 -7 18 -10 9 -11 8 -5 -6z"/>
<path d="M3490 3992 c-53 -3 -54 -4 -30 -17 23 -12 19 -14 -48 -12 -40 1 -65
4 -55 8 10 4 21 5 26 2 4 -2 7 0 7 5 0 6 -16 10 -35 10 -33 0 -42 -14 -20 -30
6 -4 51 -9 100 -10 l90 -2 -85 -5 c-47 -3 -76 -9 -65 -12 15 -5 11 -7 -13 -8
-32 -1 -33 -2 -16 -18 13 -13 19 -14 22 -5 5 16 32 16 32 0 0 -9 4 -8 10 2 6
10 10 11 10 3 0 -15 36 -17 45 -3 3 6 13 10 21 10 8 0 12 -4 9 -10 -3 -5 3
-10 14 -10 11 0 22 -4 25 -9 4 -5 25 -12 47 -16 23 -4 37 -10 30 -14 -14 -9
68 -35 134 -43 12 -2 41 -30 38 -37 -2 -2 17 -4 42 -4 25 0 42 -3 39 -8 -3 -5
0 -9 6 -9 6 0 8 -4 5 -10 -9 -15 4 -12 20 4 8 7 11 16 8 20 -4 3 6 6 21 6 16
0 25 -4 21 -10 -3 -6 5 -10 19 -10 23 0 25 -3 16 -24 -5 -15 -5 -27 3 -35 8
-8 5 -11 -14 -12 -17 -1 -19 -3 -6 -6 9 -2 15 -9 12 -14 -16 -25 -13 -49 5
-49 18 0 19 10 19 195 l0 194 -227 -2 c-125 -1 -252 -3 -282 -5z m30 -22 c0
-5 -7 -10 -16 -10 -8 0 -12 5 -9 10 3 6 10 10 16 10 5 0 9 -4 9 -10z m-62 -47
c-10 -2 -28 -2 -40 0 -13 2 -5 4 17 4 22 1 32 -1 23 -4z m200 0 c-27 -2 -69
-2 -95 0 -27 2 -5 3 47 3 52 0 74 -1 48 -3z m179 1 c-3 -3 -12 -4 -19 -1 -8 3
-5 6 6 6 11 1 17 -2 13 -5z m80 0 c-3 -3 -12 -4 -19 -1 -8 3 -5 6 6 6 11 1 17
-2 13 -5z m-460 -20 c-3 -3 -12 -4 -19 -1 -8 3 -5 6 6 6 11 1 17 -2 13 -5z
m176 -1 c-7 -2 -19 -2 -25 0 -7 3 -2 5 12 5 14 0 19 -2 13 -5z m-60 -20 c-7
-2 -19 -2 -25 0 -7 3 -2 5 12 5 14 0 19 -2 13 -5z m255 0 c-10 -2 -28 -2 -40
0 -13 2 -5 4 17 4 22 1 32 -1 23 -4z m96 -71 c3 -5 -1 -9 -9 -9 -8 0 -12 4 -9
9 3 4 7 8 9 8 2 0 6 -4 9 -8z m-77 -8 c-3 -3 -12 -4 -19 -1 -8 3 -5 6 6 6 11
1 17 -2 13 -5z"/>
<path d="M633 3983 c9 -2 23 -2 30 0 6 3 -1 5 -18 5 -16 0 -22 -2 -12 -5z"/>
<path d="M2957 3979 c7 -7 15 -10 18 -7 3 3 -2 9 -12 12 -14 6 -15 5 -6 -5z"/>
<path d="M2258 3973 c12 -2 20 -8 18 -12 -8 -13 43 -6 56 7 9 9 0 12 -42 11
-30 -1 -45 -4 -32 -6z"/>
<path d="M2388 3973 c17 -2 47 -2 65 0 17 2 3 4 -33 4 -36 0 -50 -2 -32 -4z"/>
<path d="M2518 3973 c12 -2 32 -2 45 0 12 2 2 4 -23 4 -25 0 -35 -2 -22 -4z"/>
<path d="M2684 3970 c17 -6 36 -5 45 0 11 7 3 9 -29 9 -42 -1 -43 -1 -16 -9z"/>
<path d="M3078 3973 c7 -3 16 -2 19 1 4 3 -2 6 -13 5 -11 0 -14 -3 -6 -6z"/>
<path d="M183 3963 c9 -2 23 -2 30 0 6 3 -1 5 -18 5 -16 0 -22 -2 -12 -5z"/>
<path d="M670 3966 c0 -2 7 -6 15 -10 8 -3 15 -1 15 4 0 6 -7 10 -15 10 -8 0
-15 -2 -15 -4z"/>
<path d="M810 3960 c0 -5 4 -10 9 -10 6 0 13 5 16 10 3 6 -1 10 -9 10 -9 0
-16 -4 -16 -10z"/>
<path d="M2074 3961 c5 -7 -8 -11 -38 -11 -36 0 -44 -3 -40 -15 4 -8 15 -15
26 -15 10 0 16 -4 13 -10 -4 -6 30 -9 97 -8 l103 2 -95 6 -95 6 95 4 c90 4 91
4 27 7 -37 2 -65 8 -62 13 3 5 -4 14 -16 20 -15 8 -19 9 -15 1z m-16 -28 c-10
-2 -26 -2 -35 0 -10 3 -2 5 17 5 19 0 27 -2 18 -5z"/>
<path d="M2413 3953 c9 -2 23 -2 30 0 6 3 -1 5 -18 5 -16 0 -22 -2 -12 -5z"/>
<path d="M2550 3952 c0 -5 -10 -14 -22 -20 -22 -10 -22 -11 6 -11 16 -1 26 2
23 6 -4 3 -2 12 4 20 9 9 8 13 0 13 -6 0 -11 -4 -11 -8z"/>
<path d="M2791 3951 c-11 -7 -11 -9 0 -14 8 -3 -1 -6 -20 -6 l-34 -1 19 -22
c10 -12 15 -19 9 -16 -5 3 -19 2 -30 -3 -16 -6 -14 -8 13 -8 28 -1 32 2 27 18
-4 13 0 20 16 24 13 4 18 10 14 18 -6 9 4 11 39 7 25 -3 46 -2 46 3 0 12 -81
11 -99 0z"/>
<path d="M2668 3943 c6 -2 18 -2 25 0 6 3 1 5 -13 5 -14 0 -19 -2 -12 -5z"/>
<path d="M2728 3943 c7 -3 16 -2 19 1 4 3 -2 6 -13 5 -11 0 -14 -3 -6 -6z"/>
<path d="M2256 3932 c-3 -5 1 -9 9 -9 8 0 12 4 9 9 -3 4 -7 8 -9 8 -2 0 -6 -4
-9 -8z"/>
<path d="M2570 3930 c0 -5 5 -10 11 -10 5 0 8 -4 5 -8 -3 -5 1 -9 8 -9 11 0
12 4 3 19 -13 20 -27 24 -27 8z"/>
<path d="M2830 3920 c-6 -12 -4 -16 10 -16 10 0 17 4 14 7 -2 4 8 9 23 11 27
3 27 4 -5 9 -24 4 -35 1 -42 -11z"/>
<path d="M1745 3920 l30 -8 -34 -1 c-19 0 -32 -3 -29 -6 9 -9 129 -11 134 -3
3 5 -1 9 -8 10 -7 1 21 4 62 8 l75 6 -83 2 c-53 1 -81 -2 -77 -8 3 -6 -4 -10
-17 -10 -18 0 -20 2 -8 10 11 7 2 9 -30 9 -41 -1 -42 -2 -15 -9z"/>
<path d="M2318 3923 c7 -3 16 -2 19 1 4 3 -2 6 -13 5 -11 0 -14 -3 -6 -6z"/>
<path d="M2368 3923 c12 -2 30 -2 40 0 9 3 -1 5 -23 4 -22 0 -30 -2 -17 -4z"/>
<path d="M2661 3907 c21 -20 25 -21 34 -6 6 9 16 14 24 11 8 -3 11 0 7 7 -11
17 -36 13 -36 -5 0 -14 -1 -14 -16 0 -8 9 -20 16 -26 16 -6 0 0 -10 13 -23z"/>
<path d="M951 3904 c0 -11 3 -14 6 -6 3 7 2 16 -1 19 -3 4 -6 -2 -5 -13z"/>
<path d="M996 3905 c4 -8 11 -15 16 -15 6 0 5 6 -2 15 -7 8 -14 15 -16 15 -2
0 -1 -7 2 -15z"/>
<path d="M1943 3903 c15 -2 39 -2 55 0 15 2 2 4 -28 4 -30 0 -43 -2 -27 -4z"/>
<path d="M2498 3903 c6 -2 18 -2 25 0 6 3 1 5 -13 5 -14 0 -19 -2 -12 -5z"/>
<path d="M2548 3903 c7 -3 16 -2 19 1 4 3 -2 6 -13 5 -11 0 -14 -3 -6 -6z"/>
<path d="M2790 3895 c0 -8 7 -15 16 -15 14 0 14 3 4 15 -7 8 -14 15 -16 15 -2
0 -4 -7 -4 -15z"/>
<path d="M1478 3883 c6 -2 18 -2 25 0 6 3 1 5 -13 5 -14 0 -19 -2 -12 -5z"/>
<path d="M1544 3877 c3 -10 6 -21 6 -23 0 -2 7 -4 15 -4 18 0 19 9 4 30 -9 12
-10 11 -5 -5 l6 -20 -16 20 c-15 18 -16 18 -10 2z"/>
<path d="M1801 3884 c-1 -7 8 -22 20 -35 11 -13 18 -19 15 -12 -4 6 0 14 6 16
8 3 6 6 -4 6 -12 1 -16 7 -12 19 5 13 4 14 -4 3 -8 -11 -10 -11 -15 0 -3 8 -6
9 -6 3z"/>
<path d="M1845 3880 c-3 -5 -1 -10 4 -10 6 0 11 5 11 10 0 6 -2 10 -4 10 -3 0
-8 -4 -11 -10z"/>
<path d="M2015 3880 c-3 -5 3 -10 14 -10 11 0 23 5 26 10 3 6 -3 10 -14 10
-11 0 -23 -4 -26 -10z"/>
<path d="M2518 3883 c12 -2 32 -2 45 0 12 2 2 4 -23 4 -25 0 -35 -2 -22 -4z"/>
<path d="M2598 3883 c7 -3 16 -2 19 1 4 3 -2 6 -13 5 -11 0 -14 -3 -6 -6z"/>
<path d="M2543 3863 c4 -3 17 -7 30 -8 12 -2 21 -8 20 -14 -4 -15 14 -14 19 1
3 8 24 12 59 11 l54 -1 -50 7 c-30 5 -55 4 -62 -2 -9 -6 -13 -6 -13 2 0 6 -14
11 -32 11 -17 0 -28 -3 -25 -7z"/>
<path d="M2747 3857 c-3 -9 -18 -17 -34 -20 -20 -3 -16 -4 15 -6 27 0 42 3 42
12 1 6 12 -1 25 -18 l24 -29 -3 29 c-2 17 -4 34 -5 38 0 5 -7 5 -13 0 -17 -10
-32 -11 -39 0 -3 5 -9 2 -12 -6z m63 -17 c0 -5 -2 -10 -4 -10 -3 0 -8 5 -11
10 -3 6 -1 10 4 10 6 0 11 -4 11 -10z"/>
<path d="M2827 3859 c7 -7 15 -10 18 -7 3 3 -2 9 -12 12 -14 6 -15 5 -6 -5z"/>
<path d="M1418 3853 c6 -2 18 -2 25 0 6 3 1 5 -13 5 -14 0 -19 -2 -12 -5z"/>
<path d="M2058 3853 c7 -3 16 -2 19 1 4 3 -2 6 -13 5 -11 0 -14 -3 -6 -6z"/>
<path d="M2413 3853 c9 -2 23 -2 30 0 6 3 -1 5 -18 5 -16 0 -22 -2 -12 -5z"/>
<path d="M1400 3836 c0 -2 9 -6 20 -9 11 -3 18 -1 14 4 -5 9 -34 13 -34 5z"/>
<path d="M1918 3833 c7 -3 16 -2 19 1 4 3 -2 6 -13 5 -11 0 -14 -3 -6 -6z"/>
<path d="M2478 3833 c7 -3 16 -2 19 1 4 3 -2 6 -13 5 -11 0 -14 -3 -6 -6z"/>
<path d="M2528 3833 c7 -3 16 -2 19 1 4 3 -2 6 -13 5 -11 0 -14 -3 -6 -6z"/>
<path d="M1430 3809 c-14 -4 -20 -8 -15 -9 6 -1 -1 -6 -15 -10 -25 -8 -25 -8
5 -10 l30 -2 -30 -8 c-27 -7 -26 -8 15 -9 32 0 41 2 30 9 -13 9 -13 10 0 10
13 0 13 2 1 9 -11 7 -10 10 5 13 10 2 15 6 9 9 -5 3 -21 3 -35 -2z"/>
<path d="M1520 3810 c0 -5 5 -10 10 -10 6 0 10 5 10 10 0 6 -4 10 -10 10 -5 0
-10 -4 -10 -10z"/>
<path d="M2344 3805 c3 -9 1 -15 -7 -14 -6 1 -34 1 -61 0 -45 -1 -48 -2 -31
-15 20 -14 28 -14 57 -2 10 5 23 6 30 3 7 -3 2 -6 -12 -7 -23 -1 -23 -2 -5
-10 17 -7 15 -9 -11 -9 -31 -1 -51 -22 -38 -42 5 -9 -12 -12 -58 -9 -23 1 -27
-2 -22 -17 5 -17 5 -17 -6 0 -6 9 -21 17 -33 17 -18 0 -19 2 -7 10 8 5 11 10
5 10 -5 0 -3 5 5 10 17 11 14 11 -59 14 -30 1 -37 -2 -29 -11 8 -10 -1 -13
-41 -13 -29 0 -50 -4 -47 -8 3 -5 -1 -9 -8 -9 -8 0 -12 6 -9 14 3 7 20 13 40
13 19 0 32 4 28 9 -3 5 -20 8 -38 6 -17 -2 -48 -4 -67 -5 l-35 -3 35 -7 c31
-6 32 -8 8 -9 -15 0 -32 -9 -38 -18 -11 -17 -11 -17 -6 0 3 9 1 17 -4 17 -6 0
-10 -8 -10 -17 0 -15 -2 -16 -10 -3 -8 13 -10 12 -10 -2 0 -10 5 -18 11 -18 5
0 7 -4 4 -10 -3 -5 2 -10 12 -10 14 0 15 -2 4 -9 -11 -7 -11 -9 0 -14 8 -3 4
-6 -8 -6 -21 -1 -28 9 -24 32 0 4 -4 7 -10 7 -5 0 -7 5 -3 12 5 7 3 8 -5 4 -7
-5 -10 -15 -7 -23 9 -23 -3 -34 -23 -21 -20 12 -56 4 -46 -11 3 -5 1 -12 -4
-16 -10 -6 -79 -7 -117 -2 -21 3 -84 47 -68 47 5 0 -4 7 -20 15 -16 9 -32 12
-35 7 -3 -5 -24 -9 -45 -10 -52 -2 -61 -13 -59 -73 1 -27 -2 -49 -7 -49 -6 0
-7 -19 -3 -45 4 -35 3 -45 -8 -45 -11 0 -11 -2 1 -10 12 -8 9 -10 -12 -10 -16
0 -28 -4 -28 -10 0 -5 -8 -10 -17 -11 -15 0 -15 -2 2 -8 17 -7 14 -9 -15 -15
-19 -3 -42 -11 -50 -16 -13 -9 -13 -11 0 -20 12 -9 12 -10 -5 -8 -12 2 -19 -2
-18 -9 3 -15 -13 -17 -22 -3 -8 13 -35 13 -35 -1 0 -5 6 -7 13 -4 6 4 1 -3
-13 -15 -14 -12 -18 -20 -10 -17 9 3 24 -1 35 -9 18 -14 18 -14 -1 -15 -11 -1
-7 -4 11 -8 l30 -7 -42 -14 c-24 -7 -43 -15 -43 -17 0 -16 24 -43 38 -43 9 0
24 -5 32 -11 11 -7 3 -9 -32 -7 -27 2 -48 0 -48 -4 0 -15 -48 -8 -54 7 -7 18
16 30 42 21 14 -5 14 -4 -2 9 -11 8 -16 15 -10 16 5 0 0 4 -11 8 -23 10 -43 2
-25 -9 7 -4 9 -13 6 -19 -5 -8 -17 -6 -39 6 -18 9 -37 16 -44 15 -6 -1 -14 2
-18 8 -5 8 -11 7 -21 -1 -21 -17 -17 -31 6 -19 14 7 20 7 20 0 0 -5 -4 -10
-10 -10 -5 0 -10 -7 -10 -16 0 -12 10 -15 48 -14 63 2 71 0 45 -10 -13 -5 -23
-15 -23 -22 0 -7 -9 -19 -19 -25 -15 -10 -22 -9 -31 2 -10 12 -9 15 8 15 12 0
24 5 28 12 5 7 3 8 -5 3 -7 -4 -24 -2 -37 6 -19 10 -27 10 -36 1 -7 -7 -19
-12 -28 -12 -13 0 -13 1 0 10 12 8 11 10 -8 10 -13 0 -33 -11 -45 -23 -12 -13
-29 -26 -37 -29 -8 -3 9 -5 37 -5 29 -1 50 3 47 8 -3 5 2 6 12 2 13 -5 8 -10
-22 -25 -46 -22 -48 -22 -40 -3 5 14 2 14 -24 0 -39 -20 -89 -20 -86 0 1 8 11
22 22 30 18 13 18 14 -5 8 -17 -4 -22 -3 -17 5 5 8 -2 12 -21 12 -28 0 -53 15
-53 32 0 5 12 6 28 3 15 -3 20 -2 12 1 -8 4 -34 15 -57 25 -52 24 -53 23 -53
-1 0 -11 -4 -20 -10 -20 -5 0 -10 -4 -10 -9 0 -6 12 -6 30 0 44 16 60 5 23
-14 -18 -10 -39 -17 -47 -17 -8 0 -19 -14 -25 -32 -11 -30 -12 -30 -30 -14
-15 14 -26 15 -60 7 -53 -12 -63 -21 -25 -22 17 -1 22 -3 12 -6 -10 -2 -18
-10 -18 -17 0 -9 -9 -12 -27 -8 -18 3 -30 -1 -39 -12 -7 -11 -23 -17 -41 -15
-51 4 -79 0 -64 -10 9 -6 10 -11 2 -15 -8 -5 -6 -12 5 -24 12 -12 13 -17 4
-20 -7 -3 -16 2 -21 9 -4 7 -11 10 -15 7 -8 -8 -35 17 -38 35 -3 24 -18 37
-42 37 -13 0 -24 5 -24 11 0 7 12 8 32 4 l33 -6 -28 15 c-28 15 -62 12 -51 -5
5 -9 -11 -11 -104 -13 l-52 -1 0 -262 c0 -204 3 -263 13 -263 8 0 9 -2 1 -8
-13 -8 -14 -130 -1 -149 5 -8 4 -13 -2 -13 -16 0 -14 -1077 2 -1084 9 -3 9 -5
0 -5 -7 -1 -13 -10 -13 -20 0 -17 4 -18 38 -9 62 17 122 21 122 9 0 -6 -15
-12 -32 -13 -22 -1 -15 -4 22 -8 l55 -7 -80 -3 -80 -3 60 -7 c44 -5 51 -7 25
-9 -22 -2 -29 -5 -20 -9 8 -4 15 -17 14 -30 -1 -18 4 -22 29 -22 17 0 27 3 24
7 -4 3 -2 12 4 20 9 9 8 13 0 13 -6 0 -14 -7 -17 -15 -4 -8 -10 -15 -15 -15
-19 0 17 40 36 41 20 0 20 0 0 9 -17 7 -15 9 13 9 17 1 32 -3 32 -9 0 -5 12
-10 28 -9 l27 1 -25 8 c-24 8 -23 8 8 9 32 1 46 -22 20 -32 -7 -3 45 -6 116
-6 71 -1 127 -3 125 -5 -2 -2 -69 -6 -147 -10 -107 -5 -148 -10 -159 -21 -13
-13 -13 -15 0 -15 9 0 17 4 19 9 4 10 236 22 242 12 3 -4 -3 -7 -12 -7 -65 0
-96 -5 -83 -13 23 -14 2 -31 -32 -26 l-32 5 30 -10 c35 -11 66 -4 59 14 -3 9
9 13 46 14 27 0 50 -3 50 -9 0 -5 -6 -9 -14 -9 -8 0 -18 -5 -22 -12 -4 -7 -3
-8 5 -4 7 5 24 5 39 1 23 -6 25 -8 9 -16 -9 -6 -21 -8 -26 -4 -5 3 -12 1 -16
-5 -3 -5 3 -10 15 -10 12 0 19 -4 15 -9 -3 -5 3 -12 12 -14 10 -3 2 -6 -17 -7
l-35 -2 45 -11 c41 -9 43 -11 20 -18 -23 -6 -22 -7 10 -9 19 -1 46 -1 59 0 14
1 21 -2 17 -9 -4 -6 7 -15 26 -21 29 -9 26 -9 -24 -6 -32 3 -60 0 -63 -5 -4
-5 23 -10 62 -10 60 -2 63 -3 28 -9 l-40 -7 50 -3 c42 -3 45 -4 16 -7 -26 -3
-31 -7 -20 -14 10 -6 10 -9 2 -9 -7 0 -13 -7 -13 -15 0 -8 -6 -12 -14 -9 -7 3
-20 -1 -27 -9 -13 -12 -66 -32 -80 -29 -3 0 -6 -6 -6 -14 0 -8 7 -14 16 -15
21 -1 -43 -19 -93 -26 -27 -4 -37 -2 -32 6 5 8 -22 12 -91 13 -66 1 -79 3 -40
5 40 3 57 8 57 18 0 7 -6 16 -12 18 -10 4 -9 8 2 16 8 6 10 11 4 11 -6 0 -17
-7 -24 -15 -17 -20 -27 -19 -32 3 -4 15 -13 17 -43 14 -25 -3 -36 -1 -31 6 4
6 13 9 20 6 8 -3 17 -1 21 5 4 7 -10 11 -39 11 -25 0 -46 -2 -46 -4 0 -3 4
-16 10 -30 8 -23 7 -26 -10 -26 -11 0 -20 -3 -20 -7 0 -5 -19 -9 -43 -11 -41
-2 -42 -2 -16 12 15 7 39 18 55 24 l29 10 -30 2 c-28 1 -29 2 -7 10 38 16 24
21 -41 16 -34 -3 -52 -3 -39 0 31 7 28 22 -5 26 -16 3 3 5 40 5 37 0 71 4 74
7 4 3 -30 6 -75 6 l-82 0 0 -100 c0 -109 1 -110 60 -93 24 7 23 8 -10 14 l-35
6 36 2 c25 1 39 -4 43 -14 4 -11 21 -15 61 -15 38 0 54 4 49 11 -3 6 -15 9
-25 6 -10 -3 -22 -1 -25 4 -3 5 14 9 37 9 23 0 39 -3 36 -7 -4 -3 -2 -12 4
-20 10 -11 -9 -13 -109 -13 -115 0 -121 -1 -119 -20 1 -17 9 -20 62 -22 l60
-1 -60 -6 c-36 -4 -61 -11 -62 -18 -2 -8 8 -13 25 -13 21 0 24 2 12 10 -11 7
0 10 38 8 62 -1 73 -25 15 -31 -31 -3 -29 -4 15 -5 46 -2 52 -5 52 -23 0 -12
8 -23 20 -26 11 -3 20 -9 20 -14 0 -5 15 -9 34 -9 19 0 37 -6 39 -12 4 -10 8
-10 15 1 5 7 16 11 23 9 10 -3 7 -10 -9 -23 -32 -28 -6 -38 30 -12 24 18 30
19 38 7 6 -10 9 -5 8 18 -1 20 -6 32 -15 32 -7 0 -13 7 -13 15 0 11 8 13 33 8
37 -7 59 -21 51 -34 -3 -5 0 -9 5 -9 15 0 51 37 44 44 -4 3 5 6 18 6 23 1 23
1 5 15 -11 8 -39 15 -63 15 -24 0 -43 4 -43 9 0 5 47 8 108 5 70 -2 102 0 92
6 -8 5 -25 10 -37 10 -42 0 -32 18 13 23 26 2 50 11 55 18 8 13 19 10 84 -24
34 -17 85 -26 91 -15 4 6 29 8 63 5 31 -3 65 -1 76 3 19 8 19 9 -2 9 -16 1
-21 5 -16 17 3 9 0 20 -8 25 -19 12 5 28 46 30 17 1 22 3 13 6 -10 2 -18 9
-18 14 0 5 -8 9 -17 9 -25 0 -3 18 27 22 15 2 26 11 29 23 2 11 8 23 15 27 6
5 2 8 -11 8 -12 0 -23 -6 -25 -12 -3 -9 -9 -8 -22 5 -17 16 -16 17 21 17 46 0
75 -15 54 -29 -11 -7 -9 -13 9 -31 12 -12 16 -20 9 -18 -17 6 -39 -15 -39 -36
0 -9 9 -16 21 -16 11 0 18 4 15 9 -8 13 42 20 97 14 27 -3 47 -2 47 4 0 16
-45 53 -66 54 -15 1 -14 3 6 9 23 7 23 8 3 9 -31 1 -37 18 -10 25 34 9 37 8
37 -14 0 -11 7 -20 15 -20 8 0 15 -8 15 -18 0 -10 7 -28 16 -40 15 -21 14 -22
-18 -23 -27 0 -29 -2 -13 -8 11 -5 23 -7 27 -4 4 2 5 -3 2 -11 -3 -9 -9 -14
-13 -11 -4 2 -8 -2 -8 -10 0 -21 25 -19 30 2 4 15 6 15 12 -4 4 -13 15 -23 24
-23 9 0 24 -9 34 -20 13 -15 14 -20 3 -20 -15 0 -28 -24 -19 -34 4 -3 16 -6
27 -6 19 -1 19 -2 3 -11 -14 -8 -15 -14 -5 -32 18 -34 38 -52 39 -35 1 7 1 16
0 21 -2 11 9 8 24 -7 8 -7 11 -16 8 -20 -4 -3 10 -6 30 -6 32 0 37 -3 37 -22
0 -14 3 -18 8 -12 8 14 78 35 86 27 3 -3 12 0 20 6 8 7 19 10 24 7 5 -3 8 -78
7 -168 -2 -179 -5 -209 -20 -220 -6 -5 -5 -8 3 -8 7 0 10 -5 7 -10 -4 -6 -12
-7 -18 -3 -13 8 12 -28 28 -39 7 -5 6 -14 -3 -28 -12 -19 -10 -20 34 -20 l47
0 -7 68 c-3 37 -8 101 -11 142 -3 41 -7 95 -9 120 -3 28 0 47 7 52 9 5 8 8 -3
8 -13 0 -13 1 0 10 8 5 10 10 4 10 -6 0 -9 14 -8 33 19 185 20 209 11 277 -7
54 -20 322 -18 369 7 156 12 337 14 477 2 115 7 177 15 186 8 10 11 55 11 134
-1 65 -1 175 -1 244 0 239 -5 331 -21 357 -4 6 -3 14 2 18 7 4 7 15 0 33 -6
15 -13 37 -15 50 -8 42 -91 112 -129 110 -11 -1 -74 2 -140 6 -73 4 -167 2
-240 -5 -252 -26 -320 -4 -320 101 1 58 18 81 90 118 49 25 53 25 285 27 143
0 242 5 253 11 17 10 15 14 -18 54 -74 89 -94 162 -69 249 21 69 34 91 81 142
l44 45 -16 37 c-25 60 -20 94 18 117 17 11 36 20 42 20 5 0 34 -26 64 -57 30
-32 59 -56 65 -55 6 2 67 15 136 29 140 29 210 37 210 24 0 -12 33 -9 42 4 4
6 33 5 78 -3 113 -19 134 -17 164 21 38 46 39 48 61 89 10 21 21 35 24 33 2
-3 10 0 18 6 17 15 51 -20 84 -85 12 -26 25 -46 29 -46 10 0 39 -55 44 -84 3
-15 19 -53 37 -84 30 -53 32 -64 32 -147 -1 -103 -9 -186 -25 -263 -12 -57
-22 -69 -41 -54 -30 24 -126 42 -228 43 -119 0 -279 -24 -315 -48 -22 -14 -27
-14 -69 6 -53 25 -80 26 -128 6 -71 -30 -109 -15 -131 50 -20 57 -39 59 -34 4
7 -71 14 -86 53 -106 21 -12 36 -11 133 8 50 10 65 10 75 0 10 -10 8 -15 -8
-25 -10 -6 -30 -23 -44 -38 -14 -16 -31 -28 -39 -28 -7 0 -61 20 -119 45 -59
24 -109 42 -112 39 -14 -14 24 -43 110 -86 52 -26 101 -48 110 -48 10 0 21
-16 29 -40 14 -43 93 -130 117 -130 8 0 27 -9 42 -19 14 -11 53 -27 85 -36 51
-15 67 -16 113 -5 106 23 74 67 -48 67 -66 0 -87 5 -143 31 -112 52 -152 118
-106 172 11 13 20 26 20 30 0 3 15 11 34 18 18 7 45 23 60 35 47 41 143 58
311 56 117 -2 154 -6 168 -17 18 -16 50 -35 82 -51 33 -15 66 -60 81 -111 8
-26 21 -53 29 -60 12 -10 15 -41 14 -159 0 -80 3 -183 6 -229 3 -46 2 -88 -2
-95 -4 -6 -8 -56 -9 -111 -6 -215 -15 -505 -19 -596 -3 -91 -8 -334 -21 -1152
l-6 -367 111 1 c61 0 111 4 111 7 0 4 29 8 65 8 36 0 65 -3 65 -8 0 -5 15 -8
33 -8 l32 1 -30 8 c-30 8 -30 8 8 9 20 0 37 5 37 9 0 4 -16 6 -35 4 -20 -2
-50 2 -67 9 -24 10 -33 10 -36 1 -2 -8 -26 -11 -70 -10 -64 1 -65 1 -22 8 l45
7 -50 3 c-27 1 -42 4 -32 7 9 2 17 8 17 13 0 5 7 7 15 4 8 -4 15 -1 15 4 0 6
8 13 18 16 9 3 -2 4 -24 3 -32 -2 -40 1 -36 12 4 11 -1 13 -22 9 -14 -3 -29
-2 -31 2 -3 5 -13 7 -23 5 -9 -1 -11 0 -4 2 7 3 10 9 7 14 -9 13 9 11 23 -3 7
-7 12 -8 12 -3 0 16 -16 36 -26 34 -25 -4 -36 4 -14 11 24 8 24 8 3 9 -22 1
-34 31 -13 31 6 0 10 5 10 11 0 5 -4 8 -9 5 -4 -3 -8 8 -7 24 1 26 5 30 31 31
23 0 26 2 12 8 -10 4 -18 11 -17 16 1 5 -7 12 -17 16 -17 7 -16 8 2 8 17 1 17
3 5 11 -11 7 -11 10 -2 10 7 0 10 4 7 10 -4 6 13 11 42 11 47 2 47 2 13 9 -19
4 -29 8 -22 9 18 2 15 21 -4 21 -15 0 -44 23 -44 34 0 3 8 6 18 7 14 0 14 2 2
7 -30 14 -21 32 18 33 25 1 30 3 13 6 -34 7 -48 23 -43 51 3 17 1 23 -7 18 -6
-4 -9 -12 -6 -17 4 -5 1 -9 -4 -9 -6 0 -11 9 -11 20 0 11 4 20 10 20 5 0 8 16
6 35 -1 22 2 35 10 35 6 0 14 9 17 20 3 13 0 20 -8 20 -7 0 -12 8 -11 18 2 12
11 16 27 14 23 -2 23 -2 6 12 -18 14 -18 15 5 19 16 3 13 5 -12 6 -19 1 -30 5
-25 9 11 7 16 52 6 52 -11 0 -8 105 3 112 8 6 8 8 0 8 -16 0 -16 242 -1 252 8
5 8 8 1 8 -7 0 -11 34 -12 91 -1 50 -7 99 -12 110 -8 14 -7 25 4 41 11 18 14
71 14 262 0 168 4 241 12 246 7 4 9 17 4 33 -4 19 -2 27 7 27 9 1 7 6 -5 15
-19 15 -19 15 1 15 12 0 23 8 26 19 6 25 114 42 129 20 7 -10 8 -8 3 8 -6 21
-5 21 45 8 28 -7 57 -19 65 -25 8 -7 15 -7 19 -1 3 5 0 12 -6 14 -8 3 -6 6 5
6 37 2 4 21 -36 21 -23 0 -59 3 -79 6 -29 5 -34 9 -25 19 7 6 30 14 51 18 35
6 37 5 20 -8 -18 -13 -16 -14 18 -15 27 0 36 4 32 13 -3 8 2 14 10 14 8 0 12
-6 9 -12 -2 -8 5 -12 21 -12 14 0 23 3 21 7 -3 5 4 6 15 3 11 -3 27 0 36 8 12
10 15 10 12 -2 -2 -9 4 -13 15 -11 9 2 25 -2 35 -7 15 -9 15 -10 -5 -11 -12 0
-25 -5 -28 -10 -4 -6 -11 -8 -16 -5 -5 4 -9 0 -9 -7 0 -8 -5 -6 -11 5 -5 9
-21 17 -35 17 -21 0 -23 -2 -12 -13 24 -24 56 -37 90 -36 31 1 31 1 8 9 l-25
8 28 1 c18 1 27 -4 27 -14 0 -11 8 -13 33 -10 24 4 27 3 12 -3 -17 -8 -16 -10
13 -14 17 -2 32 -1 32 4 0 4 -4 8 -8 8 -5 0 -9 7 -9 15 0 8 9 15 19 15 10 0
18 -6 18 -12 0 -10 2 -10 8 -1 9 14 71 13 90 -2 8 -5 25 -21 38 -34 13 -13 24
-19 24 -12 0 6 7 11 15 11 8 0 15 -4 15 -10 0 -5 12 -10 28 -10 21 0 24 -2 12
-10 -12 -8 -11 -10 8 -10 12 0 22 4 22 8 0 4 14 9 31 10 17 1 28 -2 25 -7 -4
-5 8 -14 26 -20 37 -12 55 -11 50 4 -2 6 2 4 9 -2 7 -7 23 -13 36 -13 14 0 23
-6 23 -15 0 -8 8 -15 18 -15 14 0 15 2 2 10 -13 8 -12 11 5 24 27 20 31 20 49
-6 9 -12 16 -17 16 -11 0 19 38 3 55 -23 8 -13 12 -24 8 -24 -5 0 -1 -5 7 -10
13 -8 12 -10 -3 -10 -10 0 -15 -5 -12 -10 4 -6 16 -8 27 -4 15 4 18 3 13 -6
-6 -9 -4 -11 4 -6 7 5 10 14 7 22 -3 8 1 14 10 14 12 0 13 -4 4 -21 -7 -11
-10 -21 -8 -22 2 -1 13 -8 26 -15 l22 -12 0 544 c0 419 -3 546 -13 549 -9 4
-9 6 1 6 23 2 12 20 -15 24 l-28 4 28 2 c20 1 27 6 27 20 0 16 -8 21 -42 24
l-43 4 43 1 42 2 0 190 0 190 -42 0 c-32 0 -39 -3 -28 -10 8 -5 10 -10 4 -10
-6 0 -17 7 -25 16 -11 14 -13 14 -21 -1 -5 -8 -13 -13 -19 -10 -5 3 -6 -1 -3
-10 5 -13 1 -15 -22 -10 -22 5 -25 4 -14 -4 12 -9 10 -11 -10 -12 -22 0 -23
-1 -5 -8 19 -8 19 -8 -3 -20 -13 -7 -45 -12 -72 -13 -28 0 -48 -3 -46 -7 3 -4
-4 -12 -14 -18 -15 -10 -17 -9 -13 8 6 20 -11 27 -22 9 -3 -6 -20 -8 -36 -5
-23 4 -29 2 -23 -7 6 -10 5 -11 -8 -1 -8 7 -18 10 -22 6 -10 -10 -78 -33 -98
-33 -10 0 -17 -5 -15 -12 1 -7 -13 -15 -33 -18 l-35 -7 35 -5 35 -5 -40 -2
c-30 -1 -36 -4 -25 -11 13 -8 12 -10 -2 -10 -10 0 -18 -4 -18 -10 0 -5 -5 -10
-11 -10 -5 0 -8 4 -4 9 3 5 -5 11 -17 13 -28 4 -33 21 -12 42 18 18 15 26 -11
30 -9 1 -20 8 -24 15 -6 10 -19 10 -52 3 l-44 -10 47 -1 c37 -1 50 -6 59 -22
8 -16 8 -24 -2 -33 -9 -8 -10 -8 -5 2 5 9 -5 12 -41 11 -39 -1 -43 -3 -23 -9
19 -6 9 -9 -40 -10 -49 -1 -59 -4 -40 -10 l25 -8 -27 -1 c-16 -1 -28 4 -28 9
0 6 -21 9 -47 8 l-48 -1 45 -7 c42 -6 43 -6 15 -12 -21 -3 -14 -5 25 -7 32 0
61 4 68 11 9 9 12 9 12 0 0 -7 12 -12 26 -12 14 0 23 -4 19 -10 -3 -5 1 -10 9
-10 19 0 21 27 4 32 -7 3 4 5 24 6 43 2 59 -14 27 -26 -14 -6 -18 -11 -11 -16
6 -4 20 -2 30 3 26 14 36 2 14 -15 -16 -12 -15 -13 5 -14 12 0 24 6 26 13 4
10 6 10 6 0 1 -9 26 -14 84 -15 l82 -1 -60 -7 -60 -7 73 -1 c52 -2 71 -5 66
-14 -5 -7 -3 -8 6 -3 10 6 12 4 7 -9 -4 -10 -7 -19 -7 -20 0 -2 -22 -1 -50 2
-30 2 -50 0 -50 -6 0 -6 -8 -13 -17 -15 -10 -3 -1 -5 20 -6 20 0 37 4 37 9 0
6 7 10 15 10 8 0 15 -6 15 -12 0 -9 4 -8 10 2 9 13 10 13 10 0 0 -13 1 -13 10
0 9 13 10 13 10 0 1 -12 3 -11 11 2 7 12 6 24 -1 38 -10 19 -8 20 37 19 l48
-2 -40 -7 c-27 -5 0 -8 84 -9 68 0 122 -3 120 -5 -2 -2 -55 -6 -116 -7 -62 -2
-113 -7 -113 -11 0 -4 12 -14 28 -22 26 -15 25 -15 -48 -18 -41 -1 -88 -1
-105 -1 l-29 1 24 -19 c14 -10 34 -19 45 -20 11 -2 -7 -5 -40 -9 -55 -6 -52
-7 39 -8 55 -1 96 -5 92 -9 -4 -5 -22 -9 -39 -9 -18 -1 -52 -3 -77 -4 l-45 -3
35 -7 35 -7 -30 -3 -30 -3 35 -7 c31 -6 29 -7 -19 -7 -32 0 -56 -5 -61 -13 -5
-8 -27 -12 -58 -12 -28 1 -54 -3 -57 -8 -4 -6 10 -10 33 -10 26 0 42 -5 46
-15 4 -11 -2 -15 -27 -14 -27 0 -29 2 -12 9 16 7 11 9 -20 9 -29 1 -36 -2 -25
-9 11 -7 3 -10 -29 -10 -24 0 -41 3 -38 7 4 3 0 11 -9 18 -13 9 -8 11 25 9 23
-1 41 2 41 7 0 12 -150 5 -158 -8 -4 -6 -16 -13 -27 -16 -11 -2 10 -5 48 -6
37 0 67 -5 67 -11 0 -6 32 -11 73 -12 l72 -1 -65 -7 -65 -7 73 -1 c50 -1 72
-6 72 -14 0 -9 3 -9 8 -3 4 6 19 11 35 10 24 0 30 -8 29 -35 0 -3 6 -11 14
-18 9 -8 14 -9 14 -2 0 7 5 6 14 -2 11 -11 4 -14 -43 -18 -69 -6 -93 3 -31 11
44 7 43 7 -11 5 -41 0 -55 -4 -52 -13 7 -17 39 -25 80 -20 19 3 30 0 27 -5 -8
-13 -120 -4 -117 10 1 5 -5 9 -14 8 -9 -2 -18 -11 -19 -21 -1 -10 -9 -22 -16
-26 -7 -5 -11 -9 -8 -10 3 0 13 -2 23 -4 14 -3 17 1 12 18 -5 17 -4 19 4 7 10
-13 11 -13 11 0 0 13 1 13 10 0 8 -12 10 -12 10 -1 0 8 2 12 5 9 3 -3 2 -13
-1 -22 -5 -14 -9 -15 -15 -4 -7 10 -9 9 -9 -4 0 -13 -8 -16 -40 -13 -43 3 -45
2 -30 -24 8 -17 2 -19 -79 -30 -48 -6 -98 -12 -112 -12 -14 -1 -7 -4 16 -8 23
-3 43 -2 47 4 5 6 12 5 20 -3 14 -14 16 -14 -82 -17 -36 -1 -56 1 -45 4 11 3
21 14 23 24 2 14 -4 17 -40 16 -30 -2 -35 -3 -15 -6 39 -6 33 -21 -8 -21 -19
0 -35 4 -35 9 0 5 -6 9 -13 9 -7 0 -19 6 -26 13 -10 10 -3 14 31 24 l43 11
-67 1 c-38 1 -68 5 -68 11 0 6 -8 10 -17 10 -15 0 -14 2 3 15 17 13 12 14 -56
15 -41 1 -69 4 -62 7 6 2 12 11 12 19 0 8 5 14 11 14 6 0 9 -7 5 -15 -3 -9 0
-15 9 -15 8 0 12 6 9 14 -4 11 4 16 28 18 24 3 18 5 -24 8 -54 5 -57 4 -52
-15 4 -17 4 -18 -6 -3 -5 9 -7 23 -4 32 5 13 25 16 103 18 78 1 84 3 31 5 -35
2 -68 9 -73 16 -7 9 -10 9 -14 0 -2 -7 -12 -13 -22 -13 -9 0 -22 -5 -28 -11
-8 -8 -13 -8 -17 0 -4 6 -4 11 1 11 4 0 1 5 -7 10 -11 7 -5 8 20 4 26 -4 31
-3 20 5 -12 8 -8 11 19 11 44 0 34 11 -10 12 -19 1 -28 3 -21 5 18 7 15 23 -5
24 -12 1 -10 4 7 9 21 7 18 8 -20 10 -43 2 -44 3 -17 13 15 6 27 13 27 16 -1
13 -73 51 -83 44 -7 -4 -7 0 1 9 7 9 17 29 21 45 4 15 14 28 22 28 17 0 43 23
45 41 1 8 -4 14 -11 14 -13 0 -29 29 -20 38 2 3 7 -3 11 -12 9 -23 23 -20 17
4 -3 11 -13 20 -22 21 -14 0 -14 1 -1 7 17 8 22 73 6 84 -7 5 -7 8 2 8 6 0 12
4 12 10 0 5 -6 7 -13 5 -8 -4 -12 10 -13 48 -2 53 -19 99 -55 146 -11 13 -19
37 -19 52 0 16 -5 29 -12 29 -6 0 -9 3 -5 6 3 4 -2 14 -13 23 -10 9 -20 25
-22 36 -2 11 -5 22 -8 25 -32 31 -58 74 -54 88 5 15 4 15 -6 2 -9 -11 -13 -12
-17 -2 -2 7 -11 19 -19 26 -8 8 -14 22 -14 31 0 9 -6 15 -12 14 -31 -4 -48 2
-48 16 0 8 -5 15 -11 15 -6 0 -8 -7 -5 -15z m-44 -69 c0 -2 -7 -7 -16 -10 -8
-3 -12 -2 -9 4 6 10 25 14 25 6z m-237 -33 c-13 -2 -35 -2 -50 0 -16 2 -5 4
22 4 28 0 40 -2 28 -4z m-123 -28 c0 -1 -15 -2 -32 -2 -26 -1 -29 1 -13 7 17
6 45 3 45 -5z m210 -1 c0 -2 -21 -4 -47 -4 -27 0 -43 4 -36 8 12 8 83 4 83 -4z
m70 2 c0 -8 6 -17 13 -19 9 -4 9 -6 0 -6 -7 -1 -17 8 -23 19 -7 14 -7 20 0 20
5 0 10 -6 10 -14z m-46 -12 c3 -8 2 -12 -4 -9 -6 3 -10 10 -10 16 0 14 7 11
14 -7z m-247 -10 c-3 -3 -12 -4 -19 -1 -8 3 -5 6 6 6 11 1 17 -2 13 -5z m190
-1 c-20 -2 -52 -2 -70 0 -17 2 0 4 38 4 39 0 53 -2 32 -4z m-90 -19 c-3 -3
-12 -4 -19 -1 -8 3 -5 6 6 6 11 1 17 -2 13 -5z m146 -1 c-13 -2 -33 -2 -45 0
-13 2 -3 4 22 4 25 0 35 -2 23 -4z m-896 -349 c-3 -3 -12 -4 -19 -1 -8 3 -5 6
6 6 11 1 17 -2 13 -5z m2256 -61 c-7 -2 -21 -2 -30 0 -10 3 -4 5 12 5 17 0 24
-2 18 -5z m-96 -19 c-3 -3 -12 -4 -19 -1 -8 3 -5 6 6 6 11 1 17 -2 13 -5z
m-20 -20 c-3 -3 -12 -4 -19 -1 -8 3 -5 6 6 6 11 1 17 -2 13 -5z m216 -1 c-7
-2 -19 -2 -25 0 -7 3 -2 5 12 5 14 0 19 -2 13 -5z m-236 -19 c-3 -3 -12 -4
-19 -1 -8 3 -5 6 6 6 11 1 17 -2 13 -5z m90 0 c-3 -3 -12 -4 -19 -1 -8 3 -5 6
6 6 11 1 17 -2 13 -5z m96 -1 c-7 -2 -19 -2 -25 0 -7 3 -2 5 12 5 14 0 19 -2
13 -5z m-3 -23 c0 -5 -9 -10 -21 -10 -11 0 -17 5 -14 10 3 6 13 10 21 10 8 0
14 -4 14 -10z m253 -7 c-7 -2 -19 -2 -25 0 -7 3 -2 5 12 5 14 0 19 -2 13 -5z
m-2856 -9 c-3 -3 -12 -4 -19 -1 -8 3 -5 6 6 6 11 1 17 -2 13 -5z m193 -1 c-14
-3 -29 -8 -34 -13 -10 -10 -36 -2 -36 11 0 5 21 8 48 8 27 -1 36 -4 22 -6z
m2683 -10 c-13 -2 -33 -2 -45 0 -13 2 -3 4 22 4 25 0 35 -2 23 -4z m-2852 -31
c-6 -11 -6 -24 2 -37 9 -17 8 -18 -4 -9 -8 6 -20 13 -27 15 -9 3 -9 9 3 27 19
27 40 30 26 4z m2899 14 c0 -2 -13 -6 -30 -8 -16 -3 -30 -1 -30 4 0 4 14 8 30
8 17 0 30 -2 30 -4z m-1220 -16 c0 -5 -2 -10 -4 -10 -3 0 -8 5 -11 10 -3 6 -1
10 4 10 6 0 11 -4 11 -10z m-1607 -7 c-7 -2 -19 -2 -25 0 -7 3 -2 5 12 5 14 0
19 -2 13 -5z m200 0 c-7 -2 -19 -2 -25 0 -7 3 -2 5 12 5 14 0 19 -2 13 -5z
m-416 -19 c-3 -3 -12 -4 -19 -1 -8 3 -5 6 6 6 11 1 17 -2 13 -5z m2966 -1 c-7
-2 -19 -2 -25 0 -7 3 -2 5 12 5 14 0 19 -2 13 -5z m64 1 c-3 -3 -12 -4 -19 -1
-8 3 -5 6 6 6 11 1 17 -2 13 -5z m-2987 -18 c0 -2 -7 -6 -15 -10 -8 -3 -15 -1
-15 4 0 6 7 10 15 10 8 0 15 -2 15 -4z m2620 -16 c0 -5 -2 -10 -4 -10 -3 0 -8
5 -11 10 -3 6 -1 10 4 10 6 0 11 -4 11 -10z m110 -1 c-25 -4 -58 -7 -75 -7
-25 1 -24 2 10 8 22 4 56 7 75 7 31 0 30 0 -10 -8z m-3236 -22 c17 -17 16 -47
-2 -47 -12 0 -12 2 -1 17 12 15 12 16 -3 10 -10 -3 -28 -2 -40 4 -21 9 -21 9
4 4 22 -4 26 -2 22 10 -7 18 3 20 20 2z m3369 6 c-7 -2 -19 -2 -25 0 -7 3 -2
5 12 5 14 0 19 -2 13 -5z m-3283 -39 c0 -8 -4 -14 -10 -14 -5 0 -7 7 -4 15 4
8 1 15 -5 15 -6 0 -11 5 -11 11 0 8 5 8 15 -1 8 -7 15 -19 15 -26z m3157 10
c-3 -3 -12 -4 -19 -1 -8 3 -5 6 6 6 11 1 17 -2 13 -5z m191 -1 c-21 -2 -57 -2
-80 0 -24 2 -7 4 37 4 44 0 63 -2 43 -4z m-3578 -7 c0 -3 -4 -8 -10 -11 -5 -3
-10 -1 -10 4 0 6 5 11 10 11 6 0 10 -2 10 -4z m2380 -16 c0 -5 -5 -10 -11 -10
-5 0 -7 5 -4 10 3 6 8 10 11 10 2 0 4 -4 4 -10z m934 2 c3 -5 -1 -9 -9 -9 -8
0 -12 4 -9 9 3 4 7 8 9 8 2 0 6 -4 9 -8z m66 -8 c0 -2 -12 -4 -26 -4 -14 0
-23 4 -20 9 6 8 46 4 46 -5z m163 1 c-3 -9 -8 -14 -10 -11 -3 3 -2 9 2 15 9
16 15 13 8 -4z m-3349 -20 c-4 -8 -13 -15 -21 -15 -13 0 -13 3 -3 15 7 8 16
15 21 15 5 0 6 -7 3 -15z m39 -4 c5 -22 0 -31 -20 -31 -10 0 -11 5 -4 19 6 10
7 21 4 25 -3 3 -2 6 4 6 6 0 13 -9 16 -19z m3190 2 c-7 -2 -19 -2 -25 0 -7 3
-2 5 12 5 14 0 19 -2 13 -5z m161 -14 c-3 -5 -10 -7 -15 -4 -5 4 -9 0 -9 -7 0
-10 -3 -9 -11 2 -9 13 -10 13 -6 0 2 -8 10 -14 16 -12 6 1 11 -2 11 -8 0 -5 5
-10 11 -10 5 0 7 5 4 10 -3 6 4 10 17 10 18 0 20 -2 8 -10 -11 -7 -7 -10 20
-11 l35 -1 -30 -8 c-64 -16 -80 -12 -98 24 -15 33 -15 35 3 31 11 -2 20 0 20
5 0 5 7 7 15 4 8 -4 12 -10 9 -15z m127 14 c-11 -5 -11 -7 0 -14 10 -6 8 -9
-9 -9 -13 0 -20 4 -17 10 3 6 1 10 -4 10 -6 0 -11 -4 -11 -10 0 -5 -8 -10 -17
-10 -16 1 -16 2 1 15 11 8 31 15 45 14 14 0 20 -3 12 -6z m-504 -19 c-3 -3
-12 -4 -19 -1 -8 3 -5 6 6 6 11 1 17 -2 13 -5z m293 -14 c0 -5 -12 -10 -27 -9
-25 0 -26 1 -8 9 27 12 35 12 35 0z m-3360 -4 c0 -11 -19 -15 -25 -6 -3 5 1
10 9 10 9 0 16 -2 16 -4z m37 -2 c-3 -3 -12 -4 -19 -1 -8 3 -5 6 6 6 11 1 17
-2 13 -5z m2747 -6 c-3 -4 -15 -8 -27 -8 -15 0 -18 3 -9 8 17 11 43 11 36 0z
m272 -6 c1 -7 0 -9 -2 -4 -3 5 -20 8 -39 6 -21 -1 -33 2 -29 7 8 14 67 7 70
-9z m71 -7 c1 -14 0 -15 -3 -3 -3 9 -15 19 -27 22 -18 4 -18 4 3 3 17 -1 25
-8 27 -22z m-847 -5 c0 -11 -3 -20 -8 -20 -4 0 -13 9 -20 20 -11 18 -10 20 8
20 13 0 20 -7 20 -20z m1015 0 c-3 -5 -32 -9 -63 -8 l-57 1 60 7 c33 4 61 7
63 8 2 1 0 -2 -3 -8z m75 1 c0 -5 -8 -12 -17 -14 -14 -4 -12 -5 5 -6 14 -1 22
5 22 16 0 15 1 15 18 0 10 -10 41 -17 77 -20 33 -2 -7 -3 -90 -4 -92 0 -133 3
-105 7 25 4 41 8 35 9 -5 2 1 7 15 11 35 11 40 11 40 1z m-340 -11 c-10 -7 16
-10 84 -10 106 0 127 -7 36 -11 -74 -3 -202 3 -167 8 15 2 27 9 27 14 0 5 8 9
18 9 14 0 15 -2 2 -10z m-3050 -10 c12 -8 9 -10 -13 -10 -16 0 -26 4 -22 10 8
12 16 12 35 0z m-12 -27 c-10 -2 -28 -2 -40 0 -13 2 -5 4 17 4 22 1 32 -1 23
-4z m59 1 c-3 -3 -12 -4 -19 -1 -8 3 -5 6 6 6 11 1 17 -2 13 -5z m3210 0 c-3
-3 -12 -4 -19 -1 -8 3 -5 6 6 6 11 1 17 -2 13 -5z m40 0 c-3 -3 -12 -4 -19 -1
-8 3 -5 6 6 6 11 1 17 -2 13 -5z m66 -1 c-7 -2 -21 -2 -30 0 -10 3 -4 5 12 5
17 0 24 -2 18 -5z m214 1 c-3 -3 -12 -4 -19 -1 -8 3 -5 6 6 6 11 1 17 -2 13
-5z m-473 -16 c-5 -7 -2 -9 9 -5 12 4 15 1 11 -11 -3 -9 2 -6 10 8 l15 25 1
-24 c0 -23 1 -24 13 -6 10 12 16 14 21 7 12 -20 -1 -29 -36 -27 -45 4 -62 8
-70 20 -13 17 -9 25 13 25 13 0 18 -4 13 -12z m-3361 -5 c-7 -2 -19 -2 -25 0
-7 3 -2 5 12 5 14 0 19 -2 13 -5z m240 0 c-7 -2 -19 -2 -25 0 -7 3 -2 5 12 5
14 0 19 -2 13 -5z m3257 -7 c0 -2 -9 -6 -20 -9 -11 -3 -20 -1 -20 4 0 5 9 9
20 9 11 0 20 -2 20 -4z m-90 -40 c0 -2 -7 -9 -15 -16 -13 -11 -14 -10 -9 4 5
14 24 23 24 12z m70 -22 c0 -8 -19 -13 -24 -6 -3 5 1 9 9 9 8 0 15 -2 15 -3z
m-812 -31 c-16 -2 -40 -2 -55 0 -16 2 -3 4 27 4 30 0 43 -2 28 -4z m625 0 c-7
-2 -21 -2 -30 0 -10 3 -4 5 12 5 17 0 24 -2 18 -5z m64 1 c-3 -3 -12 -4 -19
-1 -8 3 -5 6 6 6 11 1 17 -2 13 -5z m-667 -24 c0 -6 -23 -9 -52 -9 -49 2 -51
2 -18 9 53 11 70 11 70 0z m660 4 c-34 -7 -108 -8 -103 -1 2 4 30 6 61 6 31
-1 50 -3 42 -5z m383 -21 c-7 -2 -21 -2 -30 0 -10 3 -4 5 12 5 17 0 24 -2 18
-5z m-1023 -12 c0 -5 -21 -6 -47 -4 -71 7 -75 11 -10 12 31 1 57 -3 57 -8z
m-2483 -7 c-3 -3 -12 -4 -19 -1 -8 3 -5 6 6 6 11 1 17 -2 13 -5z m71 -1 c-10
-2 -28 -2 -40 0 -13 2 -5 4 17 4 22 1 32 -1 23 -4z m2985 0 c-7 -2 -19 -2 -25
0 -7 3 -2 5 12 5 14 0 19 -2 13 -5z m420 0 c-7 -2 -21 -2 -30 0 -10 3 -4 5 12
5 17 0 24 -2 18 -5z m-1026 -9 c-3 -3 -12 -4 -19 -1 -8 3 -5 6 6 6 11 1 17 -2
13 -5z m568 -9 c-23 -8 -83 -10 -79 -3 3 4 24 8 47 7 23 0 38 -2 32 -4z m595
-5 c0 -5 -4 -10 -10 -10 -5 0 -10 5 -10 10 0 6 5 10 10 10 6 0 10 -4 10 -10z
m-725 -10 c-28 -7 -27 -8 15 -10 l45 -3 -45 -6 c-25 -4 -49 -5 -53 -3 -16 8
16 32 42 31 25 -1 25 -2 -4 -9z m-2568 -16 c-3 -3 -12 -4 -19 -1 -8 3 -5 6 6
6 11 1 17 -2 13 -5z m2268 -4 c-3 -5 -13 -10 -21 -10 -8 0 -14 5 -14 10 0 6 9
10 21 10 11 0 17 -4 14 -10z m428 3 c-7 -2 -19 -2 -25 0 -7 3 -2 5 12 5 14 0
19 -2 13 -5z m-545 -10 c-10 -2 -26 -2 -35 0 -10 3 -2 5 17 5 19 0 27 -2 18
-5z m-2251 -9 c-3 -3 -12 -4 -19 -1 -8 3 -5 6 6 6 11 1 17 -2 13 -5z m50 0
c-3 -3 -12 -4 -19 -1 -8 3 -5 6 6 6 11 1 17 -2 13 -5z m968 -22 c-3 -3 -11 0
-18 7 -9 10 -8 11 6 5 10 -3 15 -9 12 -12z m1192 12 c-3 -3 -12 -4 -19 -1 -8
3 -5 6 6 6 11 1 17 -2 13 -5z m96 -1 c-13 -2 -33 -2 -45 0 -13 2 -3 4 22 4 25
0 35 -2 23 -4z m105 0 c-10 -2 -28 -2 -40 0 -13 2 -5 4 17 4 22 1 32 -1 23 -4z
m267 -4 c-20 -7 -20 -8 0 -8 25 -1 8 -16 -27 -25 -28 -6 -40 8 -15 17 6 3 2 6
-10 6 -12 1 -25 -4 -28 -9 -9 -14 -37 -9 -53 10 -12 13 -13 13 -8 -3 3 -10 6
-24 6 -30 0 -9 47 -12 172 -11 95 0 155 -2 133 -6 -22 -4 -35 -8 -30 -9 6 -1
3 -6 -5 -11 -8 -5 -37 -9 -65 -8 -36 1 -41 2 -17 5 17 2 32 8 32 13 0 7 -46 6
-78 -2 -4 -1 -31 2 -60 6 -36 6 -58 4 -65 -3 -8 -8 6 -11 54 -12 42 0 57 -3
44 -8 -12 -5 21 -9 85 -10 57 -1 106 -4 109 -6 2 -3 -32 -5 -77 -5 -45 0 -82
-4 -82 -9 0 -5 9 -7 20 -4 11 3 20 1 20 -4 0 -6 -19 -10 -42 -10 -24 0 -74 -1
-113 -3 -55 -2 -64 -4 -40 -10 24 -6 17 -8 -30 -8 -44 0 -53 2 -35 8 16 5 -14
9 -90 11 l-115 3 115 6 c63 3 100 7 83 8 -40 2 -43 19 -5 25 15 2 -31 6 -103
7 l-130 4 110 6 c79 4 95 7 55 9 -30 2 -44 6 -30 8 40 6 80 25 75 33 -3 5 5
12 17 16 l23 8 -25 7 c-14 4 36 7 110 7 74 -1 126 -5 115 -9z m88 -6 c-3 -7
-6 -13 -8 -13 -2 0 -5 6 -8 13 -3 8 1 14 8 14 7 0 11 -6 8 -14z m-3246 -9 c-3
-3 -12 -4 -19 -1 -8 3 -5 6 6 6 11 1 17 -2 13 -5z m2721 -1 c-10 -2 -26 -2
-35 0 -10 3 -2 5 17 5 19 0 27 -2 18 -5z m579 1 c-3 -3 -12 -4 -19 -1 -8 3 -5
6 6 6 11 1 17 -2 13 -5z m40 0 c-3 -3 -12 -4 -19 -1 -8 3 -5 6 6 6 11 1 17 -2
13 -5z m296 -1 c-7 -2 -21 -2 -30 0 -10 3 -4 5 12 5 17 0 24 -2 18 -5z m-3640
-20 c-7 -2 -19 -2 -25 0 -7 3 -2 5 12 5 14 0 19 -2 13 -5z m774 1 c-3 -3 -12
-4 -19 -1 -8 3 -5 6 6 6 11 1 17 -2 13 -5z m663 -4 c0 -5 -9 -10 -20 -10 -11
0 -20 5 -20 10 0 6 9 10 20 10 11 0 20 -4 20 -10z m-183 -6 c-3 -3 -12 -4 -19
-1 -8 3 -5 6 6 6 11 1 17 -2 13 -5z m1503 -4 c0 -6 -19 -7 -47 -3 -65 8 -67
13 -5 13 29 0 52 -4 52 -10z m-2717 -7 c-7 -2 -19 -2 -25 0 -7 3 -2 5 12 5 14
0 19 -2 13 -5z m90 0 c-7 -2 -19 -2 -25 0 -7 3 -2 5 12 5 14 0 19 -2 13 -5z
m842 -3 c-4 -6 11 -11 37 -12 38 -1 39 -2 10 -5 -40 -5 -66 3 -57 17 3 5 8 10
11 10 3 0 2 -4 -1 -10z m-25 -6 c0 -8 -19 -13 -24 -6 -3 5 1 9 9 9 8 0 15 -2
15 -3z m177 -10 c-3 -3 -12 -4 -19 -1 -8 3 -5 6 6 6 11 1 17 -2 13 -5z m40 0
c-3 -3 -12 -4 -19 -1 -8 3 -5 6 6 6 11 1 17 -2 13 -5z m70 0 c-3 -3 -12 -4
-19 -1 -8 3 -5 6 6 6 11 1 17 -2 13 -5z m181 -1 c-21 -2 -57 -2 -80 0 -24 2
-7 4 37 4 44 0 63 -2 43 -4z m79 1 c-3 -3 -12 -4 -19 -1 -8 3 -5 6 6 6 11 1
17 -2 13 -5z m-1240 -19 c0 -8 -4 -15 -9 -15 -10 0 -11 14 -1 23 9 10 10 9 10
-8z m2436 8 c-7 -2 -19 -2 -25 0 -7 3 -2 5 12 5 14 0 19 -2 13 -5z m670 0 c-7
-2 -19 -2 -25 0 -7 3 -2 5 12 5 14 0 19 -2 13 -5z m-2417 -23 c0 -10 -9 -16
-21 -16 -12 0 -21 6 -21 16 0 10 9 16 21 16 12 0 21 -6 21 -16z m163 10 c-15
-4 -53 -4 -85 0 -58 7 -58 7 26 8 57 0 76 -2 59 -8z m331 0 c-31 -4 -76 -4
-100 0 -34 6 -20 7 55 7 85 0 92 -1 45 -7z m-1453 -6 c-3 -3 -12 -4 -19 -1 -8
3 -5 6 6 6 11 1 17 -2 13 -5z m71 -1 c-10 -2 -26 -2 -35 0 -10 3 -2 5 17 5 19
0 27 -2 18 -5z m260 0 c-10 -2 -26 -2 -35 0 -10 3 -2 5 17 5 19 0 27 -2 18 -5z
m842 -8 c0 -8 -7 -15 -16 -15 -14 0 -14 3 -4 15 7 8 14 15 16 15 2 0 4 -7 4
-15z m1556 0 c-3 -8 -1 -15 4 -15 6 0 10 5 10 10 0 6 4 10 8 10 5 0 9 -7 9
-15 0 -12 -13 -15 -56 -14 -31 1 -44 4 -28 6 15 2 27 11 27 19 0 8 7 14 16 14
10 0 14 -6 10 -15z m179 5 c4 -6 -7 -10 -27 -10 -25 0 -29 3 -18 10 19 13 37
13 45 0z m498 3 c-7 -2 -21 -2 -30 0 -10 3 -4 5 12 5 17 0 24 -2 18 -5z
m-2355 -10 c-10 -2 -26 -2 -35 0 -10 3 -2 5 17 5 19 0 27 -2 18 -5z m452 -4
c0 -6 -8 -8 -19 -4 -22 7 -34 -15 -19 -36 8 -11 9 -10 4 4 -4 14 0 17 27 16
23 -1 26 -3 10 -6 -13 -2 -23 -9 -23 -14 0 -6 4 -8 9 -5 5 4 17 3 27 -1 16 -6
16 -7 -2 -14 -17 -7 -17 -8 -1 -8 18 -1 25 -31 6 -31 -5 0 -8 -4 -5 -9 3 -5
-10 -11 -30 -13 -19 -2 -37 0 -40 4 -3 4 3 8 12 8 10 0 14 3 11 6 -4 4 -44 7
-89 7 -69 -1 -75 1 -38 7 l45 7 -42 1 c-23 1 -45 -2 -48 -8 -3 -5 -21 -10 -38
-10 -24 0 -28 3 -17 10 11 7 6 10 -22 10 -20 0 -40 -4 -43 -10 -3 -5 -11 -10
-16 -10 -6 0 -7 5 -4 10 3 6 1 10 -4 10 -6 0 -11 -4 -11 -10 0 -5 -9 -10 -21
-10 -11 0 -17 5 -14 10 8 14 -108 13 -122 -1 -7 -7 -12 -6 -16 5 -4 9 -1 16 6
16 7 1 113 0 237 0 123 0 222 1 219 4 -2 3 -24 6 -47 7 -46 3 -69 18 -30 20
23 1 23 1 -2 9 -22 7 -21 8 13 9 21 1 36 5 32 10 -5 9 11 12 88 19 9 1 17 -3
17 -9z m-1407 -6 c-7 -2 -19 -2 -25 0 -7 3 -2 5 12 5 14 0 19 -2 13 -5z m76
-30 c2 -2 -7 -3 -20 -3 -18 0 -25 5 -25 20 0 18 1 18 21 2 11 -9 22 -18 24
-19z m182 11 c44 1 83 -2 85 -6 3 -4 -4 -8 -16 -8 -12 0 -19 -4 -15 -9 3 -5
-7 -12 -22 -14 -23 -3 -21 -4 10 -6 20 0 37 4 37 9 0 6 15 10 33 9 30 -1 31
-1 7 -9 -19 -6 -11 -8 33 -9 36 -1 56 3 52 9 -4 6 16 10 52 11 42 0 52 3 38 9
-15 6 -9 9 25 8 37 0 41 -1 20 -8 -17 -5 -19 -8 -7 -9 9 -1 17 -5 17 -11 0 -5
12 -10 28 -9 24 0 25 1 7 9 -11 5 -15 9 -8 9 6 1 10 10 8 21 -2 11 -1 20 3 21
64 8 132 6 131 -4 -3 -27 2 -36 24 -40 12 -2 0 -5 -27 -6 -44 -1 -47 0 -35 16
12 15 12 16 -4 10 -10 -4 -23 -7 -28 -7 -6 0 -8 -4 -4 -9 3 -5 -3 -12 -12 -14
-10 -3 25 -6 77 -8 52 -1 76 -4 53 -6 -24 -2 -43 -8 -43 -12 0 -5 -11 -11 -25
-13 -17 -4 -25 -1 -25 8 0 8 -9 14 -21 14 -11 0 -17 -4 -14 -10 3 -5 1 -10 -6
-10 -7 0 -9 -3 -5 -7 4 -4 48 -6 98 -5 50 1 96 -2 102 -7 6 -4 41 -11 78 -14
50 -3 70 -1 79 9 6 8 26 14 43 13 30 -1 30 -1 6 -9 -22 -6 -23 -8 -7 -15 9 -4
24 -5 32 -1 9 3 15 0 15 -9 0 -8 6 -15 14 -15 8 0 16 -7 20 -15 4 -11 21 -15
68 -14 47 1 55 3 33 8 -28 7 -27 8 18 15 27 4 51 5 55 2 3 -3 -6 -6 -19 -7
l-24 0 25 -12 c24 -11 24 -11 -13 -15 -30 -3 -35 -6 -24 -16 7 -7 19 -15 27
-19 8 -3 -30 -6 -85 -7 -69 -2 -91 -5 -70 -10 30 -8 30 -8 -7 -9 -24 -1 -38 4
-38 12 0 7 -4 5 -10 -4 -7 -12 -21 -16 -55 -14 -25 2 -45 -1 -45 -6 0 -5 10
-9 23 -10 21 -1 21 -1 -3 -8 -14 -4 -40 -6 -57 -5 -18 1 -49 2 -69 3 -25 1
-33 5 -28 14 6 9 5 9 -8 0 -8 -7 -17 -10 -20 -7 -3 3 -9 1 -13 -5 -3 -6 -3
-11 2 -12 4 0 30 -3 58 -5 51 -5 70 -13 48 -21 -27 -9 -12 -23 25 -23 l37 1
-25 14 c-25 14 -25 15 9 8 23 -4 36 -2 43 8 7 10 11 11 14 2 3 -7 11 -10 17
-7 7 2 26 0 42 -5 17 -5 23 -10 15 -11 -26 -3 22 -19 58 -19 50 -1 38 -21 -14
-21 -27 0 -43 -4 -39 -10 4 -6 -20 -10 -65 -10 -39 0 -69 -3 -67 -7 3 -5 -1
-14 -9 -21 -8 -7 -14 -8 -14 -2 0 5 -7 10 -15 10 -9 0 -12 -6 -9 -17 4 -11 3
-14 -3 -7 -4 6 -17 16 -28 22 -17 10 -14 12 25 13 38 2 41 3 15 8 -22 4 -12 7
40 11 51 5 25 7 -92 8 -150 2 -163 1 -162 -15 0 -11 3 -13 6 -5 3 8 30 12 86
12 50 0 77 -4 68 -9 -10 -7 -11 -13 -2 -30 8 -14 8 -21 1 -21 -5 0 -10 -5 -10
-11 0 -5 4 -8 9 -4 6 3 9 -3 8 -13 -2 -25 -39 -42 -55 -25 -10 10 -8 13 13 13
14 0 25 5 25 11 0 13 -73 2 -78 -12 -5 -14 -90 -11 -94 3 -3 7 -7 6 -11 -5 -4
-12 -1 -17 11 -18 9 -1 4 -5 -13 -9 -28 -7 -27 -8 13 -9 47 -1 82 -15 82 -33
0 -7 -4 -7 -12 -1 -7 6 -26 13 -43 17 l-30 8 24 -21 c13 -12 38 -21 55 -21 17
0 26 -4 20 -8 -17 -11 -13 -42 5 -43 12 0 11 -3 -4 -9 -16 -7 -13 -9 18 -9 20
-1 37 4 37 9 0 6 5 10 10 10 6 0 10 -6 10 -12 0 -10 31 -13 124 -13 68 0 119
-3 112 -7 -7 -5 -5 -8 6 -8 9 0 19 4 22 9 9 14 55 0 55 -18 1 -53 5 -69 15
-67 6 2 8 1 4 -1 -5 -3 -8 -11 -8 -18 0 -8 -7 -21 -16 -29 -14 -15 -13 -16 15
-16 17 0 31 -4 31 -10 0 -5 12 -11 28 -11 l27 -2 -28 -4 -27 -4 17 -30 c10
-16 23 -29 31 -29 7 0 11 -4 8 -9 -4 -5 -1 -11 6 -13 12 -4 -165 -25 -227 -27
-16 -1 -32 -6 -34 -12 -2 -7 -6 -7 -12 2 -10 17 -20 8 -22 -20 -1 -20 -27 -31
-27 -11 0 6 -12 10 -26 10 -14 0 -23 4 -19 10 3 6 1 10 -4 10 -6 0 -11 -7 -11
-16 0 -10 -6 -14 -15 -10 -10 4 -14 -1 -12 -17 1 -15 -3 -21 -13 -18 -53 13
-55 13 -40 2 8 -6 11 -11 5 -11 -5 0 -3 -5 5 -10 10 -7 -5 -10 -53 -10 -49 0
-66 3 -61 12 4 7 3 8 -4 4 -6 -4 -9 -13 -5 -21 6 -18 -8 -20 -24 -4 -15 15
-34 3 -26 -16 4 -11 -2 -15 -21 -15 -14 0 -26 5 -26 10 0 6 7 10 16 10 8 0 12
5 9 10 -4 7 -13 6 -26 -1 -21 -11 -60 -3 -71 15 -5 8 -13 8 -28 -1 -23 -15
-33 -17 -26 -4 11 17 -43 30 -108 24 -45 -3 -72 -1 -81 7 -15 12 -16 11 -19
-12 -1 -8 -18 -12 -48 -12 -27 1 -48 -3 -48 -7 0 -19 -39 -8 -45 12 -5 15 -10
18 -18 10 -6 -6 -30 -11 -54 -11 -33 0 -41 -3 -37 -14 3 -8 15 -17 27 -19 12
-2 2 -5 -23 -6 -35 -2 -41 -4 -25 -11 17 -7 14 -9 -15 -11 l-35 -2 40 -7 c38
-7 38 -7 8 -9 -23 -1 -31 -5 -27 -15 4 -10 -9 -13 -60 -11 -62 1 -109 15 -53
15 14 0 29 5 32 10 3 6 18 11 33 11 24 1 23 3 -8 9 l-35 7 30 2 c26 2 27 4 10
11 -15 6 -8 9 30 10 28 1 42 4 32 7 -9 2 -15 9 -12 14 4 5 -9 9 -27 9 -18 0
-43 3 -55 6 -19 5 -21 10 -12 25 7 14 6 19 -3 19 -9 0 -9 3 2 10 12 8 12 10
-3 16 -21 8 -23 34 -2 34 18 0 19 12 3 28 -9 9 -9 12 0 12 7 0 12 5 12 10 0
13 77 90 91 90 5 0 7 5 4 10 -3 6 3 10 15 10 12 0 18 -4 15 -10 -3 -5 -1 -10
5 -10 6 0 9 -4 6 -8 -6 -10 64 -46 72 -37 3 3 0 5 -8 5 -9 0 -10 3 -1 14 6 7
9 20 6 28 -3 8 1 21 10 28 22 18 19 28 -12 33 -21 3 -18 4 12 6 25 0 55 11 77
26 52 35 88 48 102 36 19 -16 68 -32 61 -21 -3 6 -1 10 6 10 7 0 10 3 6 6 -7
8 19 35 30 32 4 -1 24 4 43 11 19 8 39 13 43 12 4 -1 17 8 29 19 l22 20 -25 0
c-18 0 -20 3 -10 9 8 5 20 7 27 4 6 -2 15 0 19 6 3 7 -3 12 -17 12 -13 1 -6 5
17 9 27 5 32 8 15 9 -20 1 -22 3 -10 11 12 8 11 10 -7 10 -13 0 -23 -4 -23
-10 0 -5 -7 -10 -16 -10 -8 0 -12 5 -9 10 3 6 -3 10 -15 10 -18 0 -19 3 -10
20 6 11 8 25 5 30 -4 6 10 10 34 10 22 0 43 5 46 10 3 6 18 11 33 11 24 2 24
2 5 6 -24 5 -32 23 -10 23 27 0 56 -13 51 -22 -7 -11 47 1 60 13 6 6 6 13 -2
21 -18 18 -15 26 11 31 12 2 3 5 -20 6 -24 0 -43 -4 -43 -9 0 -6 5 -9 11 -8 6
2 13 -7 14 -20 1 -13 -3 -21 -9 -19 -6 3 -10 10 -8 16 1 7 -2 10 -6 7 -5 -3
-32 -6 -61 -7 -35 -2 -51 -6 -51 -16 0 -7 -7 -13 -15 -13 -9 0 -12 6 -9 15 4
8 1 15 -5 15 -6 0 -11 -4 -11 -10 0 -5 -12 -9 -27 -9 -28 2 -28 2 -3 7 19 5
14 8 -25 13 -39 5 -28 6 55 8 69 2 98 5 85 11 -16 7 -12 9 20 10 35 2 37 3 15
10 -16 5 16 8 88 9 73 1 111 -3 107 -9 -3 -5 1 -10 10 -10 9 0 14 4 11 8 -3 5
1 9 8 9 22 0 7 -25 -17 -30 -18 -3 -16 -5 6 -6 16 0 37 8 50 20 17 15 18 19 4
14 -12 -5 -16 -3 -12 7 5 13 -15 14 -135 11 -127 -4 -140 -2 -140 13 0 15 -2
15 -22 -2 -19 -17 -21 -17 -15 -1 6 15 -2 17 -76 19 l-82 2 78 3 c42 2 77 8
77 13 0 5 -15 6 -34 3 -21 -3 -36 -1 -41 7 -6 9 5 11 44 9 28 -2 51 -1 51 4 0
4 -21 8 -47 9 l-48 1 55 7 55 7 -45 3 -45 3 50 7 c28 4 42 8 33 8 -10 1 -18 7
-18 14 0 9 -3 9 -12 0 -17 -17 -68 -15 -68 2 0 8 -6 17 -12 19 -7 3 12 7 42 8
48 2 45 3 -30 9 l-85 6 85 3 c70 3 79 4 50 11 -19 5 -55 7 -80 4 -25 -2 -70 0
-100 5 -42 7 -48 9 -25 12 17 1 -15 6 -70 9 l-100 6 125 1 c69 1 116 -2 106
-6 -34 -13 -4 -17 79 -11 78 7 79 7 20 8 -43 2 -56 5 -45 12 10 7 -19 10 -92
10 -65 0 -108 4 -108 10 0 6 -5 10 -11 10 -5 0 -7 -4 -4 -10 4 -6 -10 -10 -34
-10 -23 0 -41 4 -41 9 0 5 -12 12 -27 14 -16 2 10 5 56 6 93 1 106 8 23 12
-31 2 -52 7 -52 14 0 18 15 28 18 12 2 -11 20 -14 83 -13z m1002 19 c-18 -2
-48 -2 -65 0 -18 2 -4 4 32 4 36 0 50 -2 33 -4z m-1123 -18 c0 -8 -5 -15 -11
-15 -5 0 -8 4 -5 9 4 5 0 12 -6 14 -8 3 -6 6 5 6 9 1 17 -6 17 -14z m720 -7
c0 -4 -4 -8 -9 -8 -6 0 -12 4 -15 8 -3 5 1 9 9 9 8 0 15 -4 15 -9z m83 5 c-7
-2 -19 -2 -25 0 -7 3 -2 5 12 5 14 0 19 -2 13 -5z m90 0 c-13 -2 -33 -2 -45 0
-13 2 -3 4 22 4 25 0 35 -2 23 -4z m170 0 c-18 -2 -48 -2 -65 0 -18 2 -4 4 32
4 36 0 50 -2 33 -4z m1897 -3 c0 -5 -8 -10 -17 -10 -15 0 -16 2 -3 10 19 12
20 12 20 0z m-394 -12 c4 -7 3 -8 -4 -4 -14 9 -15 1 -3 -23 7 -13 6 -18 -4
-18 -8 0 -12 4 -9 9 3 4 0 8 -6 8 -8 0 -8 6 0 20 12 23 16 24 26 8z m67 5 c-7
-2 -19 -2 -25 0 -7 3 -2 5 12 5 14 0 19 -2 13 -5z m270 0 c-7 -2 -21 -2 -30 0
-10 3 -4 5 12 5 17 0 24 -2 18 -5z m160 0 c-39 -7 -25 -22 17 -19 22 2 40 -1
40 -6 0 -17 -81 -5 -91 14 -8 16 -6 18 23 17 24 -1 27 -3 11 -6z m354 1 c-3
-3 -12 -4 -19 -1 -8 3 -5 6 6 6 11 1 17 -2 13 -5z m-2540 -10 c-3 -3 -12 -4
-19 -1 -8 3 -5 6 6 6 11 1 17 -2 13 -5z m1628 -5 c-18 -5 -33 -5 -39 1 -7 7 4
10 30 9 39 -1 39 -1 9 -10z m-2558 -5 c-3 -3 -12 -4 -19 -1 -8 3 -5 6 6 6 11
1 17 -2 13 -5z m1076 -1 c-7 -2 -21 -2 -30 0 -10 3 -4 5 12 5 17 0 24 -2 18
-5z m1965 -4 c-7 -4 -15 -6 -19 -3 -9 5 -21 -25 -14 -36 3 -5 -3 -7 -12 -5
-12 1 -17 10 -16 24 3 20 0 21 -150 17 -94 -2 -120 -1 -67 3 121 9 293 9 278
0z m269 -5 c-3 -3 -12 -4 -19 -1 -8 3 -5 6 6 6 11 1 17 -2 13 -5z m-3329 -11
c-10 -2 -28 -2 -40 0 -13 2 -5 4 17 4 22 1 32 -1 23 -4z m2585 -10 c-13 -2
-35 -2 -50 0 -16 2 -5 4 22 4 28 0 40 -2 28 -4z m327 -10 c37 -12 -76 -19
-175 -12 l-80 6 85 3 85 4 -85 7 c-74 6 -71 6 30 3 63 -2 126 -7 140 -11z
m184 2 c3 -9 0 -15 -9 -15 -9 0 -12 6 -9 15 4 8 7 15 9 15 2 0 5 -7 9 -15z
m-3261 -2 c-7 -2 -19 -2 -25 0 -7 3 -2 5 12 5 14 0 19 -2 13 -5z m2745 -10
c-10 -2 -28 -2 -40 0 -13 2 -5 4 17 4 22 1 32 -1 23 -4z m49 1 c-3 -3 -12 -4
-19 -1 -8 3 -5 6 6 6 11 1 17 -2 13 -5z m350 0 c-3 -3 -12 -4 -19 -1 -8 3 -5
6 6 6 11 1 17 -2 13 -5z m-2023 -12 c3 -5 -8 -6 -25 -4 -16 2 -29 6 -29 8 0 8
49 4 54 -4z m264 1 c-32 -2 -84 -2 -115 0 -32 2 -6 3 57 3 63 0 89 -1 58 -3z
m1554 -9 c46 -8 41 -34 -6 -33 -26 0 -28 2 -11 9 31 12 -45 24 -108 17 -35 -5
-47 -3 -37 3 17 11 106 13 162 4z m63 -4 c3 -5 1 -10 -4 -10 -6 0 -11 5 -11
10 0 6 2 10 4 10 3 0 8 -4 11 -10z m185 -1 c-75 -10 -148 -11 -153 -1 -3 4 43
7 101 8 86 0 96 -1 52 -7z m108 4 c-10 -2 -26 -2 -35 0 -10 3 -2 5 17 5 19 0
27 -2 18 -5z m-1858 -19 c0 -2 -19 -4 -42 -4 -26 0 -38 4 -30 8 12 8 72 4 72
-4z m90 8 c0 -10 -36 -9 -46 1 -4 4 5 7 19 7 15 0 27 -4 27 -8z m1197 2 c-3
-3 -12 -4 -19 -1 -8 3 -5 6 6 6 11 1 17 -2 13 -5z m76 -21 c-18 -2 -48 -2 -65
0 -18 2 -4 4 32 4 36 0 50 -2 33 -4z m335 0 c-26 -2 -71 -2 -100 0 -29 2 -8 3
47 3 55 0 79 -1 53 -3z m159 1 c-3 -3 -12 -4 -19 -1 -8 3 -5 6 6 6 11 1 17 -2
13 -5z m-1767 -15 c0 -17 -28 -40 -35 -29 -3 5 -1 10 4 10 26 0 8 19 -21 23
-29 3 -27 4 10 5 24 1 42 -3 42 -9z m1163 -6 c-7 -2 -19 -2 -25 0 -7 3 -2 5
12 5 14 0 19 -2 13 -5z m90 0 c-7 -2 -19 -2 -25 0 -7 3 -2 5 12 5 14 0 19 -2
13 -5z m250 0 c-24 -2 -62 -2 -85 0 -24 2 -5 4 42 4 47 0 66 -2 43 -4z m150 0
c-13 -2 -35 -2 -50 0 -16 2 -5 4 22 4 28 0 40 -2 28 -4z m90 0 c-7 -2 -21 -2
-30 0 -10 3 -4 5 12 5 17 0 24 -2 18 -5z m-2736 -29 c0 -10 -4 -11 -11 -4 -5
5 -39 10 -75 11 -37 0 -58 3 -49 7 9 4 43 6 76 4 43 -3 59 -7 59 -18z m2680 2
c4 -5 2 -6 -4 -2 -8 4 -13 2 -13 -6 0 -9 -3 -10 -8 -2 -4 6 -15 10 -25 8 -9
-1 -15 1 -12 5 6 10 52 8 62 -3z m91 -11 c-3 -3 -9 2 -12 12 -6 14 -5 15 5 6
7 -7 10 -15 7 -18z m349 19 c-3 -3 -12 -4 -19 -1 -8 3 -5 6 6 6 11 1 17 -2 13
-5z m-3249 -21 c-16 -2 -40 -2 -55 0 -16 2 -3 4 27 4 30 0 43 -2 28 -4z m95 0
c-7 -2 -19 -2 -25 0 -7 3 -2 5 12 5 14 0 19 -2 13 -5z m971 -1 c3 -5 -8 -6
-25 -4 -16 2 -29 6 -29 8 0 8 49 4 54 -4z m2274 1 c-10 -2 -26 -2 -35 0 -10 3
-2 5 17 5 19 0 27 -2 18 -5z m-921 -9 c-3 -3 -12 -4 -19 -1 -8 3 -5 6 6 6 11
1 17 -2 13 -5z m-2274 -11 c-7 -2 -21 -2 -30 0 -10 3 -4 5 12 5 17 0 24 -2 18
-5z m2557 3 c0 -15 -14 -35 -21 -30 -15 9 -10 34 6 34 8 0 15 -2 15 -4z m174
-7 c3 -2 -9 -5 -26 -6 -18 0 -26 2 -18 7 13 8 36 8 44 -1z m-1816 -16 c-10 -2
-26 -2 -35 0 -10 3 -2 5 17 5 19 0 27 -2 18 -5z m-1188 -13 c-16 -5 13 -8 83
-9 75 -1 107 2 107 11 0 17 10 4 15 -21 2 -11 0 -21 -6 -21 -5 0 -9 5 -9 10 0
6 -43 10 -110 10 -61 0 -110 4 -110 9 0 5 -10 12 -22 14 -13 2 0 4 27 5 39 0
44 -2 25 -8z m277 4 c-3 -3 -12 -4 -19 -1 -8 3 -5 6 6 6 11 1 17 -2 13 -5z
m2191 -17 c2 -10 -3 -17 -11 -17 -16 0 -30 24 -19 34 10 10 27 1 30 -17z m60
6 c-10 -2 -18 -9 -18 -14 0 -5 -7 -9 -15 -9 -8 0 -15 4 -15 9 0 12 19 20 45
19 17 0 17 -1 3 -5z m407 -13 c-28 -12 -45 -12 -45 0 0 6 15 10 33 9 27 0 29
-2 12 -9z m365 -15 c10 -12 10 -15 -3 -15 -8 0 -17 7 -21 15 -3 8 -2 15 3 15
5 0 14 -7 21 -15z m-2943 -1 c-3 -3 -12 -4 -19 -1 -8 3 -5 6 6 6 11 1 17 -2
13 -5z m661 -1 c-10 -2 -26 -2 -35 0 -10 3 -2 5 17 5 19 0 27 -2 18 -5z m1872
-14 c0 -11 -16 -11 -50 -2 l-25 7 25 6 c28 7 50 2 50 -11z m85 11 c4 -6 -8
-10 -30 -10 -22 0 -34 4 -30 10 3 6 17 10 30 10 13 0 27 -4 30 -10z m-438 -6
c-3 -3 -12 -4 -19 -1 -8 3 -5 6 6 6 11 1 17 -2 13 -5z m-2194 -21 c-7 -2 -19
-2 -25 0 -7 3 -2 5 12 5 14 0 19 -2 13 -5z m-466 -19 c-3 -3 -12 -4 -19 -1 -8
3 -5 6 6 6 11 1 17 -2 13 -5z m40 0 c-3 -3 -12 -4 -19 -1 -8 3 -5 6 6 6 11 1
17 -2 13 -5z m61 -1 c-10 -2 -26 -2 -35 0 -10 3 -2 5 17 5 19 0 27 -2 18 -5z
m380 0 c-10 -2 -28 -2 -40 0 -13 2 -5 4 17 4 22 1 32 -1 23 -4z m2920 0 c-15
-2 -42 -2 -60 0 -18 2 -6 4 27 4 33 0 48 -2 33 -4z m110 0 c-10 -2 -28 -2 -40
0 -13 2 -5 4 17 4 22 1 32 -1 23 -4z m-2141 -9 c-3 -3 -12 -4 -19 -1 -8 3 -5
6 6 6 11 1 17 -2 13 -5z m2020 -20 c-3 -3 -12 -4 -19 -1 -8 3 -5 6 6 6 11 1
17 -2 13 -5z m-3267 -30 c0 -9 -10 -14 -27 -13 l-28 1 25 8 25 8 -25 2 c-23 1
-23 2 -5 9 24 10 35 5 35 -15z m1047 19 c-20 -2 -52 -2 -70 0 -17 2 0 4 38 4
39 0 53 -2 32 -4z m-1144 -10 c-7 -2 -19 -2 -25 0 -7 3 -2 5 12 5 14 0 19 -2
13 -5z m3437 -3 c-8 -5 -22 -9 -30 -9 -10 0 -8 3 5 9 27 12 43 12 25 0z
m-2271 -4 c-7 -7 -129 -10 -136 -3 -3 4 27 7 67 7 40 0 71 -2 69 -4z m171 -15
c12 -12 12 -15 1 -19 -11 -4 -11 -6 0 -13 10 -6 7 -9 -11 -10 -23 -1 -23 -2 4
-8 27 -5 28 -8 14 -21 -8 -9 -13 -26 -12 -38 4 -24 2 -25 -46 -16 -28 6 -31
10 -28 35 4 26 2 29 -26 31 -22 1 -16 3 19 8 38 5 43 8 20 10 l-30 2 30 8 30
8 -27 1 c-33 1 -38 20 -5 23 12 1 0 4 -28 8 -49 7 -49 7 15 6 41 -1 70 -6 80
-15z m-1346 -6 c4 -12 -3 -15 -32 -14 -35 2 -36 2 -7 7 29 6 29 6 -10 12 l-40
7 41 2 c29 1 44 -4 48 -14z m-104 -16 c0 -5 -10 -9 -22 -9 -19 0 -20 -2 -8
-10 17 -11 10 -13 -14 -4 -14 5 -14 9 5 25 21 18 39 17 39 -2z m255 4 c-16 -3
-33 -10 -37 -16 -6 -9 -11 -8 -18 3 -8 13 -10 12 -10 -3 0 -10 -5 -15 -10 -12
-6 4 -8 11 -5 16 4 5 -5 9 -19 9 -16 0 -26 -6 -26 -14 0 -10 -7 -12 -22 -8
-19 5 -20 7 -5 10 9 2 17 8 17 13 0 5 37 8 83 8 45 -1 69 -4 52 -6z m103 0
c-10 -2 -28 -2 -40 0 -13 2 -5 4 17 4 22 1 32 -1 23 -4z m59 1 c-3 -3 -12 -4
-19 -1 -8 3 -5 6 6 6 11 1 17 -2 13 -5z m816 -1 c-7 -2 -21 -2 -30 0 -10 3 -4
5 12 5 17 0 24 -2 18 -5z m-823 -23 c0 -5 -5 -10 -11 -10 -5 0 -7 5 -4 10 3 6
8 10 11 10 2 0 4 -4 4 -10z m893 3 c-13 -2 -33 -2 -45 0 -13 2 -3 4 22 4 25 0
35 -2 23 -4z m-1256 -9 c-3 -3 -12 -4 -19 -1 -8 3 -5 6 6 6 11 1 17 -2 13 -5z
m1298 -34 c-3 -5 -12 -10 -18 -10 -7 0 -6 4 3 10 19 12 23 12 15 0z m-948 -6
c-3 -3 -12 -4 -19 -1 -8 3 -5 6 6 6 11 1 17 -2 13 -5z m580 0 c-3 -3 -12 -4
-19 -1 -8 3 -5 6 6 6 11 1 17 -2 13 -5z m440 -70 c-3 -3 -12 -4 -19 -1 -8 3
-5 6 6 6 11 1 17 -2 13 -5z m-1329 -31 c-10 -2 -26 -2 -35 0 -10 3 -2 5 17 5
19 0 27 -2 18 -5z m19 -19 c-3 -3 -12 -4 -19 -1 -8 3 -5 6 6 6 11 1 17 -2 13
-5z m920 0 c-3 -3 -12 -4 -19 -1 -8 3 -5 6 6 6 11 1 17 -2 13 -5z m-912 -44
c-3 -5 -12 -10 -18 -10 -7 0 -6 4 3 10 19 12 23 12 15 0z m-28 -26 c-3 -3 -12
-4 -19 -1 -8 3 -5 6 6 6 11 1 17 -2 13 -5z m1310 -40 c-3 -3 -12 -4 -19 -1 -8
3 -5 6 6 6 11 1 17 -2 13 -5z m-24 -121 c-7 -2 -19 -2 -25 0 -7 3 -2 5 12 5
14 0 19 -2 13 -5z m-26 -19 c-3 -3 -12 -4 -19 -1 -8 3 -5 6 6 6 11 1 17 -2 13
-5z m60 -130 c-3 -3 -12 -4 -19 -1 -8 3 -5 6 6 6 11 1 17 -2 13 -5z m-250 -30
c-3 -3 -12 -4 -19 -1 -8 3 -5 6 6 6 11 1 17 -2 13 -5z m-290 -20 c-3 -3 -12
-4 -19 -1 -8 3 -5 6 6 6 11 1 17 -2 13 -5z m50 0 c-3 -3 -12 -4 -19 -1 -8 3
-5 6 6 6 11 1 17 -2 13 -5z m40 0 c-3 -3 -12 -4 -19 -1 -8 3 -5 6 6 6 11 1 17
-2 13 -5z m371 -1 c-10 -2 -26 -2 -35 0 -10 3 -2 5 17 5 19 0 27 -2 18 -5z
m79 1 c-3 -3 -12 -4 -19 -1 -8 3 -5 6 6 6 11 1 17 -2 13 -5z m-534 -30 c-4
-10 12 -22 40 -29 4 -2 44 -4 90 -5 56 -1 74 -4 57 -10 -14 -4 -34 -6 -45 -4
-26 5 -52 -16 -60 -48 -6 -23 -4 -25 19 -21 26 5 37 -11 14 -20 -7 -3 22 -6
65 -6 50 -1 76 3 72 9 -3 6 -1 10 4 10 6 0 11 -4 11 -10 0 -5 12 -10 28 -9 24
0 25 1 7 9 -13 6 5 8 55 8 62 -1 67 -2 30 -7 -28 -4 -40 -9 -32 -14 23 -15 12
-23 -30 -20 -30 2 -37 0 -23 -5 19 -9 19 -9 0 -20 -19 -11 -19 -11 3 -12 13 0
20 -4 17 -10 -4 -6 6 -8 25 -6 21 2 28 0 21 -8 -7 -8 0 -11 22 -11 104 -2 151
-7 127 -15 -14 -5 -18 -8 -9 -9 9 -1 22 -8 29 -16 10 -13 9 -15 -11 -15 -19 0
-21 2 -9 10 12 8 11 10 -7 10 -16 0 -21 -4 -16 -16 5 -13 -4 -15 -65 -13 -39
2 -75 0 -79 -5 -4 -4 34 -6 85 -4 50 2 92 -1 92 -5 0 -4 -79 -7 -176 -7 -113
1 -180 -2 -187 -9 -7 -7 -14 -7 -24 0 -9 8 -13 8 -13 0 0 -6 -7 -11 -16 -11
-8 0 -12 5 -9 10 3 6 -6 11 -22 11 -22 2 -20 3 12 9 33 6 27 7 -37 9 -75 1
-96 9 -82 32 4 8 9 7 15 -2 6 -9 9 -10 9 -2 0 6 3 19 7 29 4 12 3 15 -5 10 -8
-5 -10 -2 -6 8 5 12 0 16 -20 16 -24 0 -25 2 -14 20 7 11 21 20 31 20 10 0 15
5 12 10 -3 6 -16 8 -28 5 -13 -4 -34 -2 -47 4 -21 8 -14 10 40 11 48 2 59 4
40 10 -22 7 -21 8 13 9 26 1 37 6 37 16 0 8 -8 15 -17 15 -15 0 -16 -2 -3 -10
11 -7 2 -9 -30 -9 -41 1 -42 2 -15 9 24 6 17 8 -33 9 -39 1 -61 5 -57 11 3 6
-2 10 -12 11 -10 1 0 7 22 14 l40 13 -35 2 c-19 1 -27 4 -17 7 9 2 15 9 12 14
-8 13 19 11 49 -3 24 -10 24 -12 8 -24 -15 -12 -12 -13 23 -13 22 0 34 3 28 6
-7 2 -13 11 -13 18 0 16 -51 42 -95 48 -16 2 -2 4 31 4 43 -1 60 -5 57 -13z
m190 9 c-13 -2 -33 -2 -45 0 -13 2 -3 4 22 4 25 0 35 -2 23 -4z m337 -3 c-22
-7 -20 -8 15 -10 32 -1 36 -3 20 -10 -11 -5 -16 -9 -11 -9 5 -1 3 -7 -3 -14
-6 -8 -8 -17 -4 -20 3 -4 1 -7 -6 -7 -7 0 -9 9 -5 25 6 24 4 25 -42 26 -27 1
-39 4 -26 6 12 2 20 9 17 14 -4 5 11 9 32 8 34 -1 35 -2 13 -9z m-299 -28 c-7
-2 -18 1 -23 6 -8 8 -4 9 13 5 13 -4 18 -8 10 -11z m189 8 c0 -5 -2 -10 -4
-10 -3 0 -8 5 -11 10 -3 6 -1 10 4 10 6 0 11 -4 11 -10z m-1157 -7 c-7 -2 -19
-2 -25 0 -7 3 -2 5 12 5 14 0 19 -2 13 -5z m1062 -3 c-4 -6 9 -10 31 -10 21 0
34 -3 31 -6 -3 -4 -2 -15 3 -24 13 -24 -8 -28 -150 -28 -63 0 -105 2 -92 5 12
2 22 8 22 13 0 4 9 10 20 13 11 3 20 2 20 -3 0 -13 33 -21 44 -10 7 7 3 10
-12 10 -13 0 -22 6 -22 15 0 11 12 15 45 15 25 0 45 5 45 10 0 6 5 10 11 10 5
0 7 -4 4 -10z m200 -20 c-4 -14 -1 -22 10 -26 13 -6 14 -8 3 -15 -18 -12 -90
-11 -108 1 -13 8 -12 10 3 10 9 0 17 7 17 15 0 8 -4 15 -10 15 -5 0 -10 -4
-10 -10 0 -5 -5 -10 -11 -10 -5 0 -7 5 -4 10 3 6 0 11 -7 11 -23 2 46 17 85
18 34 1 38 -1 32 -19z m-1362 -27 c-13 -2 -35 -2 -50 0 -16 2 -5 4 22 4 28 0
40 -2 28 -4z m91 -26 c-10 -6 -20 -5 -27 2 -8 8 -6 11 6 11 9 0 17 6 17 13 0
8 3 7 10 -3 6 -10 4 -17 -6 -23z m103 27 c-3 -3 -12 -4 -19 -1 -8 3 -5 6 6 6
11 1 17 -2 13 -5z m56 -1 c-7 -2 -21 -2 -30 0 -10 3 -4 5 12 5 17 0 24 -2 18
-5z m-6 -19 c-3 -3 -12 -4 -19 -1 -8 3 -5 6 6 6 11 1 17 -2 13 -5z m90 0 c-3
-3 -12 -4 -19 -1 -8 3 -5 6 6 6 11 1 17 -2 13 -5z m381 -1 c-10 -2 -26 -2 -35
0 -10 3 -2 5 17 5 19 0 27 -2 18 -5z m-530 -20 c-10 -2 -18 -8 -18 -13 0 -5 8
-11 18 -13 15 -4 15 -5 0 -6 -9 0 -20 4 -23 9 -3 6 -30 11 -58 12 l-52 1 60 7
c74 8 96 9 73 3z m59 1 c-3 -3 -12 -4 -19 -1 -8 3 -5 6 6 6 11 1 17 -2 13 -5z
m500 0 c-3 -3 -12 -4 -19 -1 -8 3 -5 6 6 6 11 1 17 -2 13 -5z m49 -3 c-4 -5 0
-12 6 -14 7 -3 -9 -5 -37 -5 -27 0 -41 2 -30 5 11 3 24 9 30 14 12 12 38 12
31 0z m332 2 c-21 -2 -57 -2 -80 0 -24 2 -7 4 37 4 44 0 63 -2 43 -4z m-548
-13 c8 -5 11 -10 5 -10 -5 0 -17 5 -25 10 -8 5 -10 10 -5 10 6 0 17 -5 25 -10z
m100 -7 c-14 -3 -29 -9 -35 -14 -7 -7 -3 -8 9 -3 16 6 18 4 13 -9 -4 -10 -2
-17 5 -17 7 0 6 -5 -2 -15 -11 -13 -7 -15 27 -15 21 0 49 7 61 16 28 19 41 11
18 -11 -12 -13 -34 -16 -103 -14 -49 1 -98 -1 -110 -5 -13 -4 -23 -3 -23 2 0
12 86 26 100 17 5 -3 10 -1 10 4 0 7 -38 12 -102 13 l-103 2 105 6 105 6 -85
3 c-90 4 -90 6 4 16 40 5 55 10 45 16 -9 6 3 8 36 7 28 0 39 -3 25 -5z m363 0
c-7 -2 -19 -2 -25 0 -7 3 -2 5 12 5 14 0 19 -2 13 -5z m300 0 c-7 -2 -21 -2
-30 0 -10 3 -4 5 12 5 17 0 24 -2 18 -5z m54 1 c-3 -3 -12 -4 -19 -1 -8 3 -5
6 6 6 11 1 17 -2 13 -5z m-870 -10 c-3 -3 -12 -4 -19 -1 -8 3 -5 6 6 6 11 1
17 -2 13 -5z m192 -25 c-15 -9 -32 -2 -24 11 3 5 13 6 21 3 12 -4 13 -8 3 -14z
m-486 4 c-13 -2 -33 -2 -45 0 -13 2 -3 4 22 4 25 0 35 -2 23 -4z m507 -73 c8
-5 11 -12 7 -17 -5 -4 -11 -2 -15 4 -4 6 -21 13 -37 16 l-30 4 30 1 c17 1 37
-2 45 -8z m80 1 c0 -26 -15 -41 -39 -41 l-26 1 30 13 30 14 -25 10 -25 11 28
0 c15 1 27 -3 27 -8z m-127 -18 c-7 -2 -21 -2 -30 0 -10 3 -4 5 12 5 17 0 24
-2 18 -5z m30 -20 c-7 -2 -21 -2 -30 0 -10 3 -4 5 12 5 17 0 24 -2 18 -5z m50
-30 c-7 -2 -19 -2 -25 0 -7 3 -2 5 12 5 14 0 19 -2 13 -5z m-336 -19 c-3 -3
-12 -4 -19 -1 -8 3 -5 6 6 6 11 1 17 -2 13 -5z m353 2 c0 -9 -30 -14 -35 -6
-4 6 3 10 14 10 12 0 21 -2 21 -4z m83 -3 c-13 -2 -33 -2 -45 0 -13 2 -3 4 22
4 25 0 35 -2 23 -4z m-403 -23 c0 -5 -7 -10 -15 -10 -8 0 -15 5 -15 10 0 6 7
10 15 10 8 0 15 -4 15 -10z m410 0 c0 -5 -4 -10 -10 -10 -5 0 -10 5 -10 10 0
6 5 10 10 10 6 0 10 -4 10 -10z m218 3 c-10 -2 -26 -2 -35 0 -10 3 -2 5 17 5
19 0 27 -2 18 -5z m155 0 c-24 -2 -62 -2 -85 0 -24 2 -5 4 42 4 47 0 66 -2 43
-4z m115 0 c-10 -2 -28 -2 -40 0 -13 2 -5 4 17 4 22 1 32 -1 23 -4z m-460 -30
c-10 -2 -26 -2 -35 0 -10 3 -2 5 17 5 19 0 27 -2 18 -5z m-228 -28 c0 -10 -10
-15 -30 -15 -16 0 -30 4 -30 9 0 8 10 12 53 20 4 0 7 -6 7 -14z m166 0 c-16
-17 -136 -22 -136 -6 0 5 17 7 39 4 23 -3 41 -1 45 6 4 6 21 11 37 11 27 0 29
-2 15 -15z m-271 -25 c3 -6 -1 -7 -9 -4 -18 7 -21 14 -7 14 6 0 13 -4 16 -10z
m132 -6 c-3 -3 -12 -4 -19 -1 -8 3 -5 6 6 6 11 1 17 -2 13 -5z m678 -12 c-3
-3 -11 0 -18 7 -9 10 -8 11 6 5 10 -3 15 -9 12 -12z m-792 -19 c-7 -2 -19 -2
-25 0 -7 3 -2 5 12 5 14 0 19 -2 13 -5z m90 0 c-7 -2 -21 -2 -30 0 -10 3 -4 5
12 5 17 0 24 -2 18 -5z m207 -9 c0 -2 -7 -4 -15 -4 -8 0 -15 4 -15 10 0 5 7 7
15 4 8 -4 15 -8 15 -10z m494 1 c3 -8 1 -15 -3 -15 -5 0 -11 7 -15 15 -3 8 -1
15 3 15 5 0 11 -7 15 -15z m-1461 -22 c-7 -2 -21 -2 -30 0 -10 3 -4 5 12 5 17
0 24 -2 18 -5z m1482 -13 c4 -6 -10 -10 -37 -9 -40 1 -41 2 -13 9 43 11 43 11
50 0z m-1475 -9 c0 -4 -11 -6 -25 -3 -32 6 -32 12 0 12 14 0 25 -4 25 -9z
m858 2 c-10 -2 -26 -2 -35 0 -10 3 -2 5 17 5 19 0 27 -2 18 -5z m335 0 c-7 -2
-19 -2 -25 0 -7 3 -2 5 12 5 14 0 19 -2 13 -5z m-187 -22 c-3 -5 -15 -7 -26
-4 -28 7 -25 13 6 13 14 0 23 -4 20 -9z m432 -8 c2 -8 -5 -13 -15 -13 -11 0
-20 7 -20 15 0 18 28 16 35 -2z m22 2 c0 -8 -2 -15 -4 -15 -2 0 -6 7 -10 15
-3 8 -1 15 4 15 6 0 10 -7 10 -15z m-1217 -2 c-7 -2 -19 -2 -25 0 -7 3 -2 5
12 5 14 0 19 -2 13 -5z m290 0 c-13 -2 -33 -2 -45 0 -13 2 -3 4 22 4 25 0 35
-2 23 -4z m511 -18 c-4 -8 -12 -15 -20 -15 -8 0 -11 6 -8 15 4 8 12 15 20 15
8 0 11 -6 8 -15z m-1039 -4 c-3 -5 9 -12 27 -14 24 -3 19 -4 -17 -5 -33 -1
-45 1 -36 7 11 7 7 10 -15 14 -25 3 -24 4 9 6 22 0 36 -3 32 -8z m1170 -1 c3
-5 -1 -10 -9 -10 -9 0 -16 5 -16 10 0 6 4 10 9 10 6 0 13 -4 16 -10z m-945
-20 c-31 -4 -76 -4 -100 0 -34 6 -20 7 55 7 85 0 92 -1 45 -7z m87 4 c-3 -3
-12 -4 -19 -1 -8 3 -5 6 6 6 11 1 17 -2 13 -5z m156 -1 c-7 -2 -19 -2 -25 0
-7 3 -2 5 12 5 14 0 19 -2 13 -5z m54 1 c-3 -3 -12 -4 -19 -1 -8 3 -5 6 6 6
11 1 17 -2 13 -5z m460 0 c-3 -3 -12 -4 -19 -1 -8 3 -5 6 6 6 11 1 17 -2 13
-5z m240 -24 c-1 -11 -7 -20 -13 -20 -7 0 -10 8 -7 20 3 11 9 20 14 20 4 0 7
-9 6 -20z m218 10 c-3 -5 -16 -10 -28 -9 -20 1 -20 2 3 9 14 4 26 8 28 9 2 1
0 -3 -3 -9z m-1395 -10 c-19 -13 -30 -13 -30 0 0 6 10 10 23 10 18 0 19 -2 7
-10z m230 0 c0 -5 -21 -9 -47 -8 l-48 1 45 7 c25 4 46 8 48 8 1 1 2 -2 2 -8z
m105 0 c-11 -5 -38 -9 -60 -9 -31 0 -36 2 -20 9 11 5 38 9 60 9 31 0 36 -2 20
-9z m375 0 c0 -5 -7 -10 -15 -10 -8 0 -15 5 -15 10 0 6 7 10 15 10 8 0 15 -4
15 -10z m-380 -30 c0 -5 -4 -10 -9 -10 -6 0 -13 5 -16 10 -3 6 1 10 9 10 9 0
16 -4 16 -10z m340 0 c0 -5 -7 -7 -15 -4 -8 4 -15 8 -15 10 0 2 7 4 15 4 8 0
15 -4 15 -10z m-706 -18 c3 -5 -11 -9 -30 -10 -20 -1 -32 3 -29 8 8 12 52 13
59 2z m312 0 c-5 -9 -74 -7 -83 2 -4 3 15 6 41 6 26 0 45 -3 42 -8z m1151 -58
c-3 -3 -12 -4 -19 -1 -8 3 -5 6 6 6 11 1 17 -2 13 -5z m-182 -24 c3 -5 1 -10
-4 -10 -6 0 -11 5 -11 10 0 6 2 10 4 10 3 0 8 -4 11 -10z m-1072 -7 c-7 -2
-21 -2 -30 0 -10 3 -4 5 12 5 17 0 24 -2 18 -5z m177 0 c0 -5 -5 -15 -10 -23
-8 -13 -11 -12 -23 4 -10 13 -22 17 -41 14 -14 -3 -29 -1 -32 3 -3 5 20 9 50
9 31 0 56 -3 56 -7z m-160 -33 c0 -5 -7 -7 -15 -4 -8 4 -15 8 -15 10 0 2 7 4
15 4 8 0 15 -4 15 -10z m1075 -30 c3 -5 -1 -10 -10 -10 -9 0 -13 5 -10 10 3 6
8 10 10 10 2 0 7 -4 10 -10z m1325 -132 c0 -5 -4 -8 -10 -8 -5 0 -10 10 -10
23 0 18 2 19 10 7 5 -8 10 -18 10 -22z m0 -298 c0 -5 -2 -10 -4 -10 -3 0 -8 5
-11 10 -3 6 -1 10 4 10 6 0 11 -4 11 -10z m58 -27 c-10 -2 -28 -2 -40 0 -13 2
-5 4 17 4 22 1 32 -1 23 -4z m-35 -20 c-7 -2 -19 -2 -25 0 -7 3 -2 5 12 5 14
0 19 -2 13 -5z"/>
<path d="M3030 2505 c7 -9 15 -13 17 -11 7 7 -7 26 -19 26 -6 0 -6 -6 2 -15z"/>
<path d="M3065 2510 c3 -5 8 -10 11 -10 2 0 4 5 4 10 0 6 -5 10 -11 10 -5 0
-7 -4 -4 -10z"/>
<path d="M3065 2480 c-3 -5 -1 -10 4 -10 6 0 11 5 11 10 0 6 -2 10 -4 10 -3 0
-8 -4 -11 -10z"/>
<path d="M3338 2483 c7 -3 16 -2 19 1 4 3 -2 6 -13 5 -11 0 -14 -3 -6 -6z"/>
<path d="M3150 2447 c14 -6 27 -15 30 -19 6 -8 48 -3 58 7 3 3 -9 5 -26 5 -18
0 -32 5 -32 10 0 6 -12 10 -27 9 l-28 0 25 -12z"/>
<path d="M1440 2390 c0 -5 5 -10 10 -10 6 0 10 5 10 10 0 6 -4 10 -10 10 -5 0
-10 -4 -10 -10z"/>
<path d="M1458 2343 c7 -3 16 -2 19 1 4 3 -2 6 -13 5 -11 0 -14 -3 -6 -6z"/>
<path d="M818 2403 c7 -3 16 -2 19 1 4 3 -2 6 -13 5 -11 0 -14 -3 -6 -6z"/>
<path d="M668 2363 c18 -2 45 -2 60 0 15 2 0 4 -33 4 -33 0 -45 -2 -27 -4z"/>
<path d="M653 2343 c9 -2 25 -2 35 0 9 3 1 5 -18 5 -19 0 -27 -2 -17 -5z"/>
<path d="M783 2343 c9 -2 23 -2 30 0 6 3 -1 5 -18 5 -16 0 -22 -2 -12 -5z"/>
<path d="M900 2300 c-12 -8 -9 -10 13 -10 16 0 26 4 22 10 -8 12 -16 12 -35 0z"/>
<path d="M828 2273 c7 -3 16 -2 19 1 4 3 -2 6 -13 5 -11 0 -14 -3 -6 -6z"/>
<path d="M775 2250 c3 -5 10 -10 16 -10 5 0 9 5 9 10 0 6 -7 10 -16 10 -8 0
-12 -4 -9 -10z"/>
<path d="M845 2250 c3 -5 8 -10 11 -10 2 0 4 5 4 10 0 6 -5 10 -11 10 -5 0 -7
-4 -4 -10z"/>
<path d="M773 2223 c9 -2 23 -2 30 0 6 3 -1 5 -18 5 -16 0 -22 -2 -12 -5z"/>
<path d="M883 2223 c15 -2 39 -2 55 0 15 2 2 4 -28 4 -30 0 -43 -2 -27 -4z"/>
<path d="M773 2203 c9 -2 23 -2 30 0 6 3 -1 5 -18 5 -16 0 -22 -2 -12 -5z"/>
<path d="M838 2203 c12 -2 32 -2 45 0 12 2 2 4 -23 4 -25 0 -35 -2 -22 -4z"/>
<path d="M980 2200 c0 -5 5 -10 11 -10 5 0 7 5 4 10 -3 6 -8 10 -11 10 -2 0
-4 -4 -4 -10z"/>
<path d="M881 2186 c2 -2 26 -6 53 -9 30 -3 43 -1 35 4 -13 8 -97 13 -88 5z"/>
<path d="M903 2083 c9 -2 23 -2 30 0 6 3 -1 5 -18 5 -16 0 -22 -2 -12 -5z"/>
<path d="M1173 2083 c15 -2 37 -2 50 0 12 2 0 4 -28 4 -27 0 -38 -2 -22 -4z"/>
<path d="M1103 2063 c9 -2 23 -2 30 0 6 3 -1 5 -18 5 -16 0 -22 -2 -12 -5z"/>
<path d="M1168 2063 c6 -2 18 -2 25 0 6 3 1 5 -13 5 -14 0 -19 -2 -12 -5z"/>
<path d="M1228 2043 c7 -3 16 -2 19 1 4 3 -2 6 -13 5 -11 0 -14 -3 -6 -6z"/>
<path d="M920 2020 c0 -5 6 -10 14 -10 8 0 16 -6 19 -12 2 -7 7 -10 11 -7 8 7
-21 39 -35 39 -5 0 -9 -4 -9 -10z"/>
<path d="M728 1993 c7 -3 16 -2 19 1 4 3 -2 6 -13 5 -11 0 -14 -3 -6 -6z"/>
<path d="M888 1993 c7 -3 16 -2 19 1 4 3 -2 6 -13 5 -11 0 -14 -3 -6 -6z"/>
<path d="M993 1985 c0 -8 4 -15 8 -15 4 0 9 7 13 15 3 9 0 15 -8 15 -7 0 -13
-7 -13 -15z"/>
<path d="M683 1973 c15 -2 39 -2 55 0 15 2 2 4 -28 4 -30 0 -43 -2 -27 -4z"/>
<path d="M903 1973 c15 -2 37 -2 50 0 12 2 0 4 -28 4 -27 0 -38 -2 -22 -4z"/>
<path d="M768 1923 c12 -2 32 -2 45 0 12 2 2 4 -23 4 -25 0 -35 -2 -22 -4z"/>
<path d="M3226 2355 c-9 -26 -7 -32 5 -12 6 10 9 21 6 23 -2 3 -7 -2 -11 -11z"/>
<path d="M1510 1909 c0 -5 5 -7 10 -4 6 3 10 8 10 11 0 2 -4 4 -10 4 -5 0 -10
-5 -10 -11z"/>
<path d="M1116 1171 c-9 -14 4 -41 20 -41 20 0 17 18 -3 23 -17 4 -17 5 0 6 9
0 17 6 17 11 0 12 -27 13 -34 1z"/>
<path d="M1178 1173 c7 -3 16 -2 19 1 4 3 -2 6 -13 5 -11 0 -14 -3 -6 -6z"/>
<path d="M964 1138 c-3 -4 6 -8 20 -8 22 0 24 -3 21 -37 -5 -52 9 -67 16 -18
l6 40 2 -37 c1 -40 6 -42 51 -28 24 8 24 8 -7 9 -27 1 -31 4 -28 23 3 13 9 24
15 26 5 2 2 12 -8 22 -18 19 -78 25 -88 8z"/>
<path d="M1070 1140 c0 -5 5 -10 10 -10 6 0 10 5 10 10 0 6 -4 10 -10 10 -5 0
-10 -4 -10 -10z"/>
<path d="M1143 1123 c-15 -5 -18 -33 -4 -33 5 0 12 6 14 13 4 10 6 10 6 0 1
-7 11 -13 24 -13 18 0 19 2 7 10 -11 7 -5 10 25 10 27 0 35 3 26 9 -14 9 -78
12 -98 4z"/>
<path d="M1266 1105 c4 -8 7 -15 9 -15 2 0 5 7 9 15 3 9 0 15 -9 15 -9 0 -12
-6 -9 -15z"/>
<path d="M1122 1066 c7 -8 15 -10 18 -5 3 4 30 9 60 12 50 3 49 3 -18 5 -62 2
-71 0 -60 -12z"/>
<path d="M1268 1073 c7 -3 16 -2 19 1 4 3 -2 6 -13 5 -11 0 -14 -3 -6 -6z"/>
<path d="M1408 1073 c12 -2 30 -2 40 0 9 3 -1 5 -23 4 -22 0 -30 -2 -17 -4z"/>
<path d="M1310 1050 c0 -5 5 -10 10 -10 6 0 10 5 10 10 0 6 -4 10 -10 10 -5 0
-10 -4 -10 -10z"/>
<path d="M1355 1050 c-3 -6 1 -7 9 -4 18 7 21 14 7 14 -6 0 -13 -4 -16 -10z"/>
<path d="M1394 1051 c6 -10 63 -8 73 3 3 3 -13 6 -36 6 -23 0 -40 -4 -37 -9z"/>
<path d="M1218 1023 c7 -3 16 -2 19 1 4 3 -2 6 -13 5 -11 0 -14 -3 -6 -6z"/>
<path d="M1265 1280 c23 -4 30 -8 17 -9 -13 0 -21 -5 -18 -10 9 -13 53 -1 53
15 0 10 -13 14 -46 13 l-46 -2 40 -7z"/>
<path d="M1465 1260 c-3 -5 3 -10 14 -10 12 0 21 5 21 10 0 6 -6 10 -14 10 -8
0 -18 -4 -21 -10z"/>
<path d="M2390 3810 c-9 -6 -10 -10 -3 -10 6 0 15 5 18 10 8 12 4 12 -15 0z"/>
<path d="M2635 3810 c3 -5 12 -7 20 -3 21 7 19 13 -6 13 -11 0 -18 -4 -14 -10z"/>
<path d="M1488 3803 c7 -3 16 -2 19 1 4 3 -2 6 -13 5 -11 0 -14 -3 -6 -6z"/>
<path d="M1873 3803 c9 -2 23 -2 30 0 6 3 -1 5 -18 5 -16 0 -22 -2 -12 -5z"/>
<path d="M1943 3803 c15 -2 37 -2 50 0 12 2 0 4 -28 4 -27 0 -38 -2 -22 -4z"/>
<path d="M2053 3803 c9 -2 25 -2 35 0 9 3 1 5 -18 5 -19 0 -27 -2 -17 -5z"/>
<path d="M2464 3791 c18 -19 61 -37 50 -20 -3 5 4 9 16 9 12 0 18 -4 15 -10
-9 -15 4 -12 20 4 12 12 10 15 -18 19 -18 2 -40 0 -49 -5 -11 -5 -18 -5 -18 1
0 5 -8 12 -17 15 -15 6 -15 5 1 -13z"/>
<path d="M2610 3790 c0 -5 5 -10 10 -10 6 0 10 5 10 10 0 6 -4 10 -10 10 -5 0
-10 -4 -10 -10z"/>
<path d="M1485 3768 c1 -13 7 -23 12 -23 6 0 15 -3 19 -7 11 -12 54 -9 54 3 0
6 -7 9 -15 5 -8 -3 -15 0 -15 6 0 6 11 8 30 5 17 -4 30 -2 30 3 0 6 -17 11
-37 11 l-38 2 35 7 c32 7 30 7 -21 9 -52 1 -56 -1 -54 -21z m45 -23 c0 -5 -5
-3 -10 5 -5 8 -10 20 -10 25 0 6 5 3 10 -5 5 -8 10 -19 10 -25z"/>
<path d="M1918 3783 c7 -3 16 -2 19 1 4 3 -2 6 -13 5 -11 0 -14 -3 -6 -6z"/>
<path d="M2048 3783 c6 -2 18 -2 25 0 6 3 1 5 -13 5 -14 0 -19 -2 -12 -5z"/>
<path d="M2113 3783 c9 -2 25 -2 35 0 9 3 1 5 -18 5 -19 0 -27 -2 -17 -5z"/>
<path d="M1978 3763 c17 -2 47 -2 65 0 17 2 3 4 -33 4 -36 0 -50 -2 -32 -4z"/>
<path d="M2094 3762 c5 -8 66 -4 66 4 0 2 -16 4 -36 4 -19 0 -33 -4 -30 -8z"/>
<path d="M2178 3763 c6 -2 18 -2 25 0 6 3 1 5 -13 5 -14 0 -19 -2 -12 -5z"/>
<path d="M1391 3741 c-11 -7 -11 -9 0 -14 10 -4 10 -6 2 -6 -7 -1 -13 -5 -13
-11 0 -5 7 -7 16 -3 8 3 13 11 10 19 -3 7 0 15 7 18 7 2 8 5 2 5 -5 0 -16 -3
-24 -8z"/>
<path d="M2178 3738 c5 -5 16 -8 23 -6 8 3 3 7 -10 11 -17 4 -21 3 -13 -5z"/>
<path d="M1574 3729 c-10 -17 12 -26 53 -20 27 4 31 6 16 9 -13 2 -23 8 -23
13 0 13 -37 11 -46 -2z"/>
<path d="M2225 3720 c-19 -8 -19 -9 3 -9 12 -1 22 4 22 9 0 6 -1 10 -2 9 -2 0
-12 -4 -23 -9z"/>
<path d="M2667 3719 c7 -7 15 -10 18 -7 3 3 -2 9 -12 12 -14 6 -15 5 -6 -5z"/>
<path d="M2490 3686 c0 -2 7 -7 16 -10 8 -3 12 -2 9 4 -6 10 -25 14 -25 6z"/>
<path d="M2530 3670 c0 -5 5 -10 11 -10 5 0 7 5 4 10 -3 6 -8 10 -11 10 -2 0
-4 -4 -4 -10z"/>
<path d="M2566 3635 c4 -8 10 -15 15 -15 5 0 9 7 9 15 0 8 -7 15 -15 15 -9 0
-12 -6 -9 -15z"/>
<path d="M2568 3603 c7 -3 16 -2 19 1 4 3 -2 6 -13 5 -11 0 -14 -3 -6 -6z"/>
<path d="M978 3533 c6 -2 18 -2 25 0 6 3 1 5 -13 5 -14 0 -19 -2 -12 -5z"/>
<path d="M2099 3377 c-32 -14 -73 -62 -84 -97 -16 -47 2 -106 44 -144 12 -11
21 -17 21 -14 0 3 16 0 36 -7 32 -11 43 -10 84 8 27 11 53 30 59 41 16 31 20
69 9 83 -6 7 -8 19 -5 27 8 20 -48 95 -79 106 -33 13 -53 12 -85 -3z m91 -57
c18 -10 40 -65 40 -102 0 -10 -18 -29 -39 -42 -33 -21 -44 -24 -73 -15 -88 24
-98 108 -18 150 39 21 63 24 90 9z"/>
<path d="M1498 3351 c-31 -27 -33 -33 -32 -92 1 -55 4 -65 28 -86 32 -27 101
-32 131 -8 56 42 64 52 70 89 3 21 8 42 11 47 3 5 2 9 -3 9 -4 0 -14 13 -21
29 -10 22 -21 30 -50 35 -73 12 -100 7 -134 -23z m139 -33 c30 -28 29 -49 -2
-87 -33 -38 -56 -45 -99 -31 -38 12 -58 51 -45 86 19 54 104 72 146 32z"/>
<path d="M1138 3343 c6 -2 18 -2 25 0 6 3 1 5 -13 5 -14 0 -19 -2 -12 -5z"/>
<path d="M3750 3340 c0 -5 6 -10 14 -10 8 0 18 5 21 10 3 6 -3 10 -14 10 -12
0 -21 -4 -21 -10z"/>
<path d="M3338 3333 c6 -2 18 -2 25 0 6 3 1 5 -13 5 -14 0 -19 -2 -12 -5z"/>
<path d="M3025 3310 c-3 -5 1 -10 10 -10 9 0 13 5 10 10 -3 6 -8 10 -10 10 -2
0 -7 -4 -10 -10z"/>
<path d="M3218 3313 c7 -3 16 -2 19 1 4 3 -2 6 -13 5 -11 0 -14 -3 -6 -6z"/>
<path d="M3293 3313 c9 -2 15 -9 12 -14 -4 -5 -2 -9 3 -9 6 0 12 7 16 15 4 11
-2 15 -22 14 -17 -1 -20 -3 -9 -6z"/>
<path d="M2818 3303 c6 -2 18 -2 25 0 6 3 1 5 -13 5 -14 0 -19 -2 -12 -5z"/>
<path d="M2978 3283 c6 -2 18 -2 25 0 6 3 1 5 -13 5 -14 0 -19 -2 -12 -5z"/>
<path d="M3108 3283 c7 -3 16 -2 19 1 4 3 -2 6 -13 5 -11 0 -14 -3 -6 -6z"/>
<path d="M3330 3283 c1 -30 54 -42 85 -19 19 14 17 15 -19 9 -28 -4 -37 -3
-32 5 5 8 0 12 -13 12 -12 0 -21 -3 -21 -7z"/>
<path d="M2988 3253 c17 -2 47 -2 65 0 17 2 3 4 -33 4 -36 0 -50 -2 -32 -4z"/>
<path d="M2808 3233 c6 -2 12 -9 12 -14 0 -6 -5 -7 -12 -3 -7 5 -8 3 -3 -5 5
-9 11 -9 17 -3 12 12 2 32 -15 31 -9 0 -9 -2 1 -6z"/>
<path d="M2978 3233 c6 -2 18 -2 25 0 6 3 1 5 -13 5 -14 0 -19 -2 -12 -5z"/>
<path d="M3073 3233 c9 -2 25 -2 35 0 9 3 1 5 -18 5 -19 0 -27 -2 -17 -5z"/>
<path d="M2748 3183 c7 -3 16 -2 19 1 4 3 -2 6 -13 5 -11 0 -14 -3 -6 -6z"/>
<path d="M2813 3183 c9 -2 23 -2 30 0 6 3 -1 5 -18 5 -16 0 -22 -2 -12 -5z"/>
<path d="M3008 3183 c7 -3 16 -2 19 1 4 3 -2 6 -13 5 -11 0 -14 -3 -6 -6z"/>
<path d="M3048 3173 c7 -3 16 -2 19 1 4 3 -2 6 -13 5 -11 0 -14 -3 -6 -6z"/>
<path d="M3108 3173 c7 -3 16 -2 19 1 4 3 -2 6 -13 5 -11 0 -14 -3 -6 -6z"/>
<path d="M2990 3150 c0 -5 4 -10 9 -10 6 0 13 5 16 10 3 6 -1 10 -9 10 -9 0
-16 -4 -16 -10z"/>
<path d="M510 3140 c-35 -6 -35 -7 -9 -14 15 -4 37 -6 50 -4 18 2 20 5 8 14
-8 5 -30 7 -49 4z"/>
<path d="M3260 3146 c0 -9 30 -14 35 -6 4 6 -3 10 -14 10 -12 0 -21 -2 -21 -4z"/>
<path d="M328 3123 c6 -2 18 -2 25 0 6 3 1 5 -13 5 -14 0 -19 -2 -12 -5z"/>
<path d="M3348 3123 c12 -2 30 -2 40 0 9 3 -1 5 -23 4 -22 0 -30 -2 -17 -4z"/>
<path d="M3045 3109 c-4 -6 -5 -12 -2 -15 2 -3 7 2 10 11 7 17 1 20 -8 4z"/>
<path d="M2710 3088 c0 -14 8 -18 38 -17 30 1 32 3 12 7 -19 5 -13 8 25 12
l50 6 -63 4 c-54 4 -62 3 -62 -12z"/>
<path d="M3438 3103 c18 -2 45 -2 60 0 15 2 0 4 -33 4 -33 0 -45 -2 -27 -4z"/>
<path d="M800 3090 c0 -5 10 -10 23 -10 18 0 19 2 7 10 -19 13 -30 13 -30 0z"/>
<path d="M230 3080 c0 -5 5 -10 11 -10 6 0 9 -6 6 -13 -2 -6 2 -18 9 -25 12
-11 14 -9 14 7 0 11 -5 23 -10 26 -6 4 -8 11 -5 16 4 5 -1 9 -9 9 -9 0 -16 -4
-16 -10z"/>
<path d="M300 3060 c0 -21 5 -30 16 -30 8 0 12 5 8 11 -5 8 -1 8 14 0 11 -6
29 -11 39 -11 15 0 16 2 3 10 -12 8 -12 10 5 11 l20 0 -20 9 c-11 5 -33 9 -48
9 -16 1 -26 5 -22 11 3 6 1 10 -4 10 -6 0 -11 -13 -11 -30z"/>
<path d="M0 3070 c0 -5 6 -10 14 -10 8 0 18 5 21 10 3 6 -3 10 -14 10 -12 0
-21 -4 -21 -10z"/>
<path d="M2813 3073 c9 -2 23 -2 30 0 6 3 -1 5 -18 5 -16 0 -22 -2 -12 -5z"/>
<path d="M2763 3053 c15 -2 37 -2 50 0 12 2 0 4 -28 4 -27 0 -38 -2 -22 -4z"/>
<path d="M2918 3053 c6 -2 18 -2 25 0 6 3 1 5 -13 5 -14 0 -19 -2 -12 -5z"/>
<path d="M2700 3030 c-13 -8 -12 -10 3 -10 9 0 17 5 17 10 0 12 -1 12 -20 0z"/>
<path d="M2755 3030 c-3 -5 1 -10 9 -10 9 0 16 5 16 10 0 6 -4 10 -9 10 -6 0
-13 -4 -16 -10z"/>
<path d="M3388 3033 c7 -3 16 -2 19 1 4 3 -2 6 -13 5 -11 0 -14 -3 -6 -6z"/>
<path d="M2636 3008 c-7 -30 5 -41 40 -35 29 4 28 4 -3 6 -18 0 -33 6 -33 12
0 6 7 9 15 5 17 -6 18 -4 9 18 -9 23 -21 20 -28 -6z"/>
<path d="M2718 3003 c12 -2 32 -2 45 0 12 2 2 4 -23 4 -25 0 -35 -2 -22 -4z"/>
<path d="M3313 3003 c9 -2 25 -2 35 0 9 3 1 5 -18 5 -19 0 -27 -2 -17 -5z"/>
<path d="M3403 3003 c9 -2 23 -2 30 0 6 3 -1 5 -18 5 -16 0 -22 -2 -12 -5z"/>
<path d="M3258 2983 c7 -3 16 -2 19 1 4 3 -2 6 -13 5 -11 0 -14 -3 -6 -6z"/>
<path d="M2748 2973 c7 -3 16 -2 19 1 4 3 -2 6 -13 5 -11 0 -14 -3 -6 -6z"/>
<path d="M2680 2959 l-35 -6 42 -2 c23 0 44 -7 46 -13 4 -8 6 -7 6 3 1 22 -15
27 -59 18z"/>
<path d="M3115 2960 c-3 -5 -1 -10 4 -10 6 0 11 5 11 10 0 6 -2 10 -4 10 -3 0
-8 -4 -11 -10z"/>
<path d="M3335 2959 c-23 -5 -16 -7 28 -8 31 0 57 1 57 3 0 8 -56 11 -85 5z"/>
<path d="M3208 2953 c7 -3 16 -2 19 1 4 3 -2 6 -13 5 -11 0 -14 -3 -6 -6z"/>
<path d="M3066 2933 c-3 -4 -6 -11 -6 -17 0 -6 5 -4 10 4 9 13 11 13 20 0 15
-23 12 -27 -20 -22 -16 2 -27 8 -24 13 3 5 0 9 -5 9 -6 0 -11 -5 -11 -11 0 -5
-5 -7 -11 -3 -7 4 -10 1 -7 -7 8 -24 77 -24 100 0 16 18 16 21 3 21 -9 0 -14
4 -11 8 5 9 -29 13 -38 5z"/>
<path d="M3228 2933 c6 -2 18 -2 25 0 6 3 1 5 -13 5 -14 0 -19 -2 -12 -5z"/>
<path d="M3323 2933 c9 -2 25 -2 35 0 9 3 1 5 -18 5 -19 0 -27 -2 -17 -5z"/>
<path d="M3408 2933 c6 -2 18 -2 25 0 6 3 1 5 -13 5 -14 0 -19 -2 -12 -5z"/>
<path d="M2720 2910 c0 -6 11 -8 28 -4 39 10 40 14 4 14 -18 0 -32 -5 -32 -10z"/>
<path d="M2808 2913 c7 -3 16 -2 19 1 4 3 -2 6 -13 5 -11 0 -14 -3 -6 -6z"/>
<path d="M2956 2905 c-9 -25 4 -45 30 -45 24 0 32 14 14 25 -5 3 -10 1 -10 -4
0 -6 -5 -11 -11 -11 -5 0 -7 5 -3 12 5 7 3 8 -6 3 -9 -5 -10 -2 -5 14 7 24 0
29 -9 6z"/>
<path d="M3193 2913 c9 -2 23 -2 30 0 6 3 -1 5 -18 5 -16 0 -22 -2 -12 -5z"/>
<path d="M3273 2913 c20 -2 54 -2 75 0 20 2 3 4 -38 4 -41 0 -58 -2 -37 -4z"/>
<path d="M2915 2890 c-19 -8 -19 -9 3 -9 12 -1 22 4 22 9 0 6 -1 10 -2 9 -2 0
-12 -4 -23 -9z"/>
<path d="M2808 2883 c7 -3 16 -2 19 1 4 3 -2 6 -13 5 -11 0 -14 -3 -6 -6z"/>
<path d="M3230 2870 c0 -5 5 -10 10 -10 6 0 10 5 10 10 0 6 -4 10 -10 10 -5 0
-10 -4 -10 -10z"/>
<path d="M2920 2866 c0 -2 7 -6 15 -10 8 -3 15 -1 15 4 0 6 -7 10 -15 10 -8 0
-15 -2 -15 -4z"/>
<path d="M3038 2863 c7 -3 16 -2 19 1 4 3 -2 6 -13 5 -11 0 -14 -3 -6 -6z"/>
<path d="M3025 2840 c-3 -5 -1 -10 4 -10 6 0 11 5 11 10 0 6 -2 10 -4 10 -3 0
-8 -4 -11 -10z"/>
<path d="M3248 2793 c7 -3 16 -2 19 1 4 3 -2 6 -13 5 -11 0 -14 -3 -6 -6z"/>
<path d="M2743 2773 c15 -2 39 -2 55 0 15 2 2 4 -28 4 -30 0 -43 -2 -27 -4z"/>
<path d="M3128 2753 c7 -3 16 -2 19 1 4 3 -2 6 -13 5 -11 0 -14 -3 -6 -6z"/>
<path d="M3258 2753 c7 -3 16 -2 19 1 4 3 -2 6 -13 5 -11 0 -14 -3 -6 -6z"/>
<path d="M2790 2730 c-18 -5 -11 -7 28 -7 28 0 52 4 52 9 0 10 -45 9 -80 -2z"/>
<path d="M3258 2723 c7 -3 16 -2 19 1 4 3 -2 6 -13 5 -11 0 -14 -3 -6 -6z"/>
<path d="M2855 2680 c-3 -5 -1 -10 4 -10 6 0 11 5 11 10 0 6 -2 10 -4 10 -3 0
-8 -4 -11 -10z"/>
<path d="M3208 2683 c6 -2 18 -2 25 0 6 3 1 5 -13 5 -14 0 -19 -2 -12 -5z"/>
<path d="M3193 2663 c-24 -9 -14 -33 13 -33 24 0 25 2 13 18 -7 9 -13 18 -14
18 0 1 -6 -1 -12 -3z"/>
<path d="M3148 2633 c7 -3 16 -2 19 1 4 3 -2 6 -13 5 -11 0 -14 -3 -6 -6z"/>
<path d="M3078 2613 c6 -2 18 -2 25 0 6 3 1 5 -13 5 -14 0 -19 -2 -12 -5z"/>
<path d="M3488 1993 c7 -3 16 -2 19 1 4 3 -2 6 -13 5 -11 0 -14 -3 -6 -6z"/>
<path d="M2746 1975 c4 -8 8 -15 10 -15 2 0 4 7 4 15 0 8 -4 15 -10 15 -5 0
-7 -7 -4 -15z"/>
<path d="M3638 1963 c7 -3 16 -2 19 1 4 3 -2 6 -13 5 -11 0 -14 -3 -6 -6z"/>
<path d="M3790 1741 c-22 -6 -23 -8 -7 -14 24 -9 24 -9 31 8 3 8 4 15 3 14 -1
-1 -13 -4 -27 -8z"/>
<path d="M2920 1730 c-18 -12 -2 -12 25 0 13 6 15 9 5 9 -8 0 -22 -4 -30 -9z"/>
<path d="M18 1183 c12 -2 32 -2 45 0 12 2 2 4 -23 4 -25 0 -35 -2 -22 -4z"/>
<path d="M3847 1161 c-3 -15 -1 -18 11 -14 10 4 13 2 8 -5 -4 -7 -2 -12 3 -12
6 0 11 -13 11 -29 0 -16 5 -31 12 -33 19 -7 58 3 52 13 -3 5 -1 9 5 9 6 0 8 7
5 15 -4 8 -16 15 -29 15 -13 0 -25 7 -28 14 -4 11 -1 13 11 9 14 -6 15 -5 2 9
-8 9 -19 14 -23 11 -4 -3 -14 0 -21 6 -10 9 -15 7 -19 -8z"/>
<path d="M0 1160 c0 -5 5 -10 10 -10 6 0 10 5 10 10 0 6 -4 10 -10 10 -5 0
-10 -4 -10 -10z"/>
<path d="M40 1160 c0 -5 4 -10 9 -10 6 0 13 5 16 10 3 6 -1 10 -9 10 -9 0 -16
-4 -16 -10z"/>
<path d="M210 1160 c0 -5 12 -10 28 -10 21 0 24 2 12 10 -20 13 -40 13 -40 0z"/>
<path d="M3543 1162 c-25 -4 -32 -32 -9 -32 18 0 15 -33 -4 -41 -8 -3 -23 3
-33 15 -10 12 -16 16 -13 9 4 -6 -1 -16 -10 -21 -15 -9 -15 -10 5 -17 14 -4
20 -12 17 -21 -4 -11 0 -13 19 -8 23 6 25 3 25 -26 0 -31 -30 -69 -55 -70 -6
0 -12 -11 -13 -25 -2 -23 2 -25 41 -26 23 -1 59 -1 80 0 36 3 37 2 37 -30 0
-26 -3 -30 -12 -21 -7 7 -21 12 -32 12 -17 0 -18 2 -6 10 12 8 10 10 -9 10
-13 0 -22 -3 -18 -6 9 -9 -21 -36 -32 -30 -12 8 -41 -4 -41 -16 0 -12 70 -1
85 13 13 13 22 11 22 -6 0 -9 -10 -15 -26 -16 -17 -1 -20 -3 -8 -6 18 -5 24
-43 7 -43 -5 0 -9 6 -7 13 1 8 -8 11 -25 9 -16 -1 -28 2 -28 8 0 5 -5 10 -11
10 -5 0 -7 -5 -4 -11 4 -6 1 -10 -6 -8 -28 3 -38 -1 -33 -16 4 -8 16 -15 28
-14 20 0 20 1 1 9 -20 8 -19 9 1 9 23 1 48 -21 37 -32 -3 -4 1 -7 11 -7 9 0
15 -4 11 -9 -3 -5 -49 -10 -102 -10 -53 0 -98 -3 -101 -6 -3 -3 40 -5 96 -5
71 0 102 -4 104 -12 3 -9 9 -8 22 4 9 10 24 14 33 11 11 -4 14 -3 9 5 -4 7 -4
12 1 12 4 0 18 3 31 6 12 4 22 2 22 -4 0 -6 -10 -13 -22 -15 -13 -2 -4 -5 20
-6 26 0 41 -5 37 -11 -3 -5 0 -10 7 -10 10 -1 9 -4 -2 -13 -27 -21 -13 -47 26
-47 19 0 34 -4 34 -9 0 -5 -18 -7 -40 -4 -36 5 -40 3 -40 -16 0 -12 -7 -24
-16 -28 -21 -8 1 -23 34 -23 13 0 20 -4 17 -10 -4 -6 7 -10 25 -10 18 0 29 -4
25 -10 -4 -6 11 -11 37 -12 37 -1 38 -2 11 -5 -18 -2 -33 -8 -33 -14 0 -5 -8
-9 -19 -9 -10 0 -19 -6 -18 -12 1 -41 -3 -50 -17 -39 -12 10 -19 8 -35 -8 -12
-12 -31 -21 -43 -22 -22 -1 -22 -1 2 -8 24 -7 24 -7 -7 -14 -60 -12 -36 -27
43 -27 54 0 80 -4 90 -15 10 -10 25 -13 42 -9 19 5 24 3 17 -4 -5 -5 -19 -12
-30 -15 -11 -3 12 -5 50 -6 49 -1 66 -4 55 -11 -13 -8 -13 -10 1 -10 19 0 42
24 32 33 -3 4 1 7 11 7 9 0 14 -4 11 -10 -4 -6 5 -9 19 -8 36 3 35 35 -1 41
l-28 4 28 2 c16 0 27 7 27 15 0 8 -12 17 -27 19 l-28 4 28 2 27 1 0 338 c-1
286 -3 332 -14 307 -7 -16 -11 -36 -8 -42 2 -8 -4 -13 -18 -13 -11 0 -19 -4
-16 -8 7 -11 -40 -52 -59 -52 -8 0 -25 5 -39 12 -20 9 -23 14 -15 25 6 7 22
13 34 13 35 0 55 10 55 27 0 13 3 13 15 3 8 -7 15 -9 16 -4 4 35 3 50 -6 56
-16 12 -28 9 -17 -4 8 -10 4 -13 -14 -14 -13 -1 -24 3 -24 9 0 7 -4 7 -12 -1
-7 -7 -17 -12 -23 -12 -5 0 -3 5 5 10 13 9 13 11 0 20 -8 5 -10 10 -4 10 24 0
10 30 -15 31 -25 1 -25 2 4 9 l30 8 -28 1 c-16 0 -26 5 -22 11 3 6 -3 10 -15
10 -12 0 -18 5 -15 10 8 13 -25 13 -45 0 -12 -8 -9 -10 12 -10 30 0 50 -20 21
-21 -10 0 -13 -3 -5 -6 6 -2 12 -13 12 -23 0 -11 8 -24 18 -29 14 -8 14 -11 2
-12 -8 -1 -22 -1 -31 0 -8 1 -21 -10 -27 -24 -7 -14 -22 -29 -34 -34 -26 -9
-68 -3 -68 11 0 6 -7 7 -16 4 -12 -4 -15 -2 -10 9 3 9 0 15 -9 15 -8 0 -15 -6
-16 -12 0 -7 -5 -3 -11 9 -6 12 -18 24 -27 27 -9 3 4 2 29 -1 42 -5 44 -5 30
13 -8 11 -19 22 -25 26 -5 4 -2 10 8 14 25 9 3 34 -32 35 -25 0 -25 0 -3 9 37
15 26 20 -25 12z m347 -172 c0 -6 -13 -9 -29 -8 -16 1 -27 6 -25 10 7 12 54
10 54 -2z m-262 -59 c8 -4 -18 -6 -60 -3 -40 2 -75 6 -77 8 -9 8 124 3 137 -5z
m201 -44 c-2 -41 -4 -44 -31 -44 -31 0 -35 8 -14 29 7 8 17 24 20 36 12 37 26
25 25 -21z m-256 26 c-7 -2 -19 -2 -25 0 -7 3 -2 5 12 5 14 0 19 -2 13 -5z
m54 -89 c-3 -3 -12 -4 -19 -1 -8 3 -5 6 6 6 11 1 17 -2 13 -5z m-14 -71 c-7
-2 -21 -2 -30 0 -10 3 -4 5 12 5 17 0 24 -2 18 -5z m156 -69 c17 -4 31 -13 31
-20 0 -18 -15 -18 -34 1 -9 9 -17 11 -21 5 -9 -15 -22 -12 -29 5 -6 17 5 18
53 9z m11 -58 c0 -3 -4 -8 -10 -11 -5 -3 -10 -1 -10 4 0 6 5 11 10 11 6 0 10
-2 10 -4z m-55 -36 c3 -5 1 -10 -4 -10 -6 0 -11 5 -11 10 0 6 2 10 4 10 3 0 8
-4 11 -10z m50 -10 c3 -5 1 -10 -4 -10 -6 0 -11 5 -11 10 0 6 2 10 4 10 3 0 8
-4 11 -10z m-21 -25 c3 -9 0 -15 -8 -15 -7 0 -13 7 -13 15 0 8 4 15 8 15 4 0
9 -7 13 -15z m193 -51 c-3 -3 -12 -4 -19 -1 -8 3 -5 6 6 6 11 1 17 -2 13 -5z
m-97 -24 c-12 -8 -9 -10 12 -10 25 0 46 -15 36 -26 -7 -6 -68 17 -68 26 0 5
-8 11 -17 13 -10 3 -2 5 17 6 26 0 31 -2 20 -9z m57 4 c-3 -3 -12 -4 -19 -1
-8 3 -5 6 6 6 11 1 17 -2 13 -5z m-137 -86 c0 -9 -17 -14 -48 -15 -46 -1 -46
-1 -9 6 20 4 40 11 44 14 9 10 13 9 13 -5z m53 -35 c-13 -2 -33 -2 -45 0 -13
2 -3 4 22 4 25 0 35 -2 23 -4z m70 0 c-7 -2 -21 -2 -30 0 -10 3 -4 5 12 5 17
0 24 -2 18 -5z m70 0 c-7 -2 -21 -2 -30 0 -10 3 -4 5 12 5 17 0 24 -2 18 -5z
m-60 -20 c-13 -2 -33 -2 -45 0 -13 2 -3 4 22 4 25 0 35 -2 23 -4z"/>
<path d="M18 1133 c12 -2 32 -2 45 0 12 2 2 4 -23 4 -25 0 -35 -2 -22 -4z"/>
<path d="M53 1113 c31 -2 57 -9 57 -15 0 -7 -18 -8 -55 -3 -33 4 -55 3 -55 -3
0 -15 40 -20 100 -12 30 4 51 8 46 9 -5 0 -3 8 4 16 11 13 2 15 -71 13 -69 -1
-74 -2 -26 -5z"/>
<path d="M263 1113 c9 -2 25 -2 35 0 9 3 1 5 -18 5 -19 0 -27 -2 -17 -5z"/>
<path d="M3730 1110 c0 -5 -7 -10 -15 -10 -8 0 -15 -5 -15 -11 0 -6 -7 -9 -15
-6 -8 4 -17 2 -20 -3 -3 -5 18 -9 50 -9 55 1 60 4 49 33 -7 17 -34 22 -34 6z"/>
<path d="M230 1070 c0 -5 7 -7 15 -4 8 4 15 8 15 10 0 2 -7 4 -15 4 -8 0 -15
-4 -15 -10z"/>
<path d="M123 1063 c9 -2 23 -2 30 0 6 3 -1 5 -18 5 -16 0 -22 -2 -12 -5z"/>
<path d="M0 991 l0 -71 95 0 c52 0 95 3 95 8 0 12 -14 29 -30 35 -10 4 -8 6 8
6 13 1 22 -5 22 -14 0 -8 9 -15 20 -15 11 0 37 7 57 15 43 18 77 20 67 3 -4
-7 -3 -8 4 -4 29 17 10 28 -37 22 -26 -3 -59 -2 -72 3 -20 8 -17 10 24 10 28
1 47 6 47 12 0 7 -11 10 -27 7 -16 -3 -39 -2 -53 2 -22 7 -20 8 13 9 32 1 36
3 25 15 -7 8 -14 10 -16 5 -2 -5 -18 -8 -35 -8 l-32 1 30 8 c25 6 21 8 -26 9
-31 0 -84 4 -118 7 l-61 7 0 -72z m153 22 c-7 -2 -21 -2 -30 0 -10 3 -4 5 12
5 17 0 24 -2 18 -5z m-45 -30 c-10 -2 -26 -2 -35 0 -10 3 -2 5 17 5 19 0 27
-2 18 -5z m12 -17 c0 -9 -50 -12 -62 -5 -8 6 1 9 25 9 20 0 37 -2 37 -4z m-12
-33 c-15 -2 -42 -2 -60 0 -18 2 -6 4 27 4 33 0 48 -2 33 -4z"/>
<path d="M318 1053 c7 -3 16 -2 19 1 4 3 -2 6 -13 5 -11 0 -14 -3 -6 -6z"/>
<path d="M3108 1043 c7 -3 16 -2 19 1 4 3 -2 6 -13 5 -11 0 -14 -3 -6 -6z"/>
<path d="M293 1023 c9 -2 23 -2 30 0 6 3 -1 5 -18 5 -16 0 -22 -2 -12 -5z"/>
<path d="M3098 1023 c7 -3 16 -2 19 1 4 3 -2 6 -13 5 -11 0 -14 -3 -6 -6z"/>
<path d="M3145 1009 c15 -7 11 -8 -20 -6 -28 1 -39 -2 -37 -10 1 -8 -8 -13
-20 -13 -13 0 -29 -4 -36 -8 -8 -6 -1 -9 20 -9 18 0 41 7 51 15 16 14 19 14
27 2 10 -16 -4 -30 -31 -30 -9 0 -16 -7 -16 -15 0 -8 7 -14 16 -13 9 2 15 -3
14 -9 -2 -9 12 -13 45 -12 35 0 42 3 27 9 -18 8 -18 9 5 10 l25 2 -25 8 c-22
7 -21 8 15 11 34 2 35 3 11 6 -34 5 -81 43 -53 43 9 0 17 7 17 15 0 10 -9 15
-27 14 -25 0 -26 -1 -8 -10z"/>
<path d="M528 953 c7 -3 16 -2 19 1 4 3 -2 6 -13 5 -11 0 -14 -3 -6 -6z"/>
<path d="M3880 950 c0 -5 5 -10 11 -10 5 0 7 5 4 10 -3 6 -8 10 -11 10 -2 0
-4 -4 -4 -10z"/>
<path d="M288 943 c7 -3 16 -2 19 1 4 3 -2 6 -13 5 -11 0 -14 -3 -6 -6z"/>
<path d="M2768 943 c6 -2 18 -2 25 0 6 3 1 5 -13 5 -14 0 -19 -2 -12 -5z"/>
<path d="M3018 943 c7 -3 16 -2 19 1 4 3 -2 6 -13 5 -11 0 -14 -3 -6 -6z"/>
<path d="M253 923 c9 -2 23 -2 30 0 6 3 -1 5 -18 5 -16 0 -22 -2 -12 -5z"/>
<path d="M2840 920 c-8 -5 -23 -11 -33 -14 -19 -6 -14 -26 6 -26 7 0 6 4 -3
10 -11 7 -7 10 18 10 18 0 31 4 28 9 -4 5 0 12 6 14 7 3 9 6 3 6 -5 0 -17 -4
-25 -9z"/>
<path d="M2936 914 c-5 -13 4 -15 58 -13 49 2 63 5 59 16 -8 20 -109 18 -117
-3z m87 -1 c-13 -2 -35 -2 -50 0 -16 2 -5 4 22 4 28 0 40 -2 28 -4z"/>
<path d="M208 903 c6 -2 18 -2 25 0 6 3 1 5 -13 5 -14 0 -19 -2 -12 -5z"/>
<path d="M532 895 c-11 -13 -8 -15 20 -14 22 1 26 3 13 7 l-20 5 20 8 20 8
-20 0 c-11 0 -26 -6 -33 -14z"/>
<path d="M118 883 c7 -3 16 -2 19 1 4 3 -2 6 -13 5 -11 0 -14 -3 -6 -6z"/>
<path d="M283 883 c9 -2 23 -2 30 0 6 3 -1 5 -18 5 -16 0 -22 -2 -12 -5z"/>
<path d="M2890 880 c0 -13 20 -13 40 0 12 8 9 10 -12 10 -16 0 -28 -4 -28 -10z"/>
<path d="M2968 883 c7 -3 16 -2 19 1 4 3 -2 6 -13 5 -11 0 -14 -3 -6 -6z"/>
<path d="M3008 883 c7 -3 16 -2 19 1 4 3 -2 6 -13 5 -11 0 -14 -3 -6 -6z"/>
<path d="M3057 878 c4 -7 -68 -13 -109 -9 -10 1 -18 -3 -18 -8 0 -6 11 -11 25
-11 16 0 25 -6 25 -15 0 -23 32 -18 62 10 15 14 36 25 47 25 11 0 23 5 26 10
4 6 -7 9 -28 8 -19 -2 -33 -6 -30 -10z"/>
<path d="M3170 886 c0 -10 28 -13 41 -5 10 6 7 9 -13 9 -16 0 -28 -2 -28 -4z"/>
<path d="M3245 880 c3 -5 8 -10 11 -10 2 0 4 5 4 10 0 6 -5 10 -11 10 -5 0 -7
-4 -4 -10z"/>
<path d="M3460 881 c-8 -6 -18 -7 -22 -5 -4 3 -8 1 -8 -4 0 -16 77 -12 91 4 9
12 7 14 -17 14 -16 0 -36 -4 -44 -9z"/>
<path d="M538 863 c7 -3 16 -2 19 1 4 3 -2 6 -13 5 -11 0 -14 -3 -6 -6z"/>
<path d="M3106 861 c-5 -7 1 -10 16 -8 20 2 23 -2 20 -25 -3 -32 21 -39 37
-10 6 9 11 12 11 6 0 -7 11 -9 25 -6 29 5 34 22 6 22 -11 0 -21 5 -23 11 -5
15 -84 24 -92 10z"/>
<path d="M3040 830 c0 -5 19 -10 43 -9 32 0 37 2 22 9 -28 12 -65 12 -65 0z"/>
<path d="M440 801 c0 -5 -12 -12 -27 -14 -17 -2 -8 -5 21 -6 42 -1 47 1 36 14
-14 17 -30 20 -30 6z"/>
<path d="M2735 800 c3 -5 8 -10 11 -10 2 0 4 5 4 10 0 6 -5 10 -11 10 -5 0 -7
-4 -4 -10z"/>
<path d="M2988 803 c12 -2 32 -2 45 0 12 2 2 4 -23 4 -25 0 -35 -2 -22 -4z"/>
<path d="M2943 783 c15 -2 39 -2 55 0 15 2 2 4 -28 4 -30 0 -43 -2 -27 -4z"/>
<path d="M3115 781 c3 -5 -3 -11 -12 -13 -10 -3 2 -5 27 -5 35 0 39 1 20 7
-24 7 -23 7 10 12 34 5 34 5 -8 6 -24 1 -41 -2 -37 -7z"/>
<path d="M2893 763 c9 -2 25 -2 35 0 9 3 1 5 -18 5 -19 0 -27 -2 -17 -5z"/>
<path d="M2968 763 c6 -2 18 -2 25 0 6 3 1 5 -13 5 -14 0 -19 -2 -12 -5z"/>
<path d="M2978 743 c7 -3 16 -2 19 1 4 3 -2 6 -13 5 -11 0 -14 -3 -6 -6z"/>
<path d="M3160 741 c0 -5 6 -12 13 -14 6 -3 -8 -6 -33 -8 l-45 -2 50 -7 c28
-4 38 -8 23 -8 l-27 -2 20 -34 20 -34 -20 5 c-15 4 -21 1 -21 -11 0 -12 -11
-16 -47 -17 -42 -1 -44 -2 -18 -9 l30 -7 -35 -5 c-33 -5 171 -13 234 -9 16 1
33 -4 38 -11 6 -10 8 -8 8 4 0 13 -11 18 -52 21 l-53 3 58 2 c31 1 57 7 57 12
0 6 17 10 39 10 34 0 39 3 39 25 0 27 -22 34 -32 10 -3 -8 -14 -15 -25 -15
-13 0 -19 5 -15 14 3 8 0 17 -7 22 -7 4 -10 3 -6 -3 3 -5 -7 -17 -23 -26 -26
-16 -30 -16 -44 -1 -9 8 -16 11 -16 5 0 -20 -49 -11 -73 12 l-23 24 50 2 c63
2 73 11 15 13 l-44 1 45 7 45 7 -46 1 c-31 2 -49 7 -53 17 -6 16 -26 21 -26 6z
m150 -127 c0 -2 -9 -4 -20 -4 -11 0 -20 4 -20 9 0 5 9 7 20 4 11 -3 20 -7 20
-9z m-102 -1 c-16 -2 -28 -9 -28 -14 0 -5 -15 -8 -32 -8 -31 2 -31 2 -5 6 15
2 25 9 22 14 -4 5 11 8 32 8 30 -2 32 -3 11 -6z"/>
<path d="M3200 740 c0 -5 5 -10 11 -10 5 0 7 5 4 10 -3 6 -8 10 -11 10 -2 0
-4 -4 -4 -10z"/>
<path d="M3053 713 c9 -2 23 -2 30 0 6 3 -1 5 -18 5 -16 0 -22 -2 -12 -5z"/>
<path d="M3053 693 c9 -2 23 -2 30 0 6 3 -1 5 -18 5 -16 0 -22 -2 -12 -5z"/>
<path d="M3328 693 c6 -2 18 -2 25 0 6 3 1 5 -13 5 -14 0 -19 -2 -12 -5z"/>
<path d="M3448 693 c6 -2 18 -2 25 0 6 3 1 5 -13 5 -14 0 -19 -2 -12 -5z"/>
<path d="M3568 693 c7 -3 16 -2 19 1 4 3 -2 6 -13 5 -11 0 -14 -3 -6 -6z"/>
<path d="M3608 693 c6 -2 18 -2 25 0 6 3 1 5 -13 5 -14 0 -19 -2 -12 -5z"/>
<path d="M2910 673 c0 -5 26 -9 58 -9 54 -2 55 -1 17 7 -52 10 -75 11 -75 2z"/>
<path d="M3073 673 c9 -2 17 -11 17 -19 0 -17 -37 -27 -76 -21 -25 3 -24 4 9
6 20 0 37 5 37 10 0 4 -24 6 -52 3 -42 -3 -59 -10 -80 -34 -16 -16 -28 -33
-28 -39 0 -5 12 -9 28 -9 21 0 24 -2 12 -10 -10 -7 10 -10 65 -10 54 0 75 3
65 10 -8 5 -28 7 -43 4 -31 -5 -97 14 -97 29 0 5 7 7 15 3 8 -3 15 -1 15 4 0
6 -5 10 -12 10 -6 0 -8 3 -5 7 4 3 40 5 82 4 72 -2 75 -1 81 23 4 17 11 23 22
19 15 -4 15 -3 2 6 -8 6 -28 10 -45 10 -17 -1 -22 -3 -12 -6z"/>
<path d="M3238 673 c7 -3 16 -2 19 1 4 3 -2 6 -13 5 -11 0 -14 -3 -6 -6z"/>
<path d="M3514 673 c4 -8 1 -13 -8 -13 -9 0 -16 -5 -16 -11 0 -7 -10 -9 -25
-7 -33 7 -32 0 1 -12 15 -6 42 -7 62 -4 35 7 35 7 11 20 -13 7 -22 15 -21 19
2 4 0 10 -4 13 -4 4 -4 1 0 -5z"/>
<path d="M3590 670 c0 -5 14 -7 33 -3 45 8 47 13 4 13 -20 0 -37 -4 -37 -10z"/>
<path d="M2718 643 c6 -2 18 -2 25 0 6 3 1 5 -13 5 -14 0 -19 -2 -12 -5z"/>
<path d="M818 633 c6 -2 18 -2 25 0 6 3 1 5 -13 5 -14 0 -19 -2 -12 -5z"/>
<path d="M8 603 c7 -3 16 -2 19 1 4 3 -2 6 -13 5 -11 0 -14 -3 -6 -6z"/>
<path d="M2966 595 c-3 -9 0 -15 9 -15 9 0 12 6 9 15 -4 8 -7 15 -9 15 -2 0
-5 -7 -9 -15z"/>
<path d="M3395 602 l30 -5 -25 -7 c-15 -5 7 -8 60 -7 77 0 80 1 30 7 -51 5
-52 6 -20 11 22 4 9 6 -35 6 -38 0 -56 -2 -40 -5z"/>
<path d="M3543 603 c9 -2 23 -2 30 0 6 3 -1 5 -18 5 -16 0 -22 -2 -12 -5z"/>
<path d="M3602 584 c-13 -13 -27 -22 -33 -19 -5 4 -9 1 -9 -4 0 -6 9 -11 20
-11 11 0 20 -4 20 -10 0 -6 21 -9 48 -8 l47 1 -45 4 c-31 3 -40 7 -30 14 11 6
11 9 2 9 -9 0 -8 7 4 25 21 32 6 31 -24 -1z"/>
<path d="M2728 593 c6 -2 18 -2 25 0 6 3 1 5 -13 5 -14 0 -19 -2 -12 -5z"/>
<path d="M0 533 c0 -29 2 -29 19 5 10 18 9 22 -4 22 -10 0 -15 -9 -15 -27z"/>
<path d="M2728 543 c6 -2 18 -2 25 0 6 3 1 5 -13 5 -14 0 -19 -2 -12 -5z"/>
<path d="M2830 529 c0 -5 5 -7 10 -4 6 3 10 8 10 11 0 2 -4 4 -10 4 -5 0 -10
-5 -10 -11z"/>
<path d="M2875 530 c-4 -6 12 -10 39 -10 25 0 46 5 46 10 0 6 -18 10 -39 10
-22 0 -43 -4 -46 -10z"/>
<path d="M2970 529 c0 -6 11 -8 29 -4 21 4 30 2 34 -9 4 -10 18 -16 34 -15 15
0 21 3 13 6 -44 14 -45 16 -20 23 19 6 10 8 -32 9 -36 1 -58 -3 -58 -10z"/>
<path d="M2783 523 c9 -2 17 -9 17 -14 0 -5 4 -9 10 -9 5 0 7 7 4 15 -4 8 -16
14 -28 14 -16 -1 -17 -2 -3 -6z"/>
<path d="M230 510 c-13 -8 -12 -10 3 -10 9 0 17 5 17 10 0 12 -1 12 -20 0z"/>
<path d="M3600 511 c0 -12 39 -25 47 -17 4 3 -1 6 -10 6 -9 0 -17 5 -17 10 0
6 -4 10 -10 10 -5 0 -10 -4 -10 -9z"/>
<path d="M2848 503 c6 -2 18 -2 25 0 6 3 1 5 -13 5 -14 0 -19 -2 -12 -5z"/>
<path d="M2973 503 c9 -2 23 -2 30 0 6 3 -1 5 -18 5 -16 0 -22 -2 -12 -5z"/>
<path d="M160 491 c0 -13 23 -19 44 -11 18 6 18 7 -5 13 -32 9 -39 9 -39 -2z"/>
<path d="M3713 493 c9 -2 25 -2 35 0 9 3 1 5 -18 5 -19 0 -27 -2 -17 -5z"/>
<path d="M2838 483 c12 -2 32 -2 45 0 12 2 2 4 -23 4 -25 0 -35 -2 -22 -4z"/>
<path d="M2913 475 c0 -9 4 -14 9 -13 5 2 10 8 10 13 0 5 -5 11 -10 13 -5 1
-9 -4 -9 -13z"/>
<path d="M2838 463 c6 -2 18 -2 25 0 6 3 1 5 -13 5 -14 0 -19 -2 -12 -5z"/>
<path d="M2758 363 c7 -3 16 -2 19 1 4 3 -2 6 -13 5 -11 0 -14 -3 -6 -6z"/>
<path d="M2748 343 c6 -2 18 -2 25 0 6 3 1 5 -13 5 -14 0 -19 -2 -12 -5z"/>
<path d="M3569 345 c-8 -7 -61 -12 -153 -14 -38 0 -67 -3 -65 -6 3 -2 47 -4
99 -4 52 0 115 0 139 0 24 0 47 -5 51 -10 3 -6 18 -10 33 -9 14 1 24 4 22 7
-3 2 3 10 13 17 15 11 10 12 -33 11 -27 -1 -61 2 -75 6 -14 5 -28 5 -31 2z"/>
<path d="M3580 300 c0 -5 6 -11 13 -12 6 0 -8 -4 -33 -8 -41 -6 -39 -7 28 -8
42 -1 72 2 72 8 0 6 -12 10 -26 10 -14 0 -23 4 -19 10 3 6 -3 10 -14 10 -12 0
-21 -4 -21 -10z"/>
<path d="M3473 293 c9 -2 25 -2 35 0 9 3 1 5 -18 5 -19 0 -27 -2 -17 -5z"/>
<path d="M3685 280 c3 -5 8 -10 11 -10 2 0 4 5 4 10 0 6 -5 10 -11 10 -5 0 -7
-4 -4 -10z"/>
<path d="M2808 273 c6 -2 18 -2 25 0 6 3 1 5 -13 5 -14 0 -19 -2 -12 -5z"/>
<path d="M3875 260 c19 -8 133 -14 124 -6 -2 2 -35 6 -74 9 -44 4 -63 3 -50
-3z"/>
<path d="M3418 253 c7 -3 16 -2 19 1 4 3 -2 6 -13 5 -11 0 -14 -3 -6 -6z"/>
<path d="M3470 250 c0 -7 14 -8 38 -4 51 9 53 14 4 14 -23 0 -42 -5 -42 -10z"/>
<path d="M3586 231 c-4 -5 3 -7 14 -4 23 6 26 13 6 13 -8 0 -17 -4 -20 -9z"/>
<path d="M2995 220 c-3 -5 1 -10 9 -10 9 0 16 5 16 10 0 6 -4 10 -9 10 -6 0
-13 -4 -16 -10z"/>
<path d="M3423 223 c9 -2 25 -2 35 0 9 3 1 5 -18 5 -19 0 -27 -2 -17 -5z"/>
<path d="M3878 213 c12 -2 30 -2 40 0 9 3 -1 5 -23 4 -22 0 -30 -2 -17 -4z"/>
<path d="M2985 190 c-3 -5 1 -10 10 -10 9 0 13 5 10 10 -3 6 -8 10 -10 10 -2
0 -7 -4 -10 -10z"/>
<path d="M3024 183 c7 -20 -16 -49 -31 -40 -4 2 -30 1 -58 -3 -45 -7 -41 -7
38 -9 75 -1 105 7 80 22 -5 2 -3 2 4 1 6 -1 24 1 40 6 26 8 24 8 -17 10 -42 2
-43 3 -15 10 23 6 25 8 8 9 -12 0 -29 4 -38 8 -14 5 -16 2 -11 -14z"/>
<path d="M3133 164 c-8 -22 7 -34 43 -34 38 0 41 4 18 28 -20 20 -54 23 -61 6z
m42 -14 c-3 -5 -10 -10 -16 -10 -5 0 -9 5 -9 10 0 6 7 10 16 10 8 0 12 -4 9
-10z"/>
<path d="M3850 167 c0 -18 -37 -37 -77 -40 -18 -1 -35 -8 -38 -15 -3 -7 -10
-10 -17 -6 -7 5 -9 2 -6 -7 4 -10 -1 -15 -13 -16 -17 -2 -18 0 -4 13 8 9 15
21 15 27 0 7 -5 4 -11 -5 -5 -10 -15 -18 -20 -18 -6 0 -7 5 -4 10 3 6 -3 10
-13 10 -11 0 -23 -7 -26 -16 -6 -15 -8 -15 -32 1 -24 16 -25 16 -15 -2 9 -18
5 -19 -50 -21 -33 -1 -59 3 -59 8 0 6 -7 10 -15 10 -8 0 -15 -5 -15 -11 0 -8
-5 -8 -15 1 -12 10 -15 10 -15 0 0 -7 -7 -10 -17 -6 -17 6 -17 5 -1 -8 17 -12
17 -14 0 -28 -9 -9 -24 -18 -32 -22 -8 -3 0 -3 18 0 40 7 114 -5 106 -17 -3
-5 99 -9 249 -9 l254 0 2 71 c2 73 -11 87 -23 27 -6 -30 -8 -31 -20 -15 -7 9
-19 17 -27 17 -8 0 -21 5 -29 11 -12 8 -12 10 5 8 33 -2 45 0 45 11 0 6 -8 14
-17 17 -10 4 -20 10 -23 13 -3 4 -17 10 -32 14 -20 4 -28 3 -28 -7z m36 -36
c-17 -3 -29 -10 -28 -16 1 -5 -5 -19 -15 -29 -14 -18 -14 -21 -1 -30 13 -8 13
-11 -1 -28 -15 -18 -55 -24 -86 -12 -13 5 -14 8 -3 15 10 7 10 9 -2 9 -13 0
-13 1 0 10 12 8 10 10 -9 10 -13 0 -22 3 -18 6 3 4 17 4 31 0 17 -4 23 -11 20
-21 -4 -10 0 -15 11 -15 9 0 13 5 10 10 -3 6 1 17 9 26 9 8 16 26 16 39 0 27
12 34 60 33 34 0 34 0 6 -7z m39 -61 c-3 -6 1 -18 11 -27 16 -16 15 -18 -9
-26 -16 -5 -33 -4 -44 2 -15 9 -14 10 12 11 20 0 26 3 17 9 -8 4 -14 12 -14
16 0 4 6 12 14 16 17 11 20 11 13 -1z m-428 -26 c-3 -3 -12 -4 -19 -1 -8 3 -5
6 6 6 11 1 17 -2 13 -5z m111 -1 c-15 -2 -42 -2 -60 0 -18 2 -6 4 27 4 33 0
48 -2 33 -4z m372 -3 c0 -5 -4 -10 -10 -10 -5 0 -10 5 -10 10 0 6 5 10 10 10
6 0 10 -4 10 -10z"/>
<path d="M3263 163 c9 -2 23 -2 30 0 6 3 -1 5 -18 5 -16 0 -22 -2 -12 -5z"/>
<path d="M3250 140 c0 -5 7 -10 15 -10 8 0 15 5 15 10 0 6 -7 10 -15 10 -8 0
-15 -4 -15 -10z"/>
<path d="M3290 139 c0 -5 5 -7 10 -4 6 3 10 8 10 11 0 2 -4 4 -10 4 -5 0 -10
-5 -10 -11z"/>
<path d="M3050 120 c-34 -7 -34 -7 13 -9 30 0 46 3 42 9 -3 6 -9 9 -13 9 -4
-1 -23 -5 -42 -9z"/>
<path d="M3522 110 c-7 -11 -8 -20 -3 -20 9 0 24 30 18 36 -1 2 -8 -6 -15 -16z"/>
<path d="M2973 113 c9 -2 23 -2 30 0 6 3 -1 5 -18 5 -16 0 -22 -2 -12 -5z"/>
<path d="M3263 113 c9 -2 25 -2 35 0 9 3 1 5 -18 5 -19 0 -27 -2 -17 -5z"/>
<path d="M3349 111 c11 -7 7 -10 -15 -13 -28 -3 -28 -4 7 -9 31 -4 35 -2 31
13 -2 10 -12 18 -21 18 -13 0 -14 -2 -2 -9z"/>
<path d="M2890 100 c8 -5 20 -10 25 -10 6 0 3 5 -5 10 -8 5 -19 10 -25 10 -5
0 -3 -5 5 -10z"/>
<path d="M964 87 c-3 -9 -14 -12 -31 -9 -17 3 -24 1 -19 -6 3 -6 -3 -13 -14
-17 -30 -9 -14 -25 25 -25 39 0 56 -17 23 -23 -13 -2 35 -5 105 -6 83 -1 126
3 122 9 -3 6 -13 10 -21 10 -8 0 -14 4 -14 8 0 10 -82 32 -120 32 -19 0 -30 5
-30 14 0 21 -19 30 -26 13z m88 -49 c-9 -9 -15 -9 -24 0 -9 9 -7 12 12 12 19
0 21 -3 12 -12z m61 -15 c-7 -2 -19 -2 -25 0 -7 3 -2 5 12 5 14 0 19 -2 13 -5z"/>
<path d="M2990 90 c0 -5 13 -7 28 -5 16 2 35 -1 43 -7 11 -8 10 -9 -4 -4 -11
3 -16 2 -12 -4 3 -6 16 -10 27 -10 12 0 18 3 14 7 -3 4 4 13 16 20 20 11 15
12 -44 13 -38 0 -68 -4 -68 -10z"/>
<path d="M3548 93 c6 -2 18 -2 25 0 6 3 1 5 -13 5 -14 0 -19 -2 -12 -5z"/>
<path d="M2915 70 c3 -5 13 -10 21 -10 8 0 12 5 9 10 -3 6 -13 10 -21 10 -8 0
-12 -4 -9 -10z"/>
<path d="M3354 68 c1 -7 13 -15 25 -16 16 -3 21 0 16 8 -4 6 -13 9 -20 6 -8
-3 -16 -1 -19 5 -2 5 -3 4 -2 -3z"/>
<path d="M2968 63 c6 -2 10 -9 6 -14 -3 -5 10 -8 28 -8 22 1 26 3 13 7 l-20 5
20 8 c15 6 10 8 -20 8 -22 -1 -34 -3 -27 -6z"/>
</g>
</svg>
