<?xml version="1.0" encoding="UTF-8" standalone="no"?>
<svg
   class="svg-icon"
   style="width: 1em; height: 1em;vertical-align: middle;fill: currentColor;overflow: hidden;"
   viewBox="0 0 1024 1024"
   version="1.1"
   id="svg4"
   sodipodi:docname="air.svg"
   inkscape:version="1.1.2 (b8e25be833, 2022-02-05)"
   xmlns:inkscape="http://www.inkscape.org/namespaces/inkscape"
   xmlns:sodipodi="http://sodipodi.sourceforge.net/DTD/sodipodi-0.dtd"
   xmlns="http://www.w3.org/2000/svg"
   xmlns:svg="http://www.w3.org/2000/svg">
  <defs
     id="defs8" />
  <sodipodi:namedview
     id="namedview6"
     pagecolor="#ffffff"
     bordercolor="#666666"
     borderopacity="1.0"
     inkscape:pageshadow="2"
     inkscape:pageopacity="0.0"
     inkscape:pagecheckerboard="0"
     showgrid="false"
     inkscape:zoom="0.81152344"
     inkscape:cx="512"
     inkscape:cy="512.61613"
     inkscape:window-width="1920"
     inkscape:window-height="1017"
     inkscape:window-x="-8"
     inkscape:window-y="-8"
     inkscape:window-maximized="1"
     inkscape:current-layer="svg4" />
  <path
     d="M135.3216 325.4784c89.4464-76.8 160.1024-137.5232 351.8464-29.184 92.1088 52.0192 166.4 71.68 228.1984 71.5776 108.288 0 178.4832-60.2112 239.1552-112.2816 21.6576-18.5856 24.4224-51.6096 6.2464-73.6768-18.2784-22.1184-50.5344-24.9856-72.192-6.4-89.3952 76.9024-160.1024 137.6256-351.8464 29.184C283.392 61.696 164.7104 163.584 69.376 245.504 47.7696 264.0896 45.0048 297.0112 63.1808 319.1808 81.408 341.1968 113.664 344.1152 135.3216 325.4784zM888.576 436.992c-89.3952 76.8-160.1024 137.6256-351.8464 29.184C283.392 323.072 164.7104 425.0112 69.376 506.88c-21.6064 18.5856-24.4224 51.6096-6.1952 73.6768 18.176 22.1184 50.4832 24.9856 72.1408 6.4C224.768 510.1056 295.424 449.3824 487.168 557.6704c92.1088 52.1216 166.4 71.68 228.1984 71.68 108.288 0 178.4832-60.2112 239.1552-112.384 21.6576-18.5856 24.4224-51.6096 6.2464-73.6256C942.5408 421.1712 910.2336 418.4064 888.576 436.992zM888.576 698.4192c-89.3952 76.9024-160.1024 137.6256-351.8464 29.2864-253.3376-143.104-372.0192-41.216-467.3536 40.704-21.6064 18.5856-24.4224 51.6096-6.1952 73.6768 18.176 22.1184 50.4832 24.8832 72.1408 6.2976C224.768 771.584 295.424 710.912 487.168 819.2c92.1088 52.0192 166.4 71.68 228.1984 71.68 108.288 0 178.4832-60.3136 239.1552-112.384 21.6576-18.5856 24.4224-51.6096 6.2464-73.6768C942.5408 682.7008 910.2336 679.8848 888.576 698.4192z"
     id="path2"
     style="fill:#ffffff;fill-opacity:1" />
</svg>
