<?xml version="1.0" encoding="UTF-8" standalone="no"?>
<!-- Generator: Adobe Illustrator 18.1.1, SVG Export Plug-In . SVG Version: 6.00 Build 0)  -->

<svg
   version="1.1"
   id="Capa_1"
   x="0px"
   y="0px"
   viewBox="0 0 60.01 60.01"
   style="enable-background:new 0 0 60.01 60.01;"
   xml:space="preserve"
   sodipodi:docname="app2.svg"
   inkscape:version="1.1.2 (b8e25be833, 2022-02-05)"
   xmlns:inkscape="http://www.inkscape.org/namespaces/inkscape"
   xmlns:sodipodi="http://sodipodi.sourceforge.net/DTD/sodipodi-0.dtd"
   xmlns="http://www.w3.org/2000/svg"
   xmlns:svg="http://www.w3.org/2000/svg"><defs
   id="defs1310" /><sodipodi:namedview
   id="namedview1308"
   pagecolor="#ffffff"
   bordercolor="#666666"
   borderopacity="1.0"
   inkscape:pageshadow="2"
   inkscape:pageopacity="0.0"
   inkscape:pagecheckerboard="0"
   showgrid="false"
   inkscape:zoom="13.847692"
   inkscape:cx="30.004999"
   inkscape:cy="30.041106"
   inkscape:window-width="1920"
   inkscape:window-height="1017"
   inkscape:window-x="-8"
   inkscape:window-y="-8"
   inkscape:window-maximized="1"
   inkscape:current-layer="Capa_1" />
<g
   id="g1275"
   style="fill:#ffffff;fill-opacity:1">
	<path
   style="fill:#ffffff;fill-opacity:1"
   d="M40.224,0H19.785c-3.584,0-6.5,2.893-6.5,6.449v47.113c0,3.554,2.916,6.448,6.5,6.448h20.438   c3.584,0,6.501-2.894,6.501-6.448V6.449C46.725,2.893,43.808,0,40.224,0z M44.576,53.562c0,2.37-1.952,4.299-4.352,4.299H19.785   c-2.399,0-4.351-1.929-4.351-4.299V6.449h0.001c0-2.371,1.952-4.299,4.351-4.299h20.438c2.399,0,4.352,1.928,4.352,4.299   C44.577,6.449,44.577,53.562,44.576,53.562z M42.366,6.315h-24.72c-0.297,0-0.537,0.24-0.537,0.537v41.753   c0,0.296,0.24,0.538,0.537,0.538h24.72c0.297,0,0.538-0.241,0.538-0.538V6.852C42.903,6.555,42.663,6.315,42.366,6.315z    M41.829,48.067H18.182V7.389h23.646C41.828,7.389,41.828,48.067,41.829,48.067z M30.006,50.038c-1.811,0-3.285,1.473-3.285,3.284   s1.474,3.284,3.285,3.284s3.283-1.474,3.283-3.284C33.289,51.511,31.817,50.038,30.006,50.038z M30.006,55.531   c-1.219,0-2.21-0.991-2.21-2.209s0.991-2.21,2.21-2.21c1.218,0,2.209,0.992,2.209,2.21C32.215,54.54,31.224,55.531,30.006,55.531z    M26.451,4.204c0-0.219,0.214-0.396,0.478-0.396h6.151c0.264,0,0.477,0.177,0.477,0.396S33.345,4.6,33.081,4.6H26.93   C26.667,4.6,26.452,4.423,26.451,4.204z"
   id="path1273" />
</g>
<g
   id="g1277">
</g>
<g
   id="g1279">
</g>
<g
   id="g1281">
</g>
<g
   id="g1283">
</g>
<g
   id="g1285">
</g>
<g
   id="g1287">
</g>
<g
   id="g1289">
</g>
<g
   id="g1291">
</g>
<g
   id="g1293">
</g>
<g
   id="g1295">
</g>
<g
   id="g1297">
</g>
<g
   id="g1299">
</g>
<g
   id="g1301">
</g>
<g
   id="g1303">
</g>
<g
   id="g1305">
</g>
</svg>
