<?xml version="1.0" encoding="UTF-8" standalone="no"?>
<!-- Generator: Adobe Illustrator 16.0.0, SVG Export Plug-In . SVG Version: 6.00 Build 0)  -->

<svg
   version="1.1"
   id="Capa_1"
   x="0px"
   y="0px"
   width="392.186px"
   height="392.186px"
   viewBox="0 0 392.186 392.186"
   style="enable-background:new 0 0 392.186 392.186;"
   xml:space="preserve"
   sodipodi:docname="code.svg"
   inkscape:version="1.1.2 (b8e25be833, 2022-02-05)"
   xmlns:inkscape="http://www.inkscape.org/namespaces/inkscape"
   xmlns:sodipodi="http://sodipodi.sourceforge.net/DTD/sodipodi-0.dtd"
   xmlns="http://www.w3.org/2000/svg"
   xmlns:svg="http://www.w3.org/2000/svg"><defs
   id="defs49"><linearGradient
     id="linearGradient6474"
     inkscape:swatch="solid"><stop
       style="stop-color:#ffffff;stop-opacity:1;"
       offset="0"
       id="stop6472" /></linearGradient></defs><sodipodi:namedview
   id="namedview47"
   pagecolor="#ffffff"
   bordercolor="#666666"
   borderopacity="1.0"
   inkscape:pageshadow="2"
   inkscape:pageopacity="0.0"
   inkscape:pagecheckerboard="0"
   showgrid="false"
   inkscape:zoom="2.1188925"
   inkscape:cx="161.1691"
   inkscape:cy="196.32897"
   inkscape:window-width="1920"
   inkscape:window-height="1017"
   inkscape:window-x="-8"
   inkscape:window-y="-8"
   inkscape:window-maximized="1"
   inkscape:current-layer="Capa_1" />
<g
   id="g14">
	<g
   id="g12">
		<g
   id="g10">
			<path
   d="M368.62,17.951H23.568C10.57,17.951,0,28.524,0,41.52v309.146c0,12.996,10.57,23.568,23.568,23.568h345.053     c12.994,0,23.564-10.572,23.564-23.568V41.52C392.188,28.525,381.614,17.951,368.62,17.951z M297.56,57.528     c0-4.806,3.896-8.703,8.701-8.703h8.703c4.808,0,8.701,3.896,8.701,8.703v9.863c0,4.806-3.896,8.702-8.701,8.702h-8.703     c-4.805,0-8.701-3.896-8.701-8.702V57.528z M257.093,57.528c0-4.806,3.898-8.703,8.703-8.703h8.701     c4.805,0,8.703,3.896,8.703,8.703v9.863c0,4.806-3.898,8.702-8.703,8.702h-8.701c-4.805,0-8.703-3.896-8.703-8.702V57.528z      M363.903,345.951H28.282V102.235h335.621V345.951L363.903,345.951z M364.132,67.391c0,4.806-3.896,8.702-8.701,8.702h-8.703     c-4.809,0-8.702-3.896-8.702-8.702v-9.863c0-4.806,3.896-8.703,8.702-8.703h8.703c4.806,0,8.701,3.896,8.701,8.703V67.391z"
   id="path2" />
			<path
   d="M84.185,233.284l63.084,29.336c1.631,0.755,3.367,1.138,5.162,1.138c2.338,0,4.617-0.664,6.598-1.924     c3.547-2.267,5.666-6.13,5.666-10.334v-0.322c0-4.752-2.785-9.116-7.096-11.118l-39.455-18.332l39.455-18.334     c4.311-2.004,7.096-6.367,7.096-11.117v-0.319c0-4.21-2.119-8.075-5.666-10.334c-1.961-1.253-4.246-1.916-6.605-1.916     c-1.779,0-3.563,0.391-5.16,1.133l-63.08,29.333c-4.307,2.004-7.09,6.369-7.09,11.117v0.877     C77.093,226.909,79.874,231.272,84.185,233.284z"
   id="path4" />
			<path
   d="M165.257,293.036c2.301,3.149,6.002,5.03,9.9,5.03h0.316c5.352,0,10.041-3.426,11.672-8.517L228.7,160.788     c1.192-3.716,0.531-7.818-1.771-10.973c-2.301-3.15-6.002-5.03-9.901-5.03h-0.315c-5.354,0-10.048,3.425-11.679,8.516     l-41.559,128.771C162.292,285.793,162.958,289.889,165.257,293.036z"
   id="path6" />
			<path
   d="M227.49,192.276c0,4.745,2.783,9.109,7.095,11.123l39.455,18.329l-39.455,18.33c-4.31,2.004-7.095,6.368-7.095,11.118     v0.322c0,4.205,2.117,8.068,5.668,10.336c1.974,1.258,4.254,1.924,6.595,1.924c1.793,0,3.528-0.383,5.17-1.142l63.08-29.335     c4.307-2.009,7.09-6.372,7.09-11.115v-0.877c0-4.748-2.783-9.113-7.094-11.117l-63.08-29.333     c-1.591-0.74-3.373-1.131-5.152-1.131c-2.355,0-4.643,0.661-6.604,1.912c-3.551,2.263-5.67,6.127-5.67,10.337v0.318H227.49     L227.49,192.276z"
   id="path8" />
		</g>
	</g>
</g>
<g
   id="g16">
</g>
<g
   id="g18">
</g>
<g
   id="g20">
</g>
<g
   id="g22">
</g>
<g
   id="g24">
</g>
<g
   id="g26">
</g>
<g
   id="g28">
</g>
<g
   id="g30">
</g>
<g
   id="g32">
</g>
<g
   id="g34">
</g>
<g
   id="g36">
</g>
<g
   id="g38">
</g>
<g
   id="g40">
</g>
<g
   id="g42">
</g>
<g
   id="g44">
</g>
<path
   style="fill:#ffffff;stroke-width:0.471945"
   d="M 18.334048,373.34606 C 9.7686469,371.26841 2.550214,363.82968 0.75751071,355.23311 0.01619766,351.67828 0.01619766,40.507726 0.75751071,36.952898 2.601919,28.108386 10.17449,20.535816 19.019002,18.691407 c 3.557074,-0.741781 350.590928,-0.741781 354.147998,0 8.84452,1.844409 16.41708,9.416979 18.2615,18.261491 0.74131,3.554828 0.74131,314.725382 0,318.280212 -1.84442,8.84451 -9.41698,16.41708 -18.2615,18.26149 -3.8447,0.80176 -351.515218,0.65623 -354.832952,-0.14854 z M 364.1053,224.17371 V 102.17602 H 196.093 28.080707 V 224.17371 346.1714 H 196.093 364.1053 Z M 278.44734,75.331461 c 4.10564,-1.885315 4.95542,-4.080118 4.95542,-12.798795 0,-7.070476 -0.43731,-9.037665 -2.50023,-11.247086 -2.22236,-2.380172 -3.39143,-2.67169 -10.71422,-2.67169 -7.44888,0 -8.44532,0.264431 -10.94269,2.90393 -1.98269,2.095537 -2.27176,3.503415 -2.27176,11.064371 0,8.807017 0.69041,10.597471 4.95542,12.850988 2.18715,1.155637 13.93751,1.083273 16.51806,-0.101718 z m 41.61202,-0.604104 c 3.05315,-2.022816 3.66989,-3.835527 3.84726,-11.307819 0.18596,-7.83353 -0.28569,-9.921001 -2.77774,-12.294006 -2.39179,-2.277528 -5.55271,-2.952053 -12.337,-2.632655 -5.96031,0.280606 -8.4115,1.364996 -10.17398,4.50089 -0.97329,1.731751 -1.0568,2.483085 -1.0568,9.508607 0,8.250841 0.19884,9.102862 2.67155,11.447889 2.14469,2.033935 3.2345,2.24933 10.81553,2.137654 6.82999,-0.100619 7.19197,-0.15527 9.01118,-1.36056 z m 38.70584,0.989734 c 1.64888,-0.62299 3.75837,-2.584312 4.78988,-4.453449 0.63232,-1.145787 0.78182,-2.811086 0.78377,-8.730976 0.002,-6.938328 -0.0587,-7.424234 -1.18337,-9.432959 -0.78047,-1.3939 -1.90972,-2.523148 -3.30362,-3.303613 -1.98087,-1.109115 -2.54507,-1.185795 -8.72504,-1.185795 -7.69165,0 -9.39556,0.574231 -11.79862,3.976229 l -1.41583,2.004388 v 7.628446 c 0,7.45385 0.0294,7.678482 1.28516,9.814588 2.0699,3.521028 3.93706,4.184285 11.78058,4.184738 3.55219,2.08e-4 7.05638,-0.225514 7.78709,-0.501597 z"
   id="path3116" /><path
   style="fill:#ffffff;stroke-width:0.472;stroke-miterlimit:4;stroke-dasharray:none"
   d="m 172.34113,297.35692 c -3.26866,-0.87858 -5.8912,-2.93074 -7.57618,-5.92841 -2.77434,-4.93571 -3.90658,-0.68678 19.43092,-72.91814 11.48955,-35.56103 21.24212,-65.46849 21.67238,-66.46104 1.01108,-2.33239 4.71214,-5.64884 7.10347,-6.3653 4.41381,-1.32241 8.56318,-0.41278 11.93153,2.61566 2.85054,2.56287 4.45057,6.33467 4.05791,9.5658 -0.38548,3.17206 -42.08069,131.9113 -43.5155,134.35961 -1.46921,2.50702 -4.56785,4.60764 -7.82816,5.30685 -2.74166,0.58798 -2.39493,0.59948 -5.27637,-0.17503 z"
   id="path3155" /><path
   style="fill:#ffffff;stroke-width:0.471945;stroke:none;stroke-opacity:1"
   d="m 236.19385,262.8824 c -8.62717,-2.76514 -11.20911,-13.68211 -4.73944,-20.03933 1.90883,-1.87565 4.8033,-3.35707 22.59012,-11.56186 11.22042,-5.1758 20.23935,-9.55746 20.04206,-9.73701 -0.19728,-0.17955 -9.4869,-4.54599 -20.64359,-9.7032 -21.44125,-9.91127 -22.60291,-10.60121 -24.5548,-14.58379 -1.3095,-2.67186 -1.26044,-7.81739 0.0991,-10.3921 1.26075,-2.38762 3.53314,-4.63875 5.75439,-5.70055 2.24232,-1.07187 6.11457,-1.37022 8.32322,-0.6413 0.97405,0.32146 16.33766,7.3598 34.14135,15.64075 21.80671,10.14286 32.85033,15.5215 33.84118,16.48187 3.88708,3.7675 4.8483,9.71381 2.38434,14.74996 -0.72251,1.47676 -2.04071,3.23957 -2.92934,3.91736 -0.88863,0.67779 -16.39703,8.10983 -34.46313,16.51564 -35.35284,16.449 -35.41657,16.47308 -39.84546,15.05356 z"
   id="path3194" /><path
   style="fill:#ffffff;stroke-width:0.471945"
   d="m 149.9248,263.24335 c -1.84822,-0.35229 -66.491702,-30.59571 -68.229308,-31.92105 -0.895189,-0.68279 -2.218761,-2.4497 -2.941271,-3.92646 -2.55182,-5.21573 -1.414528,-11.42684 2.744114,-14.98648 1.452805,-1.24355 56.115835,-27.13724 65.984365,-31.25657 5.991,-2.50077 12.31247,-0.40041 15.35282,5.10111 1.17546,2.127 1.39366,3.04354 1.38734,5.82757 -0.005,2.30041 -0.28547,3.87072 -0.92286,5.17111 -1.92545,3.92832 -3.26368,4.72224 -24.61987,14.60616 -11.12211,5.14745 -20.38145,9.50392 -20.57631,9.68105 -0.19486,0.17713 8.82381,4.55878 20.04148,9.73702 22.82765,10.53755 23.9572,11.25346 25.61089,16.23226 2.91769,8.78434 -4.71865,17.47127 -13.83139,15.73428 z"
   id="path3233" /></svg>
