<?xml version="1.0" encoding="UTF-8"?>
<svg version="1.1" xmlns="http://www.w3.org/2000/svg" width="521" height="578">
<path d="M0 0 C4.04001676 1.40138081 5.96503848 4.41035793 8.5 7.7421875 C9.06251465 8.45963135 9.6250293 9.1770752 10.20458984 9.91625977 C11.99271109 12.21665761 13.75082954 14.53705987 15.5 16.8671875 C16.05848633 17.60984863 16.61697266 18.35250977 17.19238281 19.11767578 C38.80078877 48.05818653 57.57524161 79.28882378 68.5 113.8671875 C68.73557617 114.58874023 68.97115234 115.31029297 69.21386719 116.05371094 C84.27228513 162.64673306 77.82192307 210.35151377 63.3671875 256.07421875 C63.05724854 257.05994873 62.74730957 258.04567871 62.42797852 259.0612793 C61.82881792 260.87294799 61.18607706 262.67104005 60.49194336 264.44848633 C58.61916366 269.01900055 58.61916366 269.01900055 59.51953125 273.71484375 C60.11121094 274.44574219 60.70289063 275.17664063 61.3125 275.9296875 C61.89644531 276.68378906 62.48039062 277.43789063 63.08203125 278.21484375 C63.54996094 278.76011719 64.01789063 279.30539062 64.5 279.8671875 C66.02183555 278.20143591 67.5424085 276.53453079 69.0625 274.8671875 C69.52285645 274.36316406 69.98321289 273.85914063 70.45751953 273.33984375 C72.98829693 270.5606736 75.45837073 267.74555486 77.875 264.8671875 C99.12031006 240.60800787 130.26388972 222.22845024 162.5 218.8671875 C177.04350891 217.97641899 190.39164516 220.52093571 203.5 226.8671875 C204.42425781 227.30933594 205.34851563 227.75148437 206.30078125 228.20703125 C229.66447033 240.13672256 247.14469446 262.77193347 255.35693359 287.44140625 C265.25609144 320.219582 260.69090169 351.83361724 245.01538086 381.85107422 C241.89605656 387.60314979 241.89605656 387.60314979 238.5 389.8671875 C238.21390869 389.38475586 237.92781738 388.90232422 237.63305664 388.40527344 C231.72783023 378.48817131 225.76481659 368.86043629 218.5 359.8671875 C217.55253906 358.67222656 217.55253906 358.67222656 216.5859375 357.453125 C205.0344854 343.61990459 188.68300784 334.21411802 170.8125 332.1171875 C154.41901378 331.00646196 138.99458472 336.8775014 125.5 345.8671875 C124.60410156 346.4446875 123.70820313 347.0221875 122.78515625 347.6171875 C119.82833726 350.52851697 119.24940459 353.36844454 118.5 357.3046875 C117.331788 362.71909078 115.90408813 367.67360116 113.75 372.8046875 C109.71002611 383.06772677 111.88016653 390.0141196 115.30859375 400.09765625 C118.46835292 410.09492706 118.38856441 419.11254089 114.5 428.8671875 C110.77843117 435.5660114 105.87429947 439.39087018 98.7890625 442.109375 C94.4161012 443.1169219 90.22550211 443.23363504 85.75 443.2421875 C84.9338623 443.24379883 84.11772461 443.24541016 83.27685547 443.24707031 C78.6497504 443.16185659 74.84916152 442.62088166 70.5 440.8671875 C71.10886608 461.73659715 73.00333354 484.27109808 88.62109375 500.00390625 C89.95778571 501.1738183 91.31602424 502.32000689 92.703125 503.4296875 C94.43048257 504.81157356 95.96586662 506.27623437 97.5 507.8671875 C76.57586922 508.66853719 56.95519262 503.58451403 39.5 491.8671875 C38.84 491.2071875 38.18 490.5471875 37.5 489.8671875 C37.55220703 491.62869141 37.55220703 491.62869141 37.60546875 493.42578125 C38.3179742 527.80956704 24.61786187 552.63288404 3.5 578.8671875 C-0.21371231 578.66049974 -1.39539488 577.97404219 -4.04296875 575.26953125 C-4.94069357 574.12714101 -5.82127077 572.97114034 -6.6875 571.8046875 C-7.1609082 571.18198975 -7.63431641 570.55929199 -8.12207031 569.91772461 C-24.23378956 548.35235455 -34.78336232 526.29962572 -34.5625 498.9296875 C-34.55798828 497.86427734 -34.55347656 496.79886719 -34.54882812 495.70117188 C-34.53711787 493.08978459 -34.52071724 490.47851626 -34.5 487.8671875 C-35.43005859 488.61162109 -35.43005859 488.61162109 -36.37890625 489.37109375 C-53.67088222 502.63582641 -74.68434224 509.37518228 -96.5 507.8671875 C-96.5 507.2071875 -96.5 506.5471875 -96.5 505.8671875 C-91.08823529 501.8671875 -91.08823529 501.8671875 -88.5 501.8671875 C-88.23832031 501.3 -87.97664062 500.7328125 -87.70703125 500.1484375 C-86.4021879 497.6823258 -84.86336506 495.59671973 -83.1875 493.3671875 C-72.34142789 477.98876509 -70.38250132 460.22048147 -70.5 441.8671875 C-71.97533203 442.35058594 -71.97533203 442.35058594 -73.48046875 442.84375 C-82.54282822 445.4173781 -93.83805278 445.24307091 -102.35546875 441.13671875 C-110.22734377 436.47668345 -116.96528049 431.04123683 -119.5 421.8671875 C-121.49997381 410.73756226 -119.64165889 400.58945477 -115.8125 390.0546875 C-113.06682885 382.06595282 -114.65672207 375.6644922 -117.00610352 367.6862793 C-118.56261715 362.22025461 -118.97554587 357.03983889 -119.03125 351.37890625 C-119.20920827 348.78443517 -119.20920827 348.78443517 -121.12890625 347.75 C-121.91136719 347.45867187 -122.69382813 347.16734375 -123.5 346.8671875 C-125.057289 345.94743272 -126.61426147 345.02711815 -128.16723633 344.10009766 C-143.3961599 335.10682076 -159.59076981 329.51242776 -177.390625 333.0546875 C-200.84557658 339.18361957 -217.63411652 355.69907233 -229.80419922 376.04785156 C-232.4559731 380.60807672 -235.0020277 385.22120037 -237.5 389.8671875 C-242.87851287 388.07434988 -244.9124882 382.00050475 -247.39746094 377.15380859 C-253.28243423 364.94861377 -257.5639226 352.28620674 -259.5 338.8671875 C-259.62890625 338.07828125 -259.7578125 337.289375 -259.890625 336.4765625 C-263.69666314 309.43365991 -256.17072232 280.44772263 -240.0625 258.4921875 C-238.56181732 256.60102106 -237.04163427 254.72512259 -235.5 252.8671875 C-234.47132813 251.59294922 -234.47132813 251.59294922 -233.421875 250.29296875 C-219.47976515 233.84644287 -201.01618628 223.68890087 -180.0625 219.1171875 C-161.81736256 217.83682698 -145.23404781 220.50787085 -128.5 227.8671875 C-127.32953125 228.38152344 -126.1590625 228.89585937 -124.953125 229.42578125 C-102.20435213 240.15682004 -81.21307767 257.99381694 -66.05859375 277.96875 C-64.62968206 279.97214804 -64.62968206 279.97214804 -62.5 280.8671875 C-62.396875 279.9803125 -62.29375 279.0934375 -62.1875 278.1796875 C-61.5 274.8671875 -61.5 274.8671875 -59.8359375 272.59350586 C-58.16749892 269.87101937 -58.16749892 269.87101937 -59.08984375 266.61938477 C-59.75693359 264.79491821 -59.75693359 264.79491821 -60.4375 262.93359375 C-60.67259277 262.26785339 -60.90768555 261.60211304 -61.14990234 260.91619873 C-61.65478139 259.48933605 -62.16842433 258.06554974 -62.68994141 256.64468384 C-64.05255359 252.91880399 -65.33790591 249.16656944 -66.625 245.4140625 C-66.88047607 244.67251419 -67.13595215 243.93096588 -67.39916992 243.16694641 C-70.56452516 233.88869869 -72.75152714 224.50533959 -74.5 214.8671875 C-74.73904053 213.64153076 -74.73904053 213.64153076 -74.98291016 212.39111328 C-86.70678762 150.84981212 -66.23298589 90.10973259 -31.80273438 39.36572266 C-28.14510786 34.11674923 -24.33819243 28.98477741 -20.5 23.8671875 C-19.40932312 22.39384555 -18.3194798 20.91988617 -17.23046875 19.4453125 C-16.17525269 18.02286335 -15.11929263 16.60096575 -14.0625 15.1796875 C-13.35456299 14.22654663 -13.35456299 14.22654663 -12.63232422 13.25415039 C-11.27314847 11.44360119 -9.89038279 9.65384647 -8.5 7.8671875 C-8.0035498 7.20380371 -7.50709961 6.54041992 -6.99560547 5.85693359 C-3.28671775 1.14008022 -3.28671775 1.14008022 0 0 Z M-1.5 54.8671875 C-2.91914493 56.52401808 -2.91914493 56.52401808 -4.3359375 58.72265625 C-5.18140137 59.98118408 -5.18140137 59.98118408 -6.04394531 61.26513672 C-6.64819336 62.18568848 -7.25244141 63.10624023 -7.875 64.0546875 C-8.49987305 65.00359863 -9.12474609 65.95250977 -9.76855469 66.93017578 C-41.79231394 116.06952253 -55.88558982 168.40126591 -43.74829102 226.42578125 C-40.84876655 239.47311929 -36.72351548 252.19664107 -32.5 264.8671875 C-28.78896746 266.44696863 -24.89523913 267.43450173 -21.01098633 268.51147461 C-19.09631752 269.04525961 -17.18961468 269.60735805 -15.28320312 270.16992188 C-4.06661186 273.34687547 4.11860232 273.87084014 15.125 270.0546875 C15.9190625 269.79365234 16.713125 269.53261719 17.53125 269.26367188 C19.10495169 268.74125451 20.67282988 268.20091499 22.23388672 267.6418457 C24.5 266.8671875 24.5 266.8671875 26.73876953 266.31713867 C29.83642995 265.46587049 31.86558371 264.82431039 33.68310547 262.08227539 C34.68938685 259.68533561 35.42900486 257.30948619 36.125 254.8046875 C36.4036792 253.88872803 36.6823584 252.97276855 36.96948242 252.02905273 C41.69279367 236.04091822 45.83831694 219.48401813 47.5 202.8671875 C47.60957031 201.81273437 47.71914063 200.75828125 47.83203125 199.671875 C51.87514513 154.92808142 38.22714999 113.43693316 15.25 75.4296875 C14.69626709 74.51340576 14.14253418 73.59712402 13.57202148 72.65307617 C9.69483739 66.41023041 5.54698927 60.23376172 0.5 54.8671875 C-0.16 54.8671875 -0.82 54.8671875 -1.5 54.8671875 Z M-215.5 270.8671875 C-234.94006441 294.57423563 -237.33788501 323.33818629 -236.5 352.8671875 C-233.85955114 349.70458246 -231.56247475 346.46723532 -229.40600586 342.95727539 C-225.07869721 335.92286273 -220.34411749 329.7430665 -214.5 323.8671875 C-213.9121875 323.24457031 -213.324375 322.62195313 -212.71875 321.98046875 C-201.78574792 311.31120137 -185.88678372 306.074221 -170.875 305.5546875 C-147.74943575 306.59016053 -127.20421814 316.43773803 -109.5 330.8671875 C-108.530625 330.1040625 -107.56125 329.3409375 -106.5625 328.5546875 C-96.56304818 321.58477257 -84.91574604 321.70878481 -73.1796875 323.32421875 C-70.92657492 323.77034788 -68.71393046 324.25794865 -66.5 324.8671875 C-71.67192325 316.05903152 -77.77049971 308.49054469 -84.5 300.8671875 C-85.27730469 299.97773438 -86.05460938 299.08828125 -86.85546875 298.171875 C-89.0390868 295.70612576 -91.25765584 293.27958597 -93.5 290.8671875 C-94.22058594 290.08085937 -94.94117188 289.29453125 -95.68359375 288.484375 C-106.8527674 276.76898544 -120.13139078 267.25374304 -134.5 259.8671875 C-135.87865234 259.14789063 -135.87865234 259.14789063 -137.28515625 258.4140625 C-164.12731932 245.28947025 -194.8210934 248.00670234 -215.5 270.8671875 Z M102.5 282.8671875 C101.21208988 283.95498409 99.92052178 285.03846733 98.625 286.1171875 C89.89355938 293.78125762 82.45200028 302.69033095 75.375 311.8671875 C74.81852783 312.58503418 74.26205566 313.30288086 73.6887207 314.04248047 C71.05324303 317.52178593 68.83381653 320.65166858 67.5 324.8671875 C69.170625 324.3721875 69.170625 324.3721875 70.875 323.8671875 C80.44807703 321.77022777 92.7341954 320.83944656 101.578125 325.6015625 C104.22642725 327.34556642 106.86846674 329.09796457 109.5 330.8671875 C110.33660156 330.238125 111.17320312 329.6090625 112.03515625 328.9609375 C132.34679052 313.92282828 155.30330743 302.99337676 181.25 306.5546875 C193.02513776 308.72418556 202.22740331 313.39264241 211.5 320.8671875 C212.31855469 321.47691406 213.13710938 322.08664062 213.98046875 322.71484375 C216.98093243 325.27803055 219.39817176 328.14242642 221.8125 331.2421875 C222.28598877 331.84562988 222.75947754 332.44907227 223.24731445 333.07080078 C228.01341402 339.29220406 231.83423974 345.95581142 235.5 352.8671875 C235.83 352.8671875 236.16 352.8671875 236.5 352.8671875 C241.18040877 327.55553687 234.18931642 299.09270566 220.453125 277.67578125 C210.96355635 264.15866311 199.12159959 254.93217151 182.77441406 251.26269531 C152.15058297 245.93738334 123.96267412 262.5752047 102.5 282.8671875 Z M-38.8125 422.6796875 C-39.95237771 423.58461873 -41.09427506 424.48701239 -42.23828125 425.38671875 C-42.78774414 425.82612793 -43.33720703 426.26553711 -43.90332031 426.71826172 C-45.5 427.8671875 -45.5 427.8671875 -48.37890625 429.11328125 C-50.64161344 430.62321275 -50.64161344 430.62321275 -50.93188477 432.7277832 C-51.11594202 435.20103607 -51.14038082 437.63720221 -51.125 440.1171875 C-51.51679286 456.85019508 -54.49295864 474.59399057 -65.5 487.8671875 C-65.17 488.5271875 -64.84 489.1871875 -64.5 489.8671875 C-46.63546245 476.75757197 -35.14334767 461.77779611 -31.31835938 439.39453125 C-30.23689196 432.20633467 -30.21488229 425.12184928 -30.5 417.8671875 C-33.91143205 417.8671875 -36.23723318 420.62461886 -38.8125 422.6796875 Z M31.5 417.8671875 C30.71974478 439.0207734 33.52550484 458.90526383 48 475.4296875 C49.4730203 476.93572377 50.97215345 478.4168017 52.5 479.8671875 C53.21671875 480.55683594 53.9334375 481.24648438 54.671875 481.95703125 C58.15498853 485.15861492 61.00465094 487.25506232 65.5 488.8671875 C65.12488281 488.22394531 64.74976563 487.58070313 64.36328125 486.91796875 C57.06852619 474.03730553 49.69202606 457.79420937 52.00390625 442.54296875 C52.49637827 438.51002224 52.61809444 435.79562743 51.5 431.8671875 C46.28076921 425.73310618 38.67555318 421.35724255 31.5 417.8671875 Z M-13.5 468.8671875 C-14.15104151 471.22002125 -14.79592122 473.57427199 -15.4375 475.9296875 C-15.61990234 476.58646484 -15.80230469 477.24324219 -15.99023438 477.91992188 C-21.57347186 498.52714385 -18.10339029 519.66969128 -7.66015625 538.1171875 C-5.10986395 542.17177484 -2.40003744 546.05596005 0.5 549.8671875 C6.76491591 547.7788822 10.27461348 538.22496245 13.25 532.5 C23.3233204 511.49712696 23.60531851 490.39688625 16.09692383 468.56347656 C15.89993896 468.00370117 15.7029541 467.44392578 15.5 466.8671875 C12.35424793 466.80821882 9.2086414 466.77327147 6.0625 466.7421875 C5.18400391 466.72542969 4.30550781 466.70867187 3.40039062 466.69140625 C-2.54759738 466.64750966 -7.7381756 467.37837428 -13.5 468.8671875 Z " fill="#FFFFFF" transform="translate(260.5,-0.8671875)"/>
<path d="M0 0 C10.48347944 3.2620803 17.64089451 2.82241999 28.3125 0.1796875 C34.41953859 -1.09750567 40.04522346 -1.32383596 46 0.625 C49.79751896 3.40367241 51.93068862 6.0722864 53.1328125 10.69140625 C56.27066772 31.48804247 39.90197103 52.67083861 28.5625 68.5 C25.96053459 72.02571603 23.28753 75.48416417 20.55078125 78.90625 C18.6766167 81.35113264 17.08792061 83.82688198 15.5625 86.5 C20.43246085 83.8910924 25.12342039 81.15022178 29.75073242 78.12890625 C48.41730613 66.04375277 70.67698745 53.82317819 93.5625 55.5 C98.83236555 57.19388535 100.87701842 59.72581052 103.5625 64.5 C105.9109776 71.5454328 104.18341871 77.57947316 102 84.375 C99.26070858 93.59196514 99.4707536 99.78066105 102.125 109 C104.09429292 115.91202318 104.88752334 122.22667564 101.875 128.9375 C99.9525746 132.2714965 98.21941185 134.05424415 94.5625 135.5 C79.31010289 139.38786593 62.01919325 128.76605467 49.203125 121.3515625 C38.07634399 114.67455015 27.6651525 106.62347789 17.5625 98.5 C15.02526483 101.03723517 15.26483377 101.9120063 15.25 105.4375 C15.60441733 123.9115035 20.4820847 140.9609372 28.5625 157.5 C27.52351563 157.46519531 26.48453125 157.43039062 25.4140625 157.39453125 C14.57125257 157.13940631 5.48099059 157.6937835 -3.4375 164.5 C-6.24141401 161.69608599 -4.74863532 153.38015778 -4.75878906 149.62158203 C-4.59506178 134.48565866 -1.83628034 119.63008396 2.828125 105.2421875 C3.55497753 102.52808922 3.70578338 100.294026 3.5625 97.5 C-0.57916811 99.66087032 -4.06940547 101.96858725 -7.625 105 C-22.65267447 117.24138832 -45.06530873 131.75116249 -65 131.8125 C-66.25941406 131.82925781 -67.51882812 131.84601563 -68.81640625 131.86328125 C-73.98159517 131.34509078 -77.23291305 129.80225616 -80.75 126 C-84.08154858 121.06437248 -83.90700309 116.25923791 -83.4375 110.5 C-82.98234968 108.51004048 -82.48068197 106.53025355 -81.9375 104.5625 C-79.28512057 94.52681437 -80.19398713 86.88202158 -83.65820312 77.24511719 C-85.63413594 71.62975257 -86.35402874 66.96015609 -84.25 61.3125 C-81.64745401 57.27406657 -78.99630664 55.01960221 -74.4375 53.5 C-59.98009562 52.07986849 -47.21853164 57.60602625 -34.5 63.875 C-33.88540924 64.17392151 -33.27081848 64.47284302 -32.63760376 64.78082275 C-20.08395114 70.89655441 -8.18004812 77.9401812 3.5625 85.5 C-0.83398074 78.46197469 -5.41892865 71.62005025 -10.25 64.875 C-34.12572935 31.07071795 -34.12572935 31.07071795 -32.18359375 14.30859375 C-30.89144811 8.17381218 -28.35233068 3.94589256 -23.375 0.1875 C-15.34693079 -4.42436955 -8.28095321 -2.61817613 0 0 Z " fill="#139D60" transform="translate(249.4375,287.5)"/>
</svg>
